<svg width="240" height="211" viewBox="0 0 240 211" fill="none" xmlns="http://www.w3.org/2000/svg">
<path fill-rule="evenodd" clip-rule="evenodd" d="M123.418 117.449L135.195 111.786L135.197 111.791C135.27 111.755 135.343 111.719 135.417 111.685C142.433 108.418 152.605 115.457 158.137 127.409C163.668 139.36 162.465 151.697 155.449 154.964C155.363 155.004 155.277 155.042 155.191 155.079L143.811 160.558L137.291 146.776C135.582 144.581 134.027 142.046 132.729 139.24C131.531 136.652 130.648 134.045 130.073 131.516L123.418 117.449Z" fill="black"/>
<ellipse cx="14.0201" cy="23.8162" rx="14.0201" ry="23.8162" transform="matrix(-0.906138 0.421956 0.420223 0.907898 136.465 111.414)" fill="black"/>
<g filter="url(#filter0_i_222_2)">
<ellipse cx="10.5155" cy="17.863" rx="10.5155" ry="17.863" transform="matrix(-0.906138 0.421956 0.420223 0.907898 135.388 118.316)" fill="url(#paint0_linear_222_2)"/>
</g>
<g filter="url(#filter1_di_222_2)">
<path fill-rule="evenodd" clip-rule="evenodd" d="M135.47 127.527C136.352 128.244 137.21 129.099 138.02 130.074L135.567 134.477L135.47 127.527ZM135.754 147.947L138.63 152.787C137.742 153.005 136.794 152.996 135.821 152.782L135.754 147.947ZM133.35 151.835L133.241 143.986C133.201 143.963 133.162 143.939 133.122 143.914L130.081 149.372C131.135 150.402 132.24 151.234 133.35 151.835ZM133.101 133.936L132.99 125.91C130.926 124.89 128.867 124.68 127.12 125.493C126.634 125.72 126.192 126.017 125.795 126.375L130.429 134.173C130.583 134.034 130.754 133.918 130.943 133.83C131.587 133.531 132.341 133.589 133.101 133.936ZM140.818 151.657L136.259 143.984C136.403 143.86 136.532 143.715 136.646 143.552L143.173 147.212C142.79 149.092 141.999 150.641 140.818 151.657ZM129.828 139.729L124.802 141.155C124.146 139.461 123.705 137.775 123.473 136.166L129.828 139.729ZM125.812 143.427L131.108 141.924C131.165 142.006 131.223 142.087 131.282 142.166L128.347 147.434C127.416 146.25 126.557 144.905 125.812 143.427ZM136.521 137.816L139.617 132.259C140.221 133.196 140.779 134.208 141.277 135.283C141.441 135.638 141.596 135.994 141.741 136.349L136.526 137.829L136.521 137.816ZM137.206 140.194C137.249 140.499 137.272 140.797 137.275 141.084L143.439 144.54C143.454 142.719 143.165 140.722 142.559 138.675L137.206 140.194ZM128.878 136.376L123.28 133.237C123.313 131.468 123.635 129.871 124.236 128.563L128.878 136.376Z" fill="#4C4C4C"/>
</g>
<path fill-rule="evenodd" clip-rule="evenodd" d="M123.423 117.199L135.199 111.537L135.2 111.539C135.274 111.502 135.348 111.466 135.423 111.432C142.439 108.164 152.611 115.204 158.142 127.155C163.674 139.106 162.47 151.444 155.454 154.711C155.388 154.742 155.322 154.771 155.255 154.8L143.815 160.309L137.289 146.512C135.582 144.32 134.031 141.789 132.734 138.987C131.538 136.403 130.657 133.801 130.082 131.277L123.423 117.199Z" fill="black"/>
<path d="M121.045 145.103C126.508 156.906 136.539 163.865 143.449 160.647C150.36 157.429 151.533 145.252 146.07 133.449C140.607 121.646 130.268 114.052 123.357 117.27C116.447 120.487 115.582 133.3 121.045 145.103Z" fill="#222222"/>
<g filter="url(#filter2_i_222_2)">
<ellipse cx="9.85554" cy="17.2261" rx="9.85554" ry="17.2261" transform="matrix(-0.901928 0.432052 0.407225 0.913305 135.36 118.977)" fill="url(#paint1_linear_222_2)"/>
</g>
<g filter="url(#filter3_di_222_2)">
<path fill-rule="evenodd" clip-rule="evenodd" d="M127.207 140.932L126.53 141.222C125.929 139.701 125.52 138.183 125.299 136.733L127.207 140.932ZM136.5 136.943C135.26 134.476 133.303 132.913 131.7 133.027L128.984 127.05C132.503 126.069 137.199 129.637 139.915 135.477L136.5 136.943ZM141.834 142.694L137.03 144.757L139.465 150.115C141.228 148.742 142.045 145.977 141.834 142.694Z" fill="#A9A8A8"/>
</g>
<path fill-rule="evenodd" clip-rule="evenodd" d="M33.8223 74.3688L44.6012 71.4206L44.6025 71.4256C44.6721 71.4052 44.7422 71.3858 44.8126 71.3675C51.2182 69.7005 58.6933 77.1921 61.5088 88.1003C64.3242 99.0086 61.4139 109.203 55.0083 110.87C54.9287 110.89 54.849 110.91 54.7691 110.928L44.3474 113.784L40.9717 101.143C39.88 99.042 38.9692 96.6825 38.3121 94.1369C37.7063 91.7894 37.3655 89.4751 37.2678 87.2717L33.8223 74.3688Z" fill="black"/>
<ellipse cx="11.9926" cy="20.3688" rx="11.9926" ry="20.3688" transform="matrix(-0.96712 0.251671 0.250086 0.968914 45.7192 71.301)" fill="black"/>
<g filter="url(#filter4_i_222_2)">
<ellipse cx="8.9949" cy="15.2773" rx="8.9949" ry="15.2773" transform="matrix(-0.96712 0.251671 0.250086 0.968914 43.7522 76.9414)" fill="url(#paint2_linear_222_2)"/>
</g>
<g filter="url(#filter5_di_222_2)">
<path fill-rule="evenodd" clip-rule="evenodd" d="M42.3968 84.6995C43.0298 85.4393 43.622 86.2925 44.1543 87.2398L41.4071 90.573L42.3968 84.6995ZM39.4956 101.917L41.1754 106.445C40.3925 106.492 39.5945 106.337 38.8067 106.005L39.4956 101.917ZM36.874 104.826L37.989 98.2084C37.96 98.1836 37.931 98.1582 37.9023 98.1321L34.5067 102.252C35.2332 103.279 36.0341 104.149 36.874 104.826ZM39.4176 89.7303L40.5586 82.9585C38.9808 81.7846 37.2822 81.2914 35.6896 81.7059C35.2453 81.8215 34.828 82.0029 34.4396 82.2433L37.137 89.5147C37.2865 89.4227 37.447 89.3533 37.6177 89.3089C38.2057 89.1559 38.8309 89.3216 39.4176 89.7303ZM43.1899 105.831L40.5331 98.6693C40.6719 98.5875 40.8015 98.4865 40.9213 98.3683L45.8528 102.457C45.2416 103.978 44.3381 105.159 43.1899 105.831ZM35.7733 94.1005L31.3295 94.5249C31.0387 92.9997 30.9274 91.5144 30.9791 90.126L35.7733 94.1005ZM31.8295 96.5918L36.5115 96.1447C36.5474 96.2239 36.5844 96.3018 36.6223 96.3784L33.3458 100.354C32.7444 99.2145 32.2288 97.9503 31.8295 96.5918ZM41.6985 93.5262L45.1621 89.3237C45.5262 90.2061 45.8404 91.1437 46.0939 92.1259C46.1774 92.4495 46.2528 92.7721 46.3203 93.0932L41.7004 93.5344L41.6985 93.5262ZM41.9088 95.6292C41.8974 95.8924 41.8708 96.1464 41.8299 96.3887L46.4882 100.251C46.7814 98.7198 46.8456 96.9937 46.6511 95.1763L41.9088 95.6292ZM35.4972 91.1388L31.267 87.6318C31.5664 86.1471 32.0836 84.8518 32.7908 83.8431L35.4972 91.1388Z" fill="#4C4C4C"/>
</g>
<path fill-rule="evenodd" clip-rule="evenodd" d="M41.1794 102.306C39.4991 99.695 38.1105 96.5384 37.2045 93.028C36.3501 89.7177 36.023 86.4731 36.1609 83.5126L33.7945 74.6509L39.5066 73.0886C40.6515 71.673 42.0635 70.6858 43.705 70.2586C50.1105 68.5917 57.5857 76.0833 60.4011 86.9915C63.0906 97.4117 60.5552 107.18 54.7392 109.487L54.9319 110.203L44.3196 114.066L41.1794 102.306Z" fill="black"/>
<ellipse cx="11.9542" cy="20.3036" rx="11.9542" ry="20.3036" transform="matrix(-0.96712 0.251671 0.250086 0.968914 45.5674 71.7434)" fill="#222222"/>
<g filter="url(#filter6_i_222_2)">
<g filter="url(#filter7_i_222_2)">
<ellipse cx="8.43852" cy="14.751" rx="8.43852" ry="14.751" transform="matrix(-0.972143 0.231385 0.244478 0.970347 43.4529 78.1366)" fill="url(#paint3_linear_222_2)"/>
</g>
<g filter="url(#filter8_di_222_2)">
<path fill-rule="evenodd" clip-rule="evenodd" d="M32.8071 96.7713C33.1334 97.8523 33.5431 98.8631 34.0153 99.7818L33.3265 96.6808L32.8071 96.7713ZM38.3076 89.195C38.2616 89.1819 38.2157 89.1703 38.1698 89.1603L36.9509 83.6729C39.0714 83.7339 41.2897 85.5568 42.9018 88.3943L38.3076 89.195ZM45.0283 94.6416C45.7824 99.5728 44.4063 103.856 41.6592 104.869L40.4405 99.3822C41.4551 98.7601 41.9942 97.1266 41.8514 95.1952L45.0283 94.6416Z" fill="#A9A8A8"/>
</g>
</g>
<g filter="url(#filter9_ii_222_2)">
<path d="M236.234 128.786C237.811 125.613 237.375 122.809 237.419 120.269L237.329 113.793C237.258 108.649 237.245 104.242 237.173 102.554C237.101 100.865 238.893 95.9568 229.817 87.033C221.666 79.0201 203.872 69.8421 199.454 68.7252C195.037 67.6084 176.033 41.1013 169.031 35.9624C148.119 20.614 95.4399 6.32 82.4627 6.50045C74.9414 6.28633 43.7266 22.3633 40.2517 24.5761C22.2839 36.0177 34.4695 31.3421 21.3162 48.5424C20.586 49.3178 20.0914 52.782 20.0785 55.3219C20.0738 56.2469 19.9669 57.1746 19.6439 58.0413C19.3583 58.8076 19.077 59.5718 19.0365 59.7702C18.6248 61.7871 20.0839 71.7564 20.111 73.6996C20.1425 75.9696 19.7503 80.0935 20.2316 82.3796C20.713 84.6656 26.5595 90.0647 26.6063 89.3707C26.5709 86.8242 26.7336 86.3655 27.3475 82.2806C29.0167 75.9028 32.0321 73.0473 34.4562 72.5018C39.527 71.3605 44.2058 73.3906 47.9671 79.7643C53.9239 89.8587 53.0473 96.9232 53.1255 102.012C53.1551 103.938 54.3961 105.553 56.1182 106.417L114.483 135.694C116.098 136.504 117.867 135.135 117.741 133.332C117.542 130.496 117.393 117.136 125.621 114.167C132.871 111.551 142.263 120.601 146.719 127.983C149.884 133.226 152.526 143.178 153.624 150.213C153.96 152.371 155.23 154.34 157.233 155.211C162.846 157.652 173.972 161.06 189.277 156.018C227.011 143.585 234.66 131.952 236.234 128.786Z" fill="url(#paint4_linear_222_2)"/>
</g>
<mask id="mask0_222_2" style="mask-type:alpha" maskUnits="userSpaceOnUse" x="18" y="6" width="220" height="153">
<path d="M236.234 128.786C237.811 125.613 237.375 122.809 237.419 120.269L237.329 113.793C237.258 108.649 237.245 104.242 237.173 102.554C237.101 100.865 238.893 95.9568 229.817 87.033C221.666 79.0201 203.872 69.8421 199.454 68.7252C195.037 67.6084 176.033 41.1013 169.031 35.9624C148.119 20.614 95.4399 6.32 82.4627 6.50045C74.9414 6.28633 43.7266 22.3633 40.2517 24.5761C22.2839 36.0177 34.4695 31.3421 21.3162 48.5424C20.586 49.3178 20.0914 52.782 20.0785 55.3219C20.0738 56.2469 19.9669 57.1746 19.6439 58.0413C19.3583 58.8076 19.077 59.5718 19.0365 59.7702C18.6248 61.7871 20.0839 71.7564 20.111 73.6996C20.1425 75.9696 19.7503 80.0935 20.2316 82.3796C20.713 84.6656 26.5595 90.0647 26.6063 89.3707C26.6532 88.6766 26.9719 84.7748 26.7801 82.0918C26.7151 77.4219 30.559 73.3788 34.4562 72.5018C39.527 71.3605 44.1992 72.9173 47.9605 79.2911C54.4216 90.2399 52.4699 96.7365 52.1046 101.588C51.9595 103.514 53.2225 105.142 54.9509 106.004L114.372 135.649C115.991 136.457 117.764 135.037 117.638 133.232C117.439 130.396 117.393 117.136 125.621 114.167C132.871 111.551 142.263 120.601 146.719 127.983C149.884 133.226 152.526 143.178 153.624 150.213C153.96 152.371 155.23 154.34 157.233 155.211C162.846 157.652 173.972 161.06 189.277 156.018C227.011 143.585 234.66 131.952 236.234 128.786Z" fill="url(#paint5_linear_222_2)"/>
</mask>
<g mask="url(#mask0_222_2)">
<g filter="url(#filter10_ddi_222_2)">
<path d="M135.328 90.4058C129.801 86.2579 129.528 81.0757 122.727 68.0798C120.738 64.2807 122.254 59.5145 126.178 57.7857L165.763 40.3487C168.324 39.2206 171.447 39.3665 173.375 41.3938C175.587 43.7193 179.234 47.845 185.246 55.129C190.984 62.0807 192.08 63.8195 196.334 68.0133C196.842 68.5132 195.844 69.8696 193.7 71.6873C186.865 77.4817 145.73 98.213 135.328 90.4058Z" fill="url(#paint6_linear_222_2)"/>
</g>
<g filter="url(#filter11_di_222_2)">
<path d="M76.7878 41.5279C63.2709 35.1127 59.5738 34.3653 50.2264 38.0767C45.501 39.9528 39.6512 42.0289 38.8574 45.2856C38.0636 48.5423 51.9722 56.0908 56.0404 58.2683C58.0287 59.3326 128.962 95.6152 127.441 91.2987C125.577 86.0085 115.45 64.8472 111.725 59.5086C109.328 56.0725 90.3048 47.9431 76.7878 41.5279Z" fill="url(#paint7_linear_222_2)"/>
</g>
<g filter="url(#filter12_f_222_2)">
<path d="M153.259 117.549C135.938 109.79 126.128 99.8831 115.632 90.849C146.634 99.5732 211.536 118.705 210.542 120.023C209.299 121.67 204.684 123.668 189.276 124.922C174.107 126.157 155.242 118.438 153.259 117.549Z" fill="url(#paint8_linear_222_2)" fill-opacity="0.21"/>
</g>
<g filter="url(#filter13_f_222_2)">
<path d="M219.182 78.4467C218.193 77.6563 205.729 65.0948 196.441 58.8841C204.252 73.6165 222.038 105.628 223.648 105.444C225.661 105.214 234.859 103.359 237.488 97.0476C240.076 90.8337 220.419 79.4347 219.182 78.4467Z" fill="url(#paint9_linear_222_2)" fill-opacity="0.13"/>
</g>
<g filter="url(#filter14_di_222_2)">
<path d="M93.2281 86.5145C93.2225 86.1168 92.9905 85.7569 92.6307 85.5881L87.5764 83.2164C86.8813 82.8903 86.0862 83.4041 86.0969 84.1726C86.1025 84.5726 86.3362 84.9345 86.6983 85.1037L91.7564 87.4672C92.4483 87.7906 93.2387 87.2789 93.2281 86.5145Z" fill="#323232"/>
</g>
<g filter="url(#filter15_di_222_2)">
<path d="M60.0933 72.4408C60.0878 72.043 59.8557 71.6831 59.496 71.5143L54.4416 69.1427C53.7466 68.8166 52.9514 69.3304 52.9621 70.0989C52.9677 70.4989 53.2014 70.8608 53.5635 71.03L58.6216 73.3935C59.3136 73.7169 60.1039 73.2052 60.0933 72.4408Z" fill="#323232"/>
</g>
<path d="M175.596 82.0112L138.485 52.6098C134.009 53.8885 123.884 58.7213 121.946 59.4801C119.435 60.4632 119.554 61.914 119.554 61.914C119.565 62.6759 119.467 62.1441 120.289 63.6422C121.653 66.1286 122.747 68.3494 125.702 74.7587C130.779 85.7681 131.866 88.5431 136.111 91.01C139.308 92.8682 145.969 93.1456 154.005 90.3695C161.188 87.8881 169.426 84.8949 175.596 82.0112Z" fill="#C4C4C4" fill-opacity="0.2"/>
<g opacity="0.17" filter="url(#filter16_f_222_2)">
<path d="M228.69 95.0356C218.12 103.64 194.513 116.058 183.923 118.049" stroke="url(#paint10_linear_222_2)" stroke-width="81.1568" stroke-linecap="round" stroke-linejoin="round"/>
</g>
<g filter="url(#filter17_ddii_222_2)">
<path d="M232.52 99.7576C234.483 97.0295 233.994 94.8558 233.638 91.5585C233.599 91.2039 233.502 90.8541 233.423 90.5065C233.015 88.719 236.629 94.0461 237.071 97.8237C237.225 99.1451 237.149 99.8163 237.042 101.039C236.993 101.599 235.173 105.32 235.354 106.054C235.535 106.788 235.415 112.339 235.452 113.105C235.488 113.872 232.897 118.861 224.558 124.484C217.631 129.154 207.635 132.296 206.608 132.458C205.581 132.62 204.525 129.182 203.775 129.002C201.813 128.53 196.068 130.732 193.92 131.304C191.414 131.972 185.565 133.511 179.139 132.777C171.191 131.868 169.964 130.983 162.616 127.113C159.929 125.698 157.659 123.524 155.944 121.382C153.926 118.861 156.124 116.422 159.211 117.368C164.851 119.096 172.883 121.273 181.637 122.047C199.171 123.598 212.885 115.085 214.85 113.861C223.109 108.717 227.458 106.797 232.52 99.7576Z" fill="#272727"/>
</g>
<mask id="mask1_222_2" style="mask-type:alpha" maskUnits="userSpaceOnUse" x="155" y="96" width="84" height="37">
<path d="M232.53 99.7236C232.687 99.5051 232.829 99.2834 232.957 99.0591C234.323 96.6736 237.475 95.2005 237.933 97.9336C238.088 99.2548 238.068 100.096 237.962 101.319C237.913 101.878 235.111 105.088 235.292 105.822C235.474 106.556 235.366 111.099 235.388 112.714C235.411 114.329 232.919 118.827 224.584 124.454C217.659 129.129 207.666 132.276 206.639 132.439C205.612 132.602 204.553 129.165 203.804 128.985C201.842 128.514 196.098 130.72 193.95 131.293C191.444 131.962 185.596 133.505 179.17 132.775C171.221 131.871 169.993 130.987 162.642 127.121C159.929 125.694 157.639 123.492 155.917 121.331C153.907 118.809 156.09 116.417 159.176 117.361C164.82 119.088 172.877 121.272 181.66 122.044C199.196 123.584 212.905 115.062 214.868 113.837C223.124 108.688 227.472 106.766 232.53 99.7236Z" fill="#272727"/>
</mask>
<g mask="url(#mask1_222_2)">
<g filter="url(#filter18_d_222_2)">
<path d="M188.199 119.247C188.296 119.772 188.331 120.396 188.186 121.017C188.033 121.67 187.669 122.387 186.815 123.045C185.932 123.725 184.445 124.403 181.958 124.772C180.533 124.983 178.505 125.008 176.409 124.641C174.308 124.272 172.261 123.532 170.687 122.312C169.927 121.724 168.91 120.493 167.977 119.224L188.199 119.247Z" stroke="white" stroke-opacity="0.9" stroke-width="3.41524"/>
</g>
<g filter="url(#filter19_d_222_2)">
<path d="M233.405 95.0819C233.623 96.0945 233.622 97.2917 233.056 98.5553C232.982 98.7209 232.901 98.8366 232.835 98.9089C232.819 98.9263 232.802 98.938 232.79 98.9492L232.737 98.9182L232.621 98.8376C232.185 98.5533 231.702 98.4249 231.305 98.3621L233.405 95.0819Z" stroke="white" stroke-opacity="0.9" stroke-width="3.41524"/>
</g>
</g>
<g filter="url(#filter20_f_222_2)">
<path d="M117.01 106.103L61.3202 80.728C59.115 79.7232 56.5192 82.3005 57.0521 84.6645C58.0265 88.9863 57.9927 93.0407 57.9059 95.7408C57.8741 96.7272 58.4172 97.6391 59.302 98.0764L113.33 124.781C115.019 125.616 117.006 124.365 117.139 122.485C117.41 118.647 118.125 115.441 119.023 113.057C119.795 111.008 119.002 107.011 117.01 106.103Z" fill="url(#paint11_linear_222_2)" fill-opacity="0.12"/>
</g>
</g>
<g filter="url(#filter21_i_222_2)">
<path d="M86.6373 149.024C87.8034 148.514 88.2868 147.77 88.6374 147.332C91.7878 143.4 85.0701 131.726 75.4784 124.971C65.3129 116.121 54.1221 113.103 50.9718 117.037C50.4326 117.712 50.0076 118.631 49.8323 119.667L43.8557 154.055C43.6485 158.246 45.2503 159.84 46.0524 160.616C47.5054 162.029 50.329 163.227 53.2774 162.191C64.6488 157.811 75.3057 153.964 86.6373 149.024Z" fill="url(#paint12_linear_222_2)"/>
</g>
<path d="M86.6373 149.024C87.8034 148.514 88.2868 147.77 88.6374 147.332C91.7878 143.4 85.0701 131.726 75.4784 124.971C65.3129 116.121 54.1221 113.103 50.9718 117.037C50.4326 117.712 50.0076 118.631 49.8323 119.667L43.8557 154.055C43.6485 158.246 45.2503 159.84 46.0524 160.616C47.5054 162.029 50.329 163.227 53.2774 162.191C64.6488 157.811 75.3057 153.964 86.6373 149.024Z" fill="url(#paint13_linear_222_2)"/>
<path d="M86.6373 149.024C87.8034 148.514 88.2868 147.77 88.6374 147.332C91.7878 143.4 85.0701 131.726 75.4784 124.971C65.3129 116.121 54.1221 113.103 50.9718 117.037C50.4326 117.712 50.0076 118.631 49.8323 119.667L43.8557 154.055C43.6485 158.246 45.2503 159.84 46.0524 160.616C47.5054 162.029 50.329 163.227 53.2774 162.191C64.6488 157.811 75.3057 153.964 86.6373 149.024Z" fill="url(#paint14_linear_222_2)"/>
<path d="M86.6373 149.024C87.8034 148.514 88.2868 147.77 88.6374 147.332C91.7878 143.4 85.0701 131.726 75.4784 124.971C65.3129 116.121 54.1221 113.103 50.9718 117.037C50.4326 117.712 50.0076 118.631 49.8323 119.667L43.8557 154.055C43.6485 158.246 45.2503 159.84 46.0524 160.616C47.5054 162.029 50.329 163.227 53.2774 162.191C64.6488 157.811 75.3057 153.964 86.6373 149.024Z" fill="url(#paint15_linear_222_2)"/>
<g filter="url(#filter22_f_222_2)">
<path d="M63.7835 139.545C73.678 147.773 84.333 151.275 87.5822 147.368C90.8314 143.461 85.4443 133.623 75.5498 125.395C65.6553 117.167 55.0003 113.665 51.7511 117.572C48.502 121.479 53.889 131.317 63.7835 139.545Z" fill="url(#paint16_linear_222_2)"/>
</g>
<g filter="url(#filter23_f_222_2)">
<path d="M65.3984 137.263C74.5687 144.888 84.2193 148.405 86.9535 145.117C89.6877 141.829 84.4702 132.982 75.2999 125.356C66.1296 117.73 56.479 114.213 53.7448 117.501C51.0106 120.789 56.2281 129.637 65.3984 137.263Z" fill="url(#paint17_linear_222_2)"/>
<path d="M65.3984 137.263C74.5687 144.888 84.2193 148.405 86.9535 145.117C89.6877 141.829 84.4702 132.982 75.2999 125.356C66.1296 117.73 56.479 114.213 53.7448 117.501C51.0106 120.789 56.2281 129.637 65.3984 137.263Z" fill="url(#paint18_radial_222_2)"/>
<path d="M65.3984 137.263C74.5687 144.888 84.2193 148.405 86.9535 145.117C89.6877 141.829 84.4702 132.982 75.2999 125.356C66.1296 117.73 56.479 114.213 53.7448 117.501C51.0106 120.789 56.2281 129.637 65.3984 137.263Z" fill="url(#paint19_radial_222_2)"/>
</g>
<path d="M76.7267 128.695C78.4915 128.695 79.9222 127.265 79.9222 125.5C79.9222 123.735 78.4915 122.305 76.7267 122.305C74.9619 122.305 73.5312 123.735 73.5312 125.5C73.5312 127.265 74.9619 128.695 76.7267 128.695Z" fill="url(#paint20_radial_222_2)"/>
<path d="M76.7267 128.695C78.4915 128.695 79.9222 127.265 79.9222 125.5C79.9222 123.735 78.4915 122.305 76.7267 122.305C74.9619 122.305 73.5312 123.735 73.5312 125.5C73.5312 127.265 74.9619 128.695 76.7267 128.695Z" fill="url(#paint21_radial_222_2)"/>
<path d="M102.957 147.039C104.722 147.039 106.153 145.609 106.153 143.844C106.153 142.079 104.722 140.649 102.957 140.649C101.192 140.649 99.7617 142.079 99.7617 143.844C99.7617 145.609 101.192 147.039 102.957 147.039Z" fill="url(#paint22_radial_222_2)"/>
<path d="M102.957 147.039C104.722 147.039 106.153 145.609 106.153 143.844C106.153 142.079 104.722 140.649 102.957 140.649C101.192 140.649 99.7617 142.079 99.7617 143.844C99.7617 145.609 101.192 147.039 102.957 147.039Z" fill="url(#paint23_radial_222_2)"/>
<path d="M102.957 147.039C104.722 147.039 106.153 145.609 106.153 143.844C106.153 142.079 104.722 140.649 102.957 140.649C101.192 140.649 99.7617 142.079 99.7617 143.844C99.7617 145.609 101.192 147.039 102.957 147.039Z" fill="url(#paint24_radial_222_2)"/>
<path d="M100.28 104.832C102.045 104.832 103.475 103.401 103.475 101.636C103.475 99.8714 102.045 98.4408 100.28 98.4408C98.5149 98.4408 97.0842 99.8714 97.0842 101.636C97.0842 103.401 98.5149 104.832 100.28 104.832Z" fill="url(#paint25_radial_222_2)"/>
<path d="M100.28 104.832C102.045 104.832 103.475 103.401 103.475 101.636C103.475 99.8714 102.045 98.4408 100.28 98.4408C98.5149 98.4408 97.0842 99.8714 97.0842 101.636C97.0842 103.401 98.5149 104.832 100.28 104.832Z" fill="url(#paint26_radial_222_2)"/>
<path d="M63.5385 95.139C65.3033 95.139 66.734 93.7084 66.734 91.9436C66.734 90.1788 65.3033 88.7481 63.5385 88.7481C61.7737 88.7481 60.343 90.1788 60.343 91.9436C60.343 93.7084 61.7737 95.139 63.5385 95.139Z" fill="url(#paint27_radial_222_2)"/>
<path d="M63.5385 95.139C65.3033 95.139 66.734 93.7084 66.734 91.9436C66.734 90.1788 65.3033 88.7481 63.5385 88.7481C61.7737 88.7481 60.343 90.1788 60.343 91.9436C60.343 93.7084 61.7737 95.139 63.5385 95.139Z" fill="url(#paint28_radial_222_2)"/>
<path d="M63.5385 95.139C65.3033 95.139 66.734 93.7084 66.734 91.9436C66.734 90.1788 65.3033 88.7481 63.5385 88.7481C61.7737 88.7481 60.343 90.1788 60.343 91.9436C60.343 93.7084 61.7737 95.139 63.5385 95.139Z" fill="url(#paint29_radial_222_2)"/>
<path d="M50.09 107.735C51.8548 107.735 53.2855 106.304 53.2855 104.54C53.2855 102.775 51.8548 101.344 50.09 101.344C48.3252 101.344 46.8945 102.775 46.8945 104.54C46.8945 106.304 48.3252 107.735 50.09 107.735Z" fill="url(#paint30_radial_222_2)"/>
<path d="M50.09 107.735C51.8548 107.735 53.2855 106.304 53.2855 104.54C53.2855 102.775 51.8548 101.344 50.09 101.344C48.3252 101.344 46.8945 102.775 46.8945 104.54C46.8945 106.304 48.3252 107.735 50.09 107.735Z" fill="url(#paint31_radial_222_2)"/>
<path d="M79.3752 152.089C72.453 151.606 67.5974 149.534 59.7322 143.037C52.9641 137.445 49.6039 132.486 48.483 127.428L47.1841 134.9C47.7153 137.828 49.9997 141.913 54.5233 146.004C60.4388 151.351 66.3303 155.133 72.1555 154.968C74.5697 154.027 76.9764 153.069 79.3752 152.089Z" fill="url(#paint32_radial_222_2)"/>
<path d="M64.7762 157.808C61.448 157.994 56.9509 155.279 52.2812 151.398C48.2969 147.953 46.3312 144.211 45.9169 142.192L44.5994 149.781C44.9234 151.064 45.9195 152.809 48.7962 155.757C52.0103 159.051 55.2456 160.337 57.1634 160.701L61.2328 159.155L64.7762 157.808Z" fill="url(#paint33_radial_222_2)"/>
<g filter="url(#filter24_i_222_2)">
<path fill-rule="evenodd" clip-rule="evenodd" d="M111.117 117.821C101.56 115.953 95.913 120.331 94.1227 122.294C93.8785 122.573 93.581 122.801 93.2475 122.964C92.9141 123.127 92.5515 123.222 92.181 123.243C91.8105 123.264 91.4394 123.211 91.0897 123.087C90.7399 122.963 90.4184 122.77 90.1441 122.52C89.8697 122.27 89.648 121.968 89.492 121.632C89.3359 121.295 89.2486 120.93 89.2352 120.559C89.2218 120.189 89.2826 119.819 89.4139 119.472C89.5453 119.124 89.7446 118.807 90.0002 118.538C92.776 115.491 100.288 110.019 112.188 112.346C112.895 112.507 113.512 112.937 113.908 113.544C114.303 114.152 114.447 114.89 114.307 115.602C114.168 116.313 113.757 116.943 113.162 117.356C112.566 117.77 111.833 117.936 111.117 117.818" fill="url(#paint34_radial_222_2)"/>
<path fill-rule="evenodd" clip-rule="evenodd" d="M111.117 117.821C101.56 115.953 95.913 120.331 94.1227 122.294C93.8785 122.573 93.581 122.801 93.2475 122.964C92.9141 123.127 92.5515 123.222 92.181 123.243C91.8105 123.264 91.4394 123.211 91.0897 123.087C90.7399 122.963 90.4184 122.77 90.1441 122.52C89.8697 122.27 89.648 121.968 89.492 121.632C89.3359 121.295 89.2486 120.93 89.2352 120.559C89.2218 120.189 89.2826 119.819 89.4139 119.472C89.5453 119.124 89.7446 118.807 90.0002 118.538C92.776 115.491 100.288 110.019 112.188 112.346C112.895 112.507 113.512 112.937 113.908 113.544C114.303 114.152 114.447 114.89 114.307 115.602C114.168 116.313 113.757 116.943 113.162 117.356C112.566 117.77 111.833 117.936 111.117 117.818" fill="url(#paint35_radial_222_2)"/>
</g>
<path fill-rule="evenodd" clip-rule="evenodd" d="M87.745 88.5303C88.0763 88.5456 88.4013 88.6261 88.7014 88.7671C89.0016 88.9082 89.271 89.107 89.4942 89.3522C89.7175 89.5974 89.8902 89.8842 90.0026 90.1962C90.1149 90.5083 90.1646 90.8394 90.1489 91.1706C89.982 94.0426 89.5561 96.8937 88.8766 99.6892C88.1806 102.542 87.1102 105.703 85.4606 108.415C85.8591 110.529 85.8697 113.024 85.4314 115.86C85.3293 116.522 84.9685 117.116 84.4285 117.511C83.8886 117.907 83.2136 118.072 82.5521 117.97C81.8905 117.867 81.2967 117.507 80.9012 116.967C80.5057 116.427 80.3408 115.752 80.443 115.09C80.5404 114.458 80.6112 113.863 80.6555 113.305C80.176 113.556 79.6723 113.757 79.1521 113.905C78.2431 114.172 77.2869 114.235 76.3507 114.092C75.4146 113.949 74.5211 113.602 73.7333 113.077C70.8805 111.177 69.5656 107.02 71.773 103.62C73.8714 100.39 78.2489 99.5112 81.5746 101.812C81.9588 102.077 82.3192 102.376 82.6556 102.707C83.1869 101.365 83.6225 99.9309 83.9731 98.4939C84.7196 95.4339 85.0303 92.5651 85.1074 90.9342C85.1227 90.6032 85.2031 90.2784 85.344 89.9784C85.4848 89.6785 85.6834 89.4092 85.9283 89.186C86.1732 88.9627 86.4597 88.7899 86.7715 88.6774C87.0832 88.5649 87.414 88.5149 87.745 88.5303ZM79.9171 107.496C79.5346 106.699 79.0777 106.221 78.7058 105.963C77.6646 105.243 76.5224 105.578 76.0044 106.372C75.7507 106.777 75.6637 107.264 75.7618 107.731C75.8599 108.198 76.1354 108.609 76.5303 108.877C76.8491 109.09 77.2555 109.196 77.7947 109.045C78.2835 108.906 79.0299 108.511 79.9171 107.496Z" fill="url(#paint36_linear_222_2)"/>
<path fill-rule="evenodd" clip-rule="evenodd" d="M87.745 88.5303C88.0763 88.5456 88.4013 88.6261 88.7014 88.7671C89.0016 88.9082 89.271 89.107 89.4942 89.3522C89.7175 89.5974 89.8902 89.8842 90.0026 90.1962C90.1149 90.5083 90.1646 90.8394 90.1489 91.1706C89.982 94.0426 89.5561 96.8937 88.8766 99.6892C88.1806 102.542 87.1102 105.703 85.4606 108.415C85.8591 110.529 85.8697 113.024 85.4314 115.86C85.3293 116.522 84.9685 117.116 84.4285 117.511C83.8886 117.907 83.2136 118.072 82.5521 117.97C81.8905 117.867 81.2967 117.507 80.9012 116.967C80.5057 116.427 80.3408 115.752 80.443 115.09C80.5404 114.458 80.6112 113.863 80.6555 113.305C80.176 113.556 79.6723 113.757 79.1521 113.905C78.2431 114.172 77.2869 114.235 76.3507 114.092C75.4146 113.949 74.5211 113.602 73.7333 113.077C70.8805 111.177 69.5656 107.02 71.773 103.62C73.8714 100.39 78.2489 99.5112 81.5746 101.812C81.9588 102.077 82.3192 102.376 82.6556 102.707C83.1869 101.365 83.6225 99.9309 83.9731 98.4939C84.7196 95.4339 85.0303 92.5651 85.1074 90.9342C85.1227 90.6032 85.2031 90.2784 85.344 89.9784C85.4848 89.6785 85.6834 89.4092 85.9283 89.186C86.1732 88.9627 86.4597 88.7899 86.7715 88.6774C87.0832 88.5649 87.414 88.5149 87.745 88.5303ZM79.9171 107.496C79.5346 106.699 79.0777 106.221 78.7058 105.963C77.6646 105.243 76.5224 105.578 76.0044 106.372C75.7507 106.777 75.6637 107.264 75.7618 107.731C75.8599 108.198 76.1354 108.609 76.5303 108.877C76.8491 109.09 77.2555 109.196 77.7947 109.045C78.2835 108.906 79.0299 108.511 79.9171 107.496Z" fill="url(#paint37_radial_222_2)"/>
<path fill-rule="evenodd" clip-rule="evenodd" d="M87.745 88.5303C88.0763 88.5456 88.4013 88.6261 88.7014 88.7671C89.0016 88.9082 89.271 89.107 89.4942 89.3522C89.7175 89.5974 89.8902 89.8842 90.0026 90.1962C90.1149 90.5083 90.1646 90.8394 90.1489 91.1706C89.982 94.0426 89.5561 96.8937 88.8766 99.6892C88.1806 102.542 87.1102 105.703 85.4606 108.415C85.8591 110.529 85.8697 113.024 85.4314 115.86C85.3293 116.522 84.9685 117.116 84.4285 117.511C83.8886 117.907 83.2136 118.072 82.5521 117.97C81.8905 117.867 81.2967 117.507 80.9012 116.967C80.5057 116.427 80.3408 115.752 80.443 115.09C80.5404 114.458 80.6112 113.863 80.6555 113.305C80.176 113.556 79.6723 113.757 79.1521 113.905C78.2431 114.172 77.2869 114.235 76.3507 114.092C75.4146 113.949 74.5211 113.602 73.7333 113.077C70.8805 111.177 69.5656 107.02 71.773 103.62C73.8714 100.39 78.2489 99.5112 81.5746 101.812C81.9588 102.077 82.3192 102.376 82.6556 102.707C83.1869 101.365 83.6225 99.9309 83.9731 98.4939C84.7196 95.4339 85.0303 92.5651 85.1074 90.9342C85.1227 90.6032 85.2031 90.2784 85.344 89.9784C85.4848 89.6785 85.6834 89.4092 85.9283 89.186C86.1732 88.9627 86.4597 88.7899 86.7715 88.6774C87.0832 88.5649 87.414 88.5149 87.745 88.5303ZM79.9171 107.496C79.5346 106.699 79.0777 106.221 78.7058 105.963C77.6646 105.243 76.5224 105.578 76.0044 106.372C75.7507 106.777 75.6637 107.264 75.7618 107.731C75.8599 108.198 76.1354 108.609 76.5303 108.877C76.8491 109.09 77.2555 109.196 77.7947 109.045C78.2835 108.906 79.0299 108.511 79.9171 107.496Z" fill="url(#paint38_radial_222_2)"/>
<path fill-rule="evenodd" clip-rule="evenodd" d="M87.745 88.5303C88.0763 88.5456 88.4013 88.6261 88.7014 88.7671C89.0016 88.9082 89.271 89.107 89.4942 89.3522C89.7175 89.5974 89.8902 89.8842 90.0026 90.1962C90.1149 90.5083 90.1646 90.8394 90.1489 91.1706C89.982 94.0426 89.5561 96.8937 88.8766 99.6892C88.1806 102.542 87.1102 105.703 85.4606 108.415C85.8591 110.529 85.8697 113.024 85.4314 115.86C85.3293 116.522 84.9685 117.116 84.4285 117.511C83.8886 117.907 83.2136 118.072 82.5521 117.97C81.8905 117.867 81.2967 117.507 80.9012 116.967C80.5057 116.427 80.3408 115.752 80.443 115.09C80.5404 114.458 80.6112 113.863 80.6555 113.305C80.176 113.556 79.6723 113.757 79.1521 113.905C78.2431 114.172 77.2869 114.235 76.3507 114.092C75.4146 113.949 74.5211 113.602 73.7333 113.077C70.8805 111.177 69.5656 107.02 71.773 103.62C73.8714 100.39 78.2489 99.5112 81.5746 101.812C81.9588 102.077 82.3192 102.376 82.6556 102.707C83.1869 101.365 83.6225 99.9309 83.9731 98.4939C84.7196 95.4339 85.0303 92.5651 85.1074 90.9342C85.1227 90.6032 85.2031 90.2784 85.344 89.9784C85.4848 89.6785 85.6834 89.4092 85.9283 89.186C86.1732 88.9627 86.4597 88.7899 86.7715 88.6774C87.0832 88.5649 87.414 88.5149 87.745 88.5303ZM79.9171 107.496C79.5346 106.699 79.0777 106.221 78.7058 105.963C77.6646 105.243 76.5224 105.578 76.0044 106.372C75.7507 106.777 75.6637 107.264 75.7618 107.731C75.8599 108.198 76.1354 108.609 76.5303 108.877C76.8491 109.09 77.2555 109.196 77.7947 109.045C78.2835 108.906 79.0299 108.511 79.9171 107.496Z" fill="url(#paint39_radial_222_2)"/>
<path fill-rule="evenodd" clip-rule="evenodd" d="M73.7679 143.047C71.8191 141.961 69.9425 140.75 68.1499 139.421C71.0346 135.843 76.1904 131.152 82.9107 127.766C93.9527 122.198 106.129 125.218 111.093 127.187C111.499 127.347 111.869 127.587 112.181 127.89C112.494 128.194 112.744 128.556 112.917 128.957C113.09 129.357 113.183 129.787 113.189 130.223C113.196 130.659 113.116 131.092 112.956 131.498C112.795 131.903 112.556 132.273 112.252 132.586C111.948 132.899 111.586 133.149 111.186 133.322C110.785 133.495 110.355 133.587 109.919 133.593C109.483 133.6 109.05 133.521 108.644 133.36C104.392 131.673 94.4468 129.386 85.899 133.694C80.2624 136.537 76.0708 140.356 73.7679 143.047Z" fill="url(#paint40_linear_222_2)"/>
<path fill-rule="evenodd" clip-rule="evenodd" d="M73.7679 143.047C71.8191 141.961 69.9425 140.75 68.1499 139.421C71.0346 135.843 76.1904 131.152 82.9107 127.766C93.9527 122.198 106.129 125.218 111.093 127.187C111.499 127.347 111.869 127.587 112.181 127.89C112.494 128.194 112.744 128.556 112.917 128.957C113.09 129.357 113.183 129.787 113.189 130.223C113.196 130.659 113.116 131.092 112.956 131.498C112.795 131.903 112.556 132.273 112.252 132.586C111.948 132.899 111.586 133.149 111.186 133.322C110.785 133.495 110.355 133.587 109.919 133.593C109.483 133.6 109.05 133.521 108.644 133.36C104.392 131.673 94.4468 129.386 85.899 133.694C80.2624 136.537 76.0708 140.356 73.7679 143.047Z" fill="url(#paint41_radial_222_2)"/>
<path fill-rule="evenodd" clip-rule="evenodd" d="M73.7679 143.047C71.8191 141.961 69.9425 140.75 68.1499 139.421C71.0346 135.843 76.1904 131.152 82.9107 127.766C93.9527 122.198 106.129 125.218 111.093 127.187C111.499 127.347 111.869 127.587 112.181 127.89C112.494 128.194 112.744 128.556 112.917 128.957C113.09 129.357 113.183 129.787 113.189 130.223C113.196 130.659 113.116 131.092 112.956 131.498C112.795 131.903 112.556 132.273 112.252 132.586C111.948 132.899 111.586 133.149 111.186 133.322C110.785 133.495 110.355 133.587 109.919 133.593C109.483 133.6 109.05 133.521 108.644 133.36C104.392 131.673 94.4468 129.386 85.899 133.694C80.2624 136.537 76.0708 140.356 73.7679 143.047Z" fill="url(#paint42_radial_222_2)"/>
<path fill-rule="evenodd" clip-rule="evenodd" d="M73.7679 143.047C71.8191 141.961 69.9425 140.75 68.1499 139.421C71.0346 135.843 76.1904 131.152 82.9107 127.766C93.9527 122.198 106.129 125.218 111.093 127.187C111.499 127.347 111.869 127.587 112.181 127.89C112.494 128.194 112.744 128.556 112.917 128.957C113.09 129.357 113.183 129.787 113.189 130.223C113.196 130.659 113.116 131.092 112.956 131.498C112.795 131.903 112.556 132.273 112.252 132.586C111.948 132.899 111.586 133.149 111.186 133.322C110.785 133.495 110.355 133.587 109.919 133.593C109.483 133.6 109.05 133.521 108.644 133.36C104.392 131.673 94.4468 129.386 85.899 133.694C80.2624 136.537 76.0708 140.356 73.7679 143.047Z" fill="url(#paint43_radial_222_2)"/>
<g filter="url(#filter25_i_222_2)">
<path fill-rule="evenodd" clip-rule="evenodd" d="M64.0725 100.672C63.8603 100.291 63.575 99.9554 63.2331 99.6845C62.8911 99.4137 62.4992 99.2128 62.0796 99.0934C61.6601 98.974 61.2211 98.9385 60.7878 98.9887C60.3545 99.039 59.9353 99.1741 59.5542 99.3864C59.1731 99.5986 58.8376 99.8839 58.5667 100.226C58.2959 100.568 58.095 100.96 57.9756 101.379C57.8563 101.799 57.8207 102.238 57.871 102.671C57.9212 103.104 58.0563 103.524 58.2686 103.905C59.6153 106.322 61.2728 109.74 61.4853 114.139C61.6713 117.972 60.7681 122.833 57.0999 128.666C58.4928 130.49 60.0152 132.211 61.6553 133.817C66.8297 126.292 68.3942 119.55 68.118 113.818C67.8338 107.894 65.5892 103.4 64.0725 100.672Z" fill="url(#paint44_radial_222_2)"/>
<path fill-rule="evenodd" clip-rule="evenodd" d="M64.0725 100.672C63.8603 100.291 63.575 99.9554 63.2331 99.6845C62.8911 99.4137 62.4992 99.2128 62.0796 99.0934C61.6601 98.974 61.2211 98.9385 60.7878 98.9887C60.3545 99.039 59.9353 99.1741 59.5542 99.3864C59.1731 99.5986 58.8376 99.8839 58.5667 100.226C58.2959 100.568 58.095 100.96 57.9756 101.379C57.8563 101.799 57.8207 102.238 57.871 102.671C57.9212 103.104 58.0563 103.524 58.2686 103.905C59.6153 106.322 61.2728 109.74 61.4853 114.139C61.6713 117.972 60.7681 122.833 57.0999 128.666C58.4928 130.49 60.0152 132.211 61.6553 133.817C66.8297 126.292 68.3942 119.55 68.118 113.818C67.8338 107.894 65.5892 103.4 64.0725 100.672Z" fill="url(#paint45_radial_222_2)"/>
</g>
<path d="M71.146 104.813C71.3089 104.409 71.5161 104.013 71.7676 103.623C73.866 100.39 78.2435 99.5112 81.5691 101.812C81.9534 102.077 82.3138 102.376 82.6502 102.707C82.7565 102.432 82.8609 102.154 82.9637 101.873L82.9769 101.926C82.2943 104.077 80.7616 106.383 79.909 107.493C79.5265 106.696 79.0722 106.218 78.7004 105.963C77.6591 105.243 76.5143 105.578 75.999 106.372L75.9432 106.465L71.146 104.813Z" fill="url(#paint46_radial_222_2)"/>
<path d="M71.146 104.813C71.3089 104.409 71.5161 104.013 71.7676 103.623C73.866 100.39 78.2435 99.5112 81.5691 101.812C81.9534 102.077 82.3138 102.376 82.6502 102.707C82.7565 102.432 82.8609 102.154 82.9637 101.873L82.9769 101.926C82.2943 104.077 80.7616 106.383 79.909 107.493C79.5265 106.696 79.0722 106.218 78.7004 105.963C77.6591 105.243 76.5143 105.578 75.999 106.372L75.9432 106.465L71.146 104.813Z" fill="url(#paint47_radial_222_2)"/>
<g filter="url(#filter26_i_222_2)">
<path d="M85.4552 108.415C85.8536 110.529 85.8643 113.026 85.426 115.86C85.3238 116.522 84.9631 117.116 84.4231 117.511C83.8831 117.907 83.2081 118.072 82.5466 117.97C81.8851 117.867 81.2912 117.507 80.8957 116.967C80.5002 116.427 80.3354 115.752 80.4375 115.09C80.5349 114.458 80.6058 113.865 80.65 113.31C83.2585 111.672 84.9797 109.493 85.4552 108.415Z" fill="#44B6FF"/>
</g>
<path d="M85.4552 108.415C85.8536 110.529 85.8643 113.026 85.426 115.86C85.3238 116.522 84.9631 117.116 84.4231 117.511C83.8831 117.907 83.2081 118.072 82.5466 117.97C81.8851 117.867 81.2912 117.507 80.8957 116.967C80.5002 116.427 80.3354 115.752 80.4375 115.09C80.5349 114.458 80.6058 113.865 80.65 113.31C83.2585 111.672 84.9797 109.493 85.4552 108.415Z" fill="url(#paint48_radial_222_2)"/>
<g filter="url(#filter27_f_222_2)">
<path d="M80.9609 104.707C80.2543 103.751 77.9912 102.051 75.149 103.814C74.1954 104.407 73.6349 106.635 74.0706 108.152" stroke="url(#paint49_linear_222_2)" stroke-width="0.15" stroke-linecap="round"/>
</g>
<g filter="url(#filter28_f_222_2)">
<path d="M88.7225 91.0112C88.4994 95.0222 86.7622 104.492 81.5825 110.269" stroke="url(#paint50_linear_222_2)" stroke-width="0.15" stroke-linecap="round"/>
</g>
<defs>
<filter id="filter0_i_222_2" x="121.235" y="122.152" width="24.2612" height="33.636" filterUnits="userSpaceOnUse" color-interpolation-filters="sRGB">
<feFlood flood-opacity="0" result="BackgroundImageFix"/>
<feBlend mode="normal" in="SourceGraphic" in2="BackgroundImageFix" result="shape"/>
<feColorMatrix in="SourceAlpha" type="matrix" values="0 0 0 0 0 0 0 0 0 0 0 0 0 0 0 0 0 0 127 0" result="hardAlpha"/>
<feMorphology radius="1.22965" operator="erode" in="SourceAlpha" result="effect1_innerShadow_222_2"/>
<feOffset/>
<feGaussianBlur stdDeviation="0.614824"/>
<feComposite in2="hardAlpha" operator="arithmetic" k2="-1" k3="1"/>
<feColorMatrix type="matrix" values="0 0 0 0 0 0 0 0 0 0 0 0 0 0 0 0 0 0 0.25 0"/>
<feBlend mode="normal" in2="shape" result="effect1_innerShadow_222_2"/>
</filter>
<filter id="filter1_di_222_2" x="119.591" y="124.748" width="24.5859" height="30.6577" filterUnits="userSpaceOnUse" color-interpolation-filters="sRGB">
<feFlood flood-opacity="0" result="BackgroundImageFix"/>
<feColorMatrix in="SourceAlpha" type="matrix" values="0 0 0 0 0 0 0 0 0 0 0 0 0 0 0 0 0 0 127 0" result="hardAlpha"/>
<feOffset dy="0.491859"/>
<feGaussianBlur stdDeviation="0.368894"/>
<feColorMatrix type="matrix" values="0 0 0 0 1 0 0 0 0 1 0 0 0 0 1 0 0 0 0.41 0"/>
<feBlend mode="normal" in2="BackgroundImageFix" result="effect1_dropShadow_222_2"/>
<feBlend mode="normal" in="SourceGraphic" in2="effect1_dropShadow_222_2" result="shape"/>
<feColorMatrix in="SourceAlpha" type="matrix" values="0 0 0 0 0 0 0 0 0 0 0 0 0 0 0 0 0 0 127 0" result="hardAlpha"/>
<feOffset dx="-3.68894" dy="2.4593"/>
<feGaussianBlur stdDeviation="1.84447"/>
<feComposite in2="hardAlpha" operator="arithmetic" k2="-1" k3="1"/>
<feColorMatrix type="matrix" values="0 0 0 0 0 0 0 0 0 0 0 0 0 0 0 0 0 0 0.25 0"/>
<feBlend mode="normal" in2="shape" result="effect2_innerShadow_222_2"/>
</filter>
<filter id="filter2_i_222_2" x="122.162" y="122.665" width="22.6479" height="32.6057" filterUnits="userSpaceOnUse" color-interpolation-filters="sRGB">
<feFlood flood-opacity="0" result="BackgroundImageFix"/>
<feBlend mode="normal" in="SourceGraphic" in2="BackgroundImageFix" result="shape"/>
<feColorMatrix in="SourceAlpha" type="matrix" values="0 0 0 0 0 0 0 0 0 0 0 0 0 0 0 0 0 0 127 0" result="hardAlpha"/>
<feMorphology radius="1.56332" operator="erode" in="SourceAlpha" result="effect1_innerShadow_222_2"/>
<feOffset/>
<feGaussianBlur stdDeviation="0.781658"/>
<feComposite in2="hardAlpha" operator="arithmetic" k2="-1" k3="1"/>
<feColorMatrix type="matrix" values="0 0 0 0 0 0 0 0 0 0 0 0 0 0 0 0 0 0 0.25 0"/>
<feBlend mode="normal" in2="shape" result="effect1_innerShadow_222_2"/>
</filter>
<filter id="filter3_di_222_2" x="123.299" y="126.755" width="19.2337" height="24.6927" filterUnits="userSpaceOnUse" color-interpolation-filters="sRGB">
<feFlood flood-opacity="0" result="BackgroundImageFix"/>
<feColorMatrix in="SourceAlpha" type="matrix" values="0 0 0 0 0 0 0 0 0 0 0 0 0 0 0 0 0 0 127 0" result="hardAlpha"/>
<feOffset dy="0.533156"/>
<feGaussianBlur stdDeviation="0.333223"/>
<feColorMatrix type="matrix" values="0 0 0 0 1 0 0 0 0 1 0 0 0 0 1 0 0 0 0.59 0"/>
<feBlend mode="normal" in2="BackgroundImageFix" result="effect1_dropShadow_222_2"/>
<feBlend mode="normal" in="SourceGraphic" in2="effect1_dropShadow_222_2" result="shape"/>
<feColorMatrix in="SourceAlpha" type="matrix" values="0 0 0 0 0 0 0 0 0 0 0 0 0 0 0 0 0 0 127 0" result="hardAlpha"/>
<feOffset dx="-1.99934" dy="1.33289"/>
<feGaussianBlur stdDeviation="0.999668"/>
<feComposite in2="hardAlpha" operator="arithmetic" k2="-1" k3="1"/>
<feColorMatrix type="matrix" values="0 0 0 0 0 0 0 0 0 0 0 0 0 0 0 0 0 0 0.25 0"/>
<feBlend mode="normal" in2="shape" result="effect2_innerShadow_222_2"/>
</filter>
<filter id="filter4_i_222_2" x="29.3701" y="79.031" width="19.0071" height="29.9532" filterUnits="userSpaceOnUse" color-interpolation-filters="sRGB">
<feFlood flood-opacity="0" result="BackgroundImageFix"/>
<feBlend mode="normal" in="SourceGraphic" in2="BackgroundImageFix" result="shape"/>
<feColorMatrix in="SourceAlpha" type="matrix" values="0 0 0 0 0 0 0 0 0 0 0 0 0 0 0 0 0 0 127 0" result="hardAlpha"/>
<feMorphology radius="1.05175" operator="erode" in="SourceAlpha" result="effect1_innerShadow_222_2"/>
<feOffset/>
<feGaussianBlur stdDeviation="0.525873"/>
<feComposite in2="hardAlpha" operator="arithmetic" k2="-1" k3="1"/>
<feColorMatrix type="matrix" values="0 0 0 0 0 0 0 0 0 0 0 0 0 0 0 0 0 0 0.25 0"/>
<feBlend mode="normal" in2="shape" result="effect1_innerShadow_222_2"/>
</filter>
<filter id="filter5_di_222_2" x="27.8116" y="81.3508" width="19.5819" height="27.2058" filterUnits="userSpaceOnUse" color-interpolation-filters="sRGB">
<feFlood flood-opacity="0" result="BackgroundImageFix"/>
<feColorMatrix in="SourceAlpha" type="matrix" values="0 0 0 0 0 0 0 0 0 0 0 0 0 0 0 0 0 0 127 0" result="hardAlpha"/>
<feOffset dy="0.420698"/>
<feGaussianBlur stdDeviation="0.315524"/>
<feColorMatrix type="matrix" values="0 0 0 0 1 0 0 0 0 1 0 0 0 0 1 0 0 0 0.41 0"/>
<feBlend mode="normal" in2="BackgroundImageFix" result="effect1_dropShadow_222_2"/>
<feBlend mode="normal" in="SourceGraphic" in2="effect1_dropShadow_222_2" result="shape"/>
<feColorMatrix in="SourceAlpha" type="matrix" values="0 0 0 0 0 0 0 0 0 0 0 0 0 0 0 0 0 0 127 0" result="hardAlpha"/>
<feOffset dx="-3.15524" dy="2.10349"/>
<feGaussianBlur stdDeviation="1.57762"/>
<feComposite in2="hardAlpha" operator="arithmetic" k2="-1" k3="1"/>
<feColorMatrix type="matrix" values="0 0 0 0 0 0 0 0 0 0 0 0 0 0 0 0 0 0 0.25 0"/>
<feBlend mode="normal" in2="shape" result="effect2_innerShadow_222_2"/>
</filter>
<filter id="filter6_i_222_2" x="29.8923" y="79.9548" width="17.9268" height="28.8958" filterUnits="userSpaceOnUse" color-interpolation-filters="sRGB">
<feFlood flood-opacity="0" result="BackgroundImageFix"/>
<feBlend mode="normal" in="SourceGraphic" in2="BackgroundImageFix" result="shape"/>
<feColorMatrix in="SourceAlpha" type="matrix" values="0 0 0 0 0 0 0 0 0 0 0 0 0 0 0 0 0 0 127 0" result="hardAlpha"/>
<feMorphology radius="0.935097" operator="erode" in="SourceAlpha" result="effect1_innerShadow_222_2"/>
<feOffset/>
<feGaussianBlur stdDeviation="0.467549"/>
<feComposite in2="hardAlpha" operator="arithmetic" k2="-1" k3="1"/>
<feColorMatrix type="matrix" values="0 0 0 0 0 0 0 0 0 0 0 0 0 0 0 0 0 0 0.25 0"/>
<feBlend mode="normal" in2="shape" result="effect1_innerShadow_222_2"/>
</filter>
<filter id="filter7_i_222_2" x="29.8923" y="79.9548" width="17.9268" height="28.8958" filterUnits="userSpaceOnUse" color-interpolation-filters="sRGB">
<feFlood flood-opacity="0" result="BackgroundImageFix"/>
<feBlend mode="normal" in="SourceGraphic" in2="BackgroundImageFix" result="shape"/>
<feColorMatrix in="SourceAlpha" type="matrix" values="0 0 0 0 0 0 0 0 0 0 0 0 0 0 0 0 0 0 127 0" result="hardAlpha"/>
<feMorphology radius="1.61918" operator="erode" in="SourceAlpha" result="effect1_innerShadow_222_2"/>
<feOffset/>
<feGaussianBlur stdDeviation="0.80959"/>
<feComposite in2="hardAlpha" operator="arithmetic" k2="-1" k3="1"/>
<feColorMatrix type="matrix" values="0 0 0 0 0 0 0 0 0 0 0 0 0 0 0 0 0 0 0.25 0"/>
<feBlend mode="normal" in2="shape" result="effect1_innerShadow_222_2"/>
</filter>
<filter id="filter8_di_222_2" x="30.7364" y="83.5348" width="15.1868" height="22.7144" filterUnits="userSpaceOnUse" color-interpolation-filters="sRGB">
<feFlood flood-opacity="0" result="BackgroundImageFix"/>
<feColorMatrix in="SourceAlpha" type="matrix" values="0 0 0 0 0 0 0 0 0 0 0 0 0 0 0 0 0 0 127 0" result="hardAlpha"/>
<feOffset dy="0.552208"/>
<feGaussianBlur stdDeviation="0.34513"/>
<feColorMatrix type="matrix" values="0 0 0 0 1 0 0 0 0 1 0 0 0 0 1 0 0 0 0.59 0"/>
<feBlend mode="normal" in2="BackgroundImageFix" result="effect1_dropShadow_222_2"/>
<feBlend mode="normal" in="SourceGraphic" in2="effect1_dropShadow_222_2" result="shape"/>
<feColorMatrix in="SourceAlpha" type="matrix" values="0 0 0 0 0 0 0 0 0 0 0 0 0 0 0 0 0 0 127 0" result="hardAlpha"/>
<feOffset dx="-2.07078" dy="1.38052"/>
<feGaussianBlur stdDeviation="1.03539"/>
<feComposite in2="hardAlpha" operator="arithmetic" k2="-1" k3="1"/>
<feColorMatrix type="matrix" values="0 0 0 0 0 0 0 0 0 0 0 0 0 0 0 0 0 0 0.25 0"/>
<feBlend mode="normal" in2="shape" result="effect2_innerShadow_222_2"/>
</filter>
<filter id="filter9_ii_222_2" x="18.9634" y="-6.00821" width="227.859" height="164.63" filterUnits="userSpaceOnUse" color-interpolation-filters="sRGB">
<feFlood flood-opacity="0" result="BackgroundImageFix"/>
<feBlend mode="normal" in="SourceGraphic" in2="BackgroundImageFix" result="shape"/>
<feColorMatrix in="SourceAlpha" type="matrix" values="0 0 0 0 0 0 0 0 0 0 0 0 0 0 0 0 0 0 127 0" result="hardAlpha"/>
<feOffset dx="9.3799" dy="-12.5065"/>
<feGaussianBlur stdDeviation="37.5196"/>
<feComposite in2="hardAlpha" operator="arithmetic" k2="-1" k3="1"/>
<feColorMatrix type="matrix" values="0 0 0 0 0 0 0 0 0 0 0 0 0 0 0 0 0 0 0.07 0"/>
<feBlend mode="normal" in2="shape" result="effect1_innerShadow_222_2"/>
<feColorMatrix in="SourceAlpha" type="matrix" values="0 0 0 0 0 0 0 0 0 0 0 0 0 0 0 0 0 0 127 0" result="hardAlpha"/>
<feOffset dy="-1.56332"/>
<feGaussianBlur stdDeviation="3.12663"/>
<feComposite in2="hardAlpha" operator="arithmetic" k2="-1" k3="1"/>
<feColorMatrix type="matrix" values="0 0 0 0 0 0 0 0 0 0 0 0 0 0 0 0 0 0 0.09 0"/>
<feBlend mode="normal" in2="effect1_innerShadow_222_2" result="effect2_innerShadow_222_2"/>
</filter>
<filter id="filter10_ddi_222_2" x="116.935" y="35.9564" width="81.9887" height="59.8738" filterUnits="userSpaceOnUse" color-interpolation-filters="sRGB">
<feFlood flood-opacity="0" result="BackgroundImageFix"/>
<feColorMatrix in="SourceAlpha" type="matrix" values="0 0 0 0 0 0 0 0 0 0 0 0 0 0 0 0 0 0 127 0" result="hardAlpha"/>
<feOffset dx="-2.4593" dy="1.22965"/>
<feGaussianBlur stdDeviation="1.22965"/>
<feColorMatrix type="matrix" values="0 0 0 0 1 0 0 0 0 1 0 0 0 0 1 0 0 0 0.28 0"/>
<feBlend mode="normal" in2="BackgroundImageFix" result="effect1_dropShadow_222_2"/>
<feColorMatrix in="SourceAlpha" type="matrix" values="0 0 0 0 0 0 0 0 0 0 0 0 0 0 0 0 0 0 127 0" result="hardAlpha"/>
<feOffset dy="-1.22965"/>
<feGaussianBlur stdDeviation="1.22965"/>
<feColorMatrix type="matrix" values="0 0 0 0 1 0 0 0 0 1 0 0 0 0 1 0 0 0 0.56 0"/>
<feBlend mode="normal" in2="effect1_dropShadow_222_2" result="effect2_dropShadow_222_2"/>
<feBlend mode="normal" in="SourceGraphic" in2="effect2_dropShadow_222_2" result="shape"/>
<feColorMatrix in="SourceAlpha" type="matrix" values="0 0 0 0 0 0 0 0 0 0 0 0 0 0 0 0 0 0 127 0" result="hardAlpha"/>
<feOffset dx="-1.22965" dy="3.68894"/>
<feGaussianBlur stdDeviation="1.84447"/>
<feComposite in2="hardAlpha" operator="arithmetic" k2="-1" k3="1"/>
<feColorMatrix type="matrix" values="0 0 0 0 0 0 0 0 0 0 0 0 0 0 0 0 0 0 0.75 0"/>
<feBlend mode="normal" in2="shape" result="effect3_innerShadow_222_2"/>
</filter>
<filter id="filter11_di_222_2" x="32.7891" y="35.8402" width="95.5815" height="60.1839" filterUnits="userSpaceOnUse" color-interpolation-filters="sRGB">
<feFlood flood-opacity="0" result="BackgroundImageFix"/>
<feColorMatrix in="SourceAlpha" type="matrix" values="0 0 0 0 0 0 0 0 0 0 0 0 0 0 0 0 0 0 127 0" result="hardAlpha"/>
<feOffset dy="0.905297"/>
<feGaussianBlur stdDeviation="0.452649"/>
<feColorMatrix type="matrix" values="0 0 0 0 0.925374 0 0 0 0 0.925374 0 0 0 0 0.925374 0 0 0 0.37 0"/>
<feBlend mode="normal" in2="BackgroundImageFix" result="effect1_dropShadow_222_2"/>
<feBlend mode="normal" in="SourceGraphic" in2="effect1_dropShadow_222_2" result="shape"/>
<feColorMatrix in="SourceAlpha" type="matrix" values="0 0 0 0 0 0 0 0 0 0 0 0 0 0 0 0 0 0 127 0" result="hardAlpha"/>
<feOffset dx="-6.03563" dy="4.36889"/>
<feGaussianBlur stdDeviation="3.01781"/>
<feComposite in2="hardAlpha" operator="arithmetic" k2="-1" k3="1"/>
<feColorMatrix type="matrix" values="0 0 0 0 0 0 0 0 0 0 0 0 0 0 0 0 0 0 0.63 0"/>
<feBlend mode="normal" in2="shape" result="effect2_innerShadow_222_2"/>
</filter>
<filter id="filter12_f_222_2" x="81.2022" y="56.4188" width="163.781" height="103.067" filterUnits="userSpaceOnUse" color-interpolation-filters="sRGB">
<feFlood flood-opacity="0" result="BackgroundImageFix"/>
<feBlend mode="normal" in="SourceGraphic" in2="BackgroundImageFix" result="shape"/>
<feGaussianBlur stdDeviation="17.2151" result="effect1_foregroundBlur_222_2"/>
</filter>
<filter id="filter13_f_222_2" x="174.307" y="36.7504" width="85.5491" height="90.8279" filterUnits="userSpaceOnUse" color-interpolation-filters="sRGB">
<feFlood flood-opacity="0" result="BackgroundImageFix"/>
<feBlend mode="normal" in="SourceGraphic" in2="BackgroundImageFix" result="shape"/>
<feGaussianBlur stdDeviation="11.0668" result="effect1_foregroundBlur_222_2"/>
</filter>
<filter id="filter14_di_222_2" x="85.4868" y="81.8969" width="8.35135" height="8.71837" filterUnits="userSpaceOnUse" color-interpolation-filters="sRGB">
<feFlood flood-opacity="0" result="BackgroundImageFix"/>
<feColorMatrix in="SourceAlpha" type="matrix" values="0 0 0 0 0 0 0 0 0 0 0 0 0 0 0 0 0 0 127 0" result="hardAlpha"/>
<feOffset dy="-0.609879"/>
<feGaussianBlur stdDeviation="0.304939"/>
<feColorMatrix type="matrix" values="0 0 0 0 0.78755 0 0 0 0 0.78755 0 0 0 0 0.78755 0 0 0 0.19 0"/>
<feBlend mode="normal" in2="BackgroundImageFix" result="effect1_dropShadow_222_2"/>
<feBlend mode="normal" in="SourceGraphic" in2="effect1_dropShadow_222_2" result="shape"/>
<feColorMatrix in="SourceAlpha" type="matrix" values="0 0 0 0 0 0 0 0 0 0 0 0 0 0 0 0 0 0 127 0" result="hardAlpha"/>
<feOffset dy="3.04939"/>
<feGaussianBlur stdDeviation="1.5247"/>
<feComposite in2="hardAlpha" operator="arithmetic" k2="-1" k3="1"/>
<feColorMatrix type="matrix" values="0 0 0 0 0 0 0 0 0 0 0 0 0 0 0 0 0 0 0.74 0"/>
<feBlend mode="normal" in2="shape" result="effect2_innerShadow_222_2"/>
</filter>
<filter id="filter15_di_222_2" x="52.352" y="67.8232" width="8.35135" height="8.71837" filterUnits="userSpaceOnUse" color-interpolation-filters="sRGB">
<feFlood flood-opacity="0" result="BackgroundImageFix"/>
<feColorMatrix in="SourceAlpha" type="matrix" values="0 0 0 0 0 0 0 0 0 0 0 0 0 0 0 0 0 0 127 0" result="hardAlpha"/>
<feOffset dy="-0.609879"/>
<feGaussianBlur stdDeviation="0.304939"/>
<feColorMatrix type="matrix" values="0 0 0 0 0.78755 0 0 0 0 0.78755 0 0 0 0 0.78755 0 0 0 0.19 0"/>
<feBlend mode="normal" in2="BackgroundImageFix" result="effect1_dropShadow_222_2"/>
<feBlend mode="normal" in="SourceGraphic" in2="effect1_dropShadow_222_2" result="shape"/>
<feColorMatrix in="SourceAlpha" type="matrix" values="0 0 0 0 0 0 0 0 0 0 0 0 0 0 0 0 0 0 127 0" result="hardAlpha"/>
<feOffset dy="3.04939"/>
<feGaussianBlur stdDeviation="1.5247"/>
<feComposite in2="hardAlpha" operator="arithmetic" k2="-1" k3="1"/>
<feColorMatrix type="matrix" values="0 0 0 0 0 0 0 0 0 0 0 0 0 0 0 0 0 0 0.74 0"/>
<feBlend mode="normal" in2="shape" result="effect2_innerShadow_222_2"/>
</filter>
<filter id="filter16_f_222_2" x="131.04" y="42.1596" width="150.526" height="128.771" filterUnits="userSpaceOnUse" color-interpolation-filters="sRGB">
<feFlood flood-opacity="0" result="BackgroundImageFix"/>
<feBlend mode="normal" in="SourceGraphic" in2="BackgroundImageFix" result="shape"/>
<feGaussianBlur stdDeviation="6.14824" result="effect1_foregroundBlur_222_2"/>
</filter>
<filter id="filter17_ddii_222_2" x="153.738" y="88.0075" width="84.8488" height="54.8096" filterUnits="userSpaceOnUse" color-interpolation-filters="sRGB">
<feFlood flood-opacity="0" result="BackgroundImageFix"/>
<feColorMatrix in="SourceAlpha" type="matrix" values="0 0 0 0 0 0 0 0 0 0 0 0 0 0 0 0 0 0 127 0" result="hardAlpha"/>
<feOffset dy="1.07131"/>
<feGaussianBlur stdDeviation="0.714204"/>
<feColorMatrix type="matrix" values="0 0 0 0 0 0 0 0 0 0 0 0 0 0 0 0 0 0 0.57 0"/>
<feBlend mode="normal" in2="BackgroundImageFix" result="effect1_dropShadow_222_2"/>
<feColorMatrix in="SourceAlpha" type="matrix" values="0 0 0 0 0 0 0 0 0 0 0 0 0 0 0 0 0 0 127 0" result="hardAlpha"/>
<feOffset dy="-0.714204"/>
<feGaussianBlur stdDeviation="0.714204"/>
<feColorMatrix type="matrix" values="0 0 0 0 0 0 0 0 0 0 0 0 0 0 0 0 0 0 1 0"/>
<feBlend mode="normal" in2="effect1_dropShadow_222_2" result="effect2_dropShadow_222_2"/>
<feBlend mode="normal" in="SourceGraphic" in2="effect2_dropShadow_222_2" result="shape"/>
<feColorMatrix in="SourceAlpha" type="matrix" values="0 0 0 0 0 0 0 0 0 0 0 0 0 0 0 0 0 0 127 0" result="hardAlpha"/>
<feOffset dy="9.84614"/>
<feGaussianBlur stdDeviation="10.0343"/>
<feComposite in2="hardAlpha" operator="arithmetic" k2="-1" k3="1"/>
<feColorMatrix type="matrix" values="0 0 0 0 0 0 0 0 0 0 0 0 0 0 0 0 0 0 1 0"/>
<feBlend mode="normal" in2="shape" result="effect3_innerShadow_222_2"/>
<feColorMatrix in="SourceAlpha" type="matrix" values="0 0 0 0 0 0 0 0 0 0 0 0 0 0 0 0 0 0 127 0" result="hardAlpha"/>
<feOffset dy="-1.07294"/>
<feGaussianBlur stdDeviation="1.07294"/>
<feComposite in2="hardAlpha" operator="arithmetic" k2="-1" k3="1"/>
<feColorMatrix type="matrix" values="0 0 0 0 0 0 0 0 0 0 0 0 0 0 0 0 0 0 0.5 0"/>
<feBlend mode="normal" in2="effect3_innerShadow_222_2" result="effect4_innerShadow_222_2"/>
</filter>
<filter id="filter18_d_222_2" x="164.459" y="117.513" width="28.0844" height="11.9482" filterUnits="userSpaceOnUse" color-interpolation-filters="sRGB">
<feFlood flood-opacity="0" result="BackgroundImageFix"/>
<feColorMatrix in="SourceAlpha" type="matrix" values="0 0 0 0 0 0 0 0 0 0 0 0 0 0 0 0 0 0 127 0" result="hardAlpha"/>
<feOffset dx="1.13841" dy="1.41412"/>
<feGaussianBlur stdDeviation="0.707062"/>
<feColorMatrix type="matrix" values="0 0 0 0 1 0 0 0 0 1 0 0 0 0 1 0 0 0 0.24 0"/>
<feBlend mode="normal" in2="BackgroundImageFix" result="effect1_dropShadow_222_2"/>
<feBlend mode="normal" in="SourceGraphic" in2="effect1_dropShadow_222_2" result="shape"/>
</filter>
<filter id="filter19_d_222_2" x="227.786" y="91.5226" width="10.0143" height="11.9927" filterUnits="userSpaceOnUse" color-interpolation-filters="sRGB">
<feFlood flood-opacity="0" result="BackgroundImageFix"/>
<feColorMatrix in="SourceAlpha" type="matrix" values="0 0 0 0 0 0 0 0 0 0 0 0 0 0 0 0 0 0 127 0" result="hardAlpha"/>
<feOffset dx="1.13841" dy="1.41412"/>
<feGaussianBlur stdDeviation="0.707062"/>
<feColorMatrix type="matrix" values="0 0 0 0 1 0 0 0 0 1 0 0 0 0 1 0 0 0 0.24 0"/>
<feBlend mode="normal" in2="BackgroundImageFix" result="effect1_dropShadow_222_2"/>
<feBlend mode="normal" in="SourceGraphic" in2="effect1_dropShadow_222_2" result="shape"/>
</filter>
<filter id="filter20_f_222_2" x="53.1993" y="76.7223" width="69.8975" height="52.1046" filterUnits="userSpaceOnUse" color-interpolation-filters="sRGB">
<feFlood flood-opacity="0" result="BackgroundImageFix"/>
<feBlend mode="normal" in="SourceGraphic" in2="BackgroundImageFix" result="shape"/>
<feGaussianBlur stdDeviation="1.89119" result="effect1_foregroundBlur_222_2"/>
</filter>
<filter id="filter21_i_222_2" x="43.8374" y="115.091" width="45.5854" height="47.4901" filterUnits="userSpaceOnUse" color-interpolation-filters="sRGB">
<feFlood flood-opacity="0" result="BackgroundImageFix"/>
<feBlend mode="normal" in="SourceGraphic" in2="BackgroundImageFix" result="shape"/>
<feColorMatrix in="SourceAlpha" type="matrix" values="0 0 0 0 0 0 0 0 0 0 0 0 0 0 0 0 0 0 127 0" result="hardAlpha"/>
<feOffset dy="-0.25"/>
<feGaussianBlur stdDeviation="0.25"/>
<feComposite in2="hardAlpha" operator="arithmetic" k2="-1" k3="1"/>
<feColorMatrix type="matrix" values="0 0 0 0 0.92549 0 0 0 0 0.34902 0 0 0 0 0.384314 0 0 0 1 0"/>
<feBlend mode="normal" in2="shape" result="effect1_innerShadow_222_2"/>
</filter>
<filter id="filter22_f_222_2" x="50.5547" y="115.724" width="38.2239" height="33.4928" filterUnits="userSpaceOnUse" color-interpolation-filters="sRGB">
<feFlood flood-opacity="0" result="BackgroundImageFix"/>
<feBlend mode="normal" in="SourceGraphic" in2="BackgroundImageFix" result="shape"/>
<feGaussianBlur stdDeviation="0.125" result="effect1_foregroundBlur_222_2"/>
</filter>
<filter id="filter23_f_222_2" x="52.9178" y="116.169" width="34.8626" height="30.2807" filterUnits="userSpaceOnUse" color-interpolation-filters="sRGB">
<feFlood flood-opacity="0" result="BackgroundImageFix"/>
<feBlend mode="normal" in="SourceGraphic" in2="BackgroundImageFix" result="shape"/>
<feGaussianBlur stdDeviation="0.05" result="effect1_foregroundBlur_222_2"/>
</filter>
<filter id="filter24_i_222_2" x="89.2334" y="111.66" width="25.251" height="11.5874" filterUnits="userSpaceOnUse" color-interpolation-filters="sRGB">
<feFlood flood-opacity="0" result="BackgroundImageFix"/>
<feBlend mode="normal" in="SourceGraphic" in2="BackgroundImageFix" result="shape"/>
<feColorMatrix in="SourceAlpha" type="matrix" values="0 0 0 0 0 0 0 0 0 0 0 0 0 0 0 0 0 0 127 0" result="hardAlpha"/>
<feOffset dx="0.125" dy="-0.125"/>
<feGaussianBlur stdDeviation="0.125"/>
<feComposite in2="hardAlpha" operator="arithmetic" k2="-1" k3="1"/>
<feColorMatrix type="matrix" values="0 0 0 0 0.721569 0 0 0 0 0.270588 0 0 0 0 0.470588 0 0 0 1 0"/>
<feBlend mode="normal" in2="shape" result="effect1_innerShadow_222_2"/>
</filter>
<filter id="filter25_i_222_2" x="57.0999" y="98.9666" width="11.1236" height="34.9751" filterUnits="userSpaceOnUse" color-interpolation-filters="sRGB">
<feFlood flood-opacity="0" result="BackgroundImageFix"/>
<feBlend mode="normal" in="SourceGraphic" in2="BackgroundImageFix" result="shape"/>
<feColorMatrix in="SourceAlpha" type="matrix" values="0 0 0 0 0 0 0 0 0 0 0 0 0 0 0 0 0 0 127 0" result="hardAlpha"/>
<feOffset dx="0.075" dy="0.125"/>
<feGaussianBlur stdDeviation="0.25"/>
<feComposite in2="hardAlpha" operator="arithmetic" k2="-1" k3="1"/>
<feColorMatrix type="matrix" values="0 0 0 0 0.721569 0 0 0 0 0.184314 0 0 0 0 0.447059 0 0 0 1 0"/>
<feBlend mode="normal" in2="shape" result="effect1_innerShadow_222_2"/>
</filter>
<filter id="filter26_i_222_2" x="80.408" y="108.29" width="5.59644" height="9.70911" filterUnits="userSpaceOnUse" color-interpolation-filters="sRGB">
<feFlood flood-opacity="0" result="BackgroundImageFix"/>
<feBlend mode="normal" in="SourceGraphic" in2="BackgroundImageFix" result="shape"/>
<feColorMatrix in="SourceAlpha" type="matrix" values="0 0 0 0 0 0 0 0 0 0 0 0 0 0 0 0 0 0 127 0" result="hardAlpha"/>
<feOffset dx="0.25" dy="-0.125"/>
<feGaussianBlur stdDeviation="0.1625"/>
<feComposite in2="hardAlpha" operator="arithmetic" k2="-1" k3="1"/>
<feColorMatrix type="matrix" values="0 0 0 0 0.239216 0 0 0 0 0.439216 0 0 0 0 0.768627 0 0 0 1 0"/>
<feBlend mode="normal" in2="shape" result="effect1_innerShadow_222_2"/>
</filter>
<filter id="filter27_f_222_2" x="73.6957" y="102.822" width="7.49019" height="5.55485" filterUnits="userSpaceOnUse" color-interpolation-filters="sRGB">
<feFlood flood-opacity="0" result="BackgroundImageFix"/>
<feBlend mode="normal" in="SourceGraphic" in2="BackgroundImageFix" result="shape"/>
<feGaussianBlur stdDeviation="0.075" result="effect1_foregroundBlur_222_2"/>
</filter>
<filter id="filter28_f_222_2" x="81.2826" y="90.7112" width="7.74004" height="19.8578" filterUnits="userSpaceOnUse" color-interpolation-filters="sRGB">
<feFlood flood-opacity="0" result="BackgroundImageFix"/>
<feBlend mode="normal" in="SourceGraphic" in2="BackgroundImageFix" result="shape"/>
<feGaussianBlur stdDeviation="0.1125" result="effect1_foregroundBlur_222_2"/>
</filter>
<linearGradient id="paint0_linear_222_2" x1="24.8039" y1="27.2495" x2="26.0389" y2="8.87919" gradientUnits="userSpaceOnUse">
<stop stop-color="#3F3F3F"/>
<stop offset="1" stop-color="#5C5C5C"/>
</linearGradient>
<linearGradient id="paint1_linear_222_2" x1="23.2471" y1="26.2781" x2="24.4722" y2="8.56733" gradientUnits="userSpaceOnUse">
<stop stop-color="#AAAAAA"/>
<stop offset="1" stop-color="#C2C2C2"/>
</linearGradient>
<linearGradient id="paint2_linear_222_2" x1="21.217" y1="23.3052" x2="22.2731" y2="7.59393" gradientUnits="userSpaceOnUse">
<stop stop-color="#3F3F3F"/>
<stop offset="1" stop-color="#5C5C5C"/>
</linearGradient>
<linearGradient id="paint3_linear_222_2" x1="19.9046" y1="22.5023" x2="20.9538" y2="7.33636" gradientUnits="userSpaceOnUse">
<stop stop-color="#AAAAAA"/>
<stop offset="1" stop-color="#C2C2C2"/>
</linearGradient>
<linearGradient id="paint4_linear_222_2" x1="56.046" y1="96.7607" x2="228.848" y2="69.8319" gradientUnits="userSpaceOnUse">
<stop stop-color="#CECBCB"/>
<stop offset="1" stop-color="white"/>
</linearGradient>
<linearGradient id="paint5_linear_222_2" x1="153.412" y1="125.544" x2="98.3635" y2="4.16914" gradientUnits="userSpaceOnUse">
<stop stop-color="#CECBCB"/>
<stop offset="1" stop-color="white"/>
</linearGradient>
<linearGradient id="paint6_linear_222_2" x1="161.023" y1="-0.212434" x2="101.81" y2="57.3973" gradientUnits="userSpaceOnUse">
<stop stop-color="#E8EAE9"/>
<stop offset="0.498386" stop-color="#707072"/>
<stop offset="1" stop-color="#2F3032"/>
</linearGradient>
<linearGradient id="paint7_linear_222_2" x1="199.296" y1="212.921" x2="163.699" y2="29.3772" gradientUnits="userSpaceOnUse">
<stop stop-color="#E8EAE9"/>
<stop offset="0.498386" stop-color="#707072"/>
<stop offset="1" stop-color="#2F3032"/>
</linearGradient>
<linearGradient id="paint8_linear_222_2" x1="160.276" y1="127.454" x2="167.419" y2="105.582" gradientUnits="userSpaceOnUse">
<stop stop-color="#ECEAEA"/>
<stop offset="1" stop-color="white" stop-opacity="0"/>
</linearGradient>
<linearGradient id="paint9_linear_222_2" x1="244.365" y1="87.4981" x2="216.4" y2="97.6965" gradientUnits="userSpaceOnUse">
<stop stop-color="#ECEAEA"/>
<stop offset="1" stop-color="white" stop-opacity="0"/>
</linearGradient>
<linearGradient id="paint10_linear_222_2" x1="207.151" y1="117.488" x2="201.994" y2="107.794" gradientUnits="userSpaceOnUse">
<stop stop-color="#4B4B4B"/>
<stop offset="0.899322" stop-opacity="0"/>
</linearGradient>
<linearGradient id="paint11_linear_222_2" x1="79.1155" y1="121.574" x2="93.4474" y2="95.0059" gradientUnits="userSpaceOnUse">
<stop stop-color="#040404"/>
<stop offset="1" stop-color="#3C3C3C" stop-opacity="0"/>
</linearGradient>
<linearGradient id="paint12_linear_222_2" x1="48.2146" y1="136.082" x2="69.6293" y2="154.676" gradientUnits="userSpaceOnUse">
<stop stop-color="#B3843C"/>
<stop offset="1" stop-color="#F17A61"/>
</linearGradient>
<linearGradient id="paint13_linear_222_2" x1="45.8479" y1="138.962" x2="52.114" y2="140.234" gradientUnits="userSpaceOnUse">
<stop stop-color="#B1853B"/>
<stop offset="1" stop-color="#B1853B" stop-opacity="0"/>
</linearGradient>
<linearGradient id="paint14_linear_222_2" x1="89.4237" y1="146.293" x2="78.8438" y2="148.036" gradientUnits="userSpaceOnUse">
<stop stop-color="#F9C26C"/>
<stop offset="1" stop-color="#F9C26C" stop-opacity="0"/>
</linearGradient>
<linearGradient id="paint15_linear_222_2" x1="66.6304" y1="115.914" x2="59.8357" y2="127.45" gradientUnits="userSpaceOnUse">
<stop stop-color="#E6BF69"/>
<stop offset="1" stop-color="#E6BF69" stop-opacity="0"/>
</linearGradient>
<linearGradient id="paint16_linear_222_2" x1="64.3169" y1="139.007" x2="78.105" y2="126.701" gradientUnits="userSpaceOnUse">
<stop stop-color="#FCCB57"/>
<stop offset="1" stop-color="#F5BD55"/>
</linearGradient>
<linearGradient id="paint17_linear_222_2" x1="55.7663" y1="118.07" x2="88.0571" y2="147.703" gradientUnits="userSpaceOnUse">
<stop stop-color="#F3AB2C"/>
<stop offset="1" stop-color="#B57F1E"/>
</linearGradient>
<radialGradient id="paint18_radial_222_2" cx="0" cy="0" r="1" gradientUnits="userSpaceOnUse" gradientTransform="translate(58.0111 129.111) rotate(-69.379) scale(17.2059 4.81915)">
<stop offset="0.423" stop-color="#CA851E"/>
<stop offset="1" stop-color="#CA851E" stop-opacity="0"/>
</radialGradient>
<radialGradient id="paint19_radial_222_2" cx="0" cy="0" r="1" gradientUnits="userSpaceOnUse" gradientTransform="translate(71.7062 140.815) rotate(-33.3512) scale(17.291 10.1258)">
<stop stop-color="#BC7F28"/>
<stop offset="1" stop-color="#BC7F28" stop-opacity="0"/>
</radialGradient>
<radialGradient id="paint20_radial_222_2" cx="0" cy="0" r="1" gradientUnits="userSpaceOnUse" gradientTransform="translate(78.1384 124.629) rotate(138.668) scale(4.58764)">
<stop stop-color="#5AC0FF"/>
<stop offset="1" stop-color="#3279B6"/>
</radialGradient>
<radialGradient id="paint21_radial_222_2" cx="0" cy="0" r="1" gradientTransform="matrix(-4.33054 1.57184 -1.72292 -4.74682 77.3563 125.059)" gradientUnits="userSpaceOnUse">
<stop offset="0.535" stop-color="#3A619E" stop-opacity="0"/>
<stop offset="1" stop-color="#3A619E"/>
</radialGradient>
<radialGradient id="paint22_radial_222_2" cx="0" cy="0" r="1" gradientUnits="userSpaceOnUse" gradientTransform="translate(104.809 142.493) rotate(134.569) scale(5.25281)">
<stop stop-color="#FDD46C"/>
<stop offset="1" stop-color="#F09C53"/>
</radialGradient>
<radialGradient id="paint23_radial_222_2" cx="0" cy="0" r="1" gradientUnits="userSpaceOnUse" gradientTransform="translate(103.549 142.217) rotate(100.827) scale(5.20314)">
<stop offset="0.792" stop-color="#E76260" stop-opacity="0"/>
<stop offset="0.964" stop-color="#E76260"/>
</radialGradient>
<radialGradient id="paint24_radial_222_2" cx="0" cy="0" r="1" gradientTransform="matrix(-4.44688 -2.82665 3.32879 -5.2368 104.482 144.373)" gradientUnits="userSpaceOnUse">
<stop offset="0.482" stop-color="#AA885A" stop-opacity="0"/>
<stop offset="0.907" stop-color="#AA885A"/>
</radialGradient>
<radialGradient id="paint25_radial_222_2" cx="0" cy="0" r="1" gradientUnits="userSpaceOnUse" gradientTransform="translate(102.568 100.392) rotate(132.387) scale(5.47219)">
<stop stop-color="#FF46AA"/>
<stop offset="1" stop-color="#E3189D"/>
</radialGradient>
<radialGradient id="paint26_radial_222_2" cx="0" cy="0" r="1" gradientTransform="matrix(-4.93897 -0.581081 0.777643 -6.60989 101.629 102.215)" gradientUnits="userSpaceOnUse">
<stop offset="0.522" stop-color="#B63173" stop-opacity="0"/>
<stop offset="1" stop-color="#B63173"/>
</radialGradient>
<radialGradient id="paint27_radial_222_2" cx="0" cy="0" r="1" gradientUnits="userSpaceOnUse" gradientTransform="translate(65.6301 90.6647) rotate(139.574) scale(4.89063)">
<stop stop-color="#FFF46F"/>
<stop offset="1" stop-color="#EFB93C"/>
</radialGradient>
<radialGradient id="paint28_radial_222_2" cx="0" cy="0" r="1" gradientUnits="userSpaceOnUse" gradientTransform="translate(64.9304 91.4254) rotate(-178.519) scale(5.08576 4.84226)">
<stop offset="0.559" stop-color="#AA904B" stop-opacity="0"/>
<stop offset="0.944" stop-color="#AA904B"/>
</radialGradient>
<radialGradient id="paint29_radial_222_2" cx="0" cy="0" r="1" gradientUnits="userSpaceOnUse" gradientTransform="translate(64.3593 90.14) rotate(102.339) scale(5.43812)">
<stop offset="0.772" stop-color="#C47072" stop-opacity="0"/>
<stop offset="1" stop-color="#C47072"/>
</radialGradient>
<radialGradient id="paint30_radial_222_2" cx="0" cy="0" r="1" gradientUnits="userSpaceOnUse" gradientTransform="translate(52.3827 103.296) rotate(132.387) scale(5.47219)">
<stop stop-color="#FF46AA"/>
<stop offset="1" stop-color="#E3189D"/>
</radialGradient>
<radialGradient id="paint31_radial_222_2" cx="0" cy="0" r="1" gradientTransform="matrix(-4.93898 -0.581081 0.777644 -6.60989 51.4394 105.121)" gradientUnits="userSpaceOnUse">
<stop offset="0.522" stop-color="#B63173" stop-opacity="0"/>
<stop offset="1" stop-color="#B63173"/>
</radialGradient>
<radialGradient id="paint32_radial_222_2" cx="0" cy="0" r="1" gradientUnits="userSpaceOnUse" gradientTransform="translate(66.8085 149.613) rotate(133.21) scale(11.275 24.6859)">
<stop stop-color="#3365FF"/>
<stop offset="1" stop-color="#356DB9"/>
</radialGradient>
<radialGradient id="paint33_radial_222_2" cx="0" cy="0" r="1" gradientUnits="userSpaceOnUse" gradientTransform="translate(56.6812 157.417) rotate(131.598) scale(6.95983 17.6054)">
<stop stop-color="#3365FF"/>
<stop offset="1" stop-color="#356DB9"/>
</radialGradient>
<radialGradient id="paint34_radial_222_2" cx="0" cy="0" r="1" gradientUnits="userSpaceOnUse" gradientTransform="translate(110.137 114.585) rotate(168.283) scale(11.4446 4.26971)">
<stop stop-color="#FF3BA9"/>
<stop offset="1" stop-color="#F422A7"/>
</radialGradient>
<radialGradient id="paint35_radial_222_2" cx="0" cy="0" r="1" gradientUnits="userSpaceOnUse" gradientTransform="translate(101.858 123.714) rotate(-127.355) scale(11.8002 21.0302)">
<stop offset="0.752" stop-color="#B8306F" stop-opacity="0"/>
<stop offset="1" stop-color="#B8306F"/>
</radialGradient>
<linearGradient id="paint36_linear_222_2" x1="87.6335" y1="88.5276" x2="75.7282" y2="117.061" gradientUnits="userSpaceOnUse">
<stop stop-color="#20B2EE"/>
<stop offset="1" stop-color="#2689DA"/>
</linearGradient>
<radialGradient id="paint37_radial_222_2" cx="0" cy="0" r="1" gradientUnits="userSpaceOnUse" gradientTransform="translate(85.0201 97.7981) rotate(128.217) scale(20.6142 12.6092)">
<stop offset="0.802" stop-color="#4274D2" stop-opacity="0"/>
<stop offset="0.951" stop-color="#4274D2"/>
</radialGradient>
<radialGradient id="paint38_radial_222_2" cx="0" cy="0" r="1" gradientTransform="matrix(2.90527 0.622572 -2.08999 9.75322 83.9891 95.41)" gradientUnits="userSpaceOnUse">
<stop stop-color="#4D8EC0"/>
<stop offset="1" stop-color="#4D8EC0" stop-opacity="0"/>
</radialGradient>
<radialGradient id="paint39_radial_222_2" cx="0" cy="0" r="1" gradientUnits="userSpaceOnUse" gradientTransform="translate(89.8848 88.9751) rotate(141.953) scale(3.63651 3.26947)">
<stop stop-color="#5ADEFF"/>
<stop offset="1" stop-color="#5ADEFF" stop-opacity="0"/>
</radialGradient>
<linearGradient id="paint40_linear_222_2" x1="75.3829" y1="140.627" x2="111.003" y2="131.293" gradientUnits="userSpaceOnUse">
<stop stop-color="#3797E2"/>
<stop offset="1" stop-color="#37AEFF"/>
</linearGradient>
<radialGradient id="paint41_radial_222_2" cx="0" cy="0" r="1" gradientUnits="userSpaceOnUse" gradientTransform="translate(88.5588 146.449) rotate(-129.838) scale(21.1969 53.1346)">
<stop offset="0.623" stop-color="#526579" stop-opacity="0"/>
<stop offset="0.962" stop-color="#526579"/>
</radialGradient>
<radialGradient id="paint42_radial_222_2" cx="0" cy="0" r="1" gradientUnits="userSpaceOnUse" gradientTransform="translate(100.463 135.009) rotate(94.399) scale(7.276 14.6285)">
<stop offset="0.396" stop-color="#6972FF"/>
<stop offset="1" stop-color="#6972FF" stop-opacity="0"/>
</radialGradient>
<radialGradient id="paint43_radial_222_2" cx="0" cy="0" r="1" gradientTransform="matrix(0.7208 -1.86017 1.46694 0.568438 111.253 128.897)" gradientUnits="userSpaceOnUse">
<stop stop-color="#55BFFF"/>
<stop offset="1" stop-color="#55BFFF" stop-opacity="0"/>
</radialGradient>
<radialGradient id="paint44_radial_222_2" cx="0" cy="0" r="1" gradientUnits="userSpaceOnUse" gradientTransform="translate(65.8044 100.096) rotate(99.4229) scale(19.4221 7.27627)">
<stop stop-color="#FF3AAA"/>
<stop offset="1" stop-color="#FD2F89"/>
</radialGradient>
<radialGradient id="paint45_radial_222_2" cx="0" cy="0" r="1" gradientUnits="userSpaceOnUse" gradientTransform="translate(55.6622 120.124) rotate(31.176) scale(12.7724 40.0836)">
<stop offset="0.804" stop-color="#DB2C6E" stop-opacity="0"/>
<stop offset="1" stop-color="#DB2C6E"/>
</radialGradient>
<radialGradient id="paint46_radial_222_2" cx="0" cy="0" r="1" gradientUnits="userSpaceOnUse" gradientTransform="translate(80.6118 108.285) rotate(-119.23) scale(7.27372 5.43716)">
<stop stop-color="#336BAF"/>
<stop offset="1" stop-color="#336BAF" stop-opacity="0"/>
</radialGradient>
<radialGradient id="paint47_radial_222_2" cx="0" cy="0" r="1" gradientTransform="matrix(-3.01046 -3.90113 1.58055 -1.2197 82.9796 102.797)" gradientUnits="userSpaceOnUse">
<stop stop-color="#49A4D4"/>
<stop offset="1" stop-color="#49A4D4" stop-opacity="0"/>
</radialGradient>
<radialGradient id="paint48_radial_222_2" cx="0" cy="0" r="1" gradientUnits="userSpaceOnUse" gradientTransform="translate(85.1949 108.195) rotate(94.8501) scale(6.87277 3.82499)">
<stop stop-color="#4AB5F8"/>
<stop offset="1" stop-color="#4AB5F8" stop-opacity="0"/>
</radialGradient>
<linearGradient id="paint49_linear_222_2" x1="73.117" y1="104.752" x2="80.504" y2="102.943" gradientUnits="userSpaceOnUse">
<stop stop-color="#4EAFF2"/>
<stop offset="1" stop-color="#4EAFF2" stop-opacity="0"/>
</linearGradient>
<linearGradient id="paint50_linear_222_2" x1="88.1408" y1="88.1876" x2="77.7655" y2="112.094" gradientUnits="userSpaceOnUse">
<stop stop-color="#5BDDFF"/>
<stop offset="1" stop-color="#5BDDFF" stop-opacity="0"/>
</linearGradient>
</defs>
</svg>
