<svg width="16" height="16" viewBox="0 0 16 16" fill="none" xmlns="http://www.w3.org/2000/svg">
<path d="M13 3.66683L12.5867 10.3502C12.4813 12.0575 12.4287 12.9115 12 13.5255C11.7884 13.8289 11.5159 14.085 11.2 14.2775C10.562 14.6668 9.70667 14.6668 7.996 14.6668C6.28267 14.6668 5.426 14.6668 4.78667 14.2768C4.47059 14.084 4.19814 13.8274 3.98667 13.5235C3.55867 12.9088 3.50667 12.0535 3.404 10.3435L3 3.66683M2 3.66683H14M10.704 3.66683L10.2487 2.72816C9.94667 2.10416 9.79533 1.79283 9.53467 1.59816C9.47676 1.55504 9.41545 1.51669 9.35133 1.4835C9.06267 1.3335 8.716 1.3335 8.02333 1.3335C7.31267 1.3335 6.95733 1.3335 6.66333 1.4895C6.59834 1.5243 6.53635 1.56444 6.478 1.6095C6.21467 1.8115 6.06733 2.13483 5.77267 2.78083L5.36867 3.66683M6.33333 11.0002V7.00016M9.66667 11.0002V7.00016" stroke="#DB161B" stroke-linecap="round" stroke-linejoin="round"/>
</svg>
