<svg width="24" height="24" viewBox="0 0 24 24" fill="none" xmlns="http://www.w3.org/2000/svg">
<path fill-rule="evenodd" clip-rule="evenodd" d="M1.25 12C1.25 6.063 6.063 1.25 12 1.25C12.1989 1.25 12.3897 1.32902 12.5303 1.46967C12.671 1.61032 12.75 1.80109 12.75 2C12.75 2.19891 12.671 2.38968 12.5303 2.53033C12.3897 2.67098 12.1989 2.75 12 2.75C10.1705 2.75 8.38213 3.2925 6.86098 4.30891C5.33982 5.32531 4.15423 6.76996 3.45411 8.46018C2.754 10.1504 2.57082 12.0103 2.92774 13.8046C3.28465 15.5989 4.16563 17.2471 5.45926 18.5407C6.7529 19.8344 8.40109 20.7154 10.1954 21.0723C11.9897 21.4292 13.8496 21.246 15.5398 20.5459C17.23 19.8458 18.6747 18.6602 19.6911 17.139C20.7075 15.6179 21.25 13.8295 21.25 12C21.25 11.8011 21.329 11.6103 21.4697 11.4697C21.6103 11.329 21.8011 11.25 22 11.25C22.1989 11.25 22.3897 11.329 22.5303 11.4697C22.671 11.6103 22.75 11.8011 22.75 12C22.75 17.937 17.937 22.75 12 22.75C6.063 22.75 1.25 17.937 1.25 12ZM16.77 2.276C17.4299 1.63425 18.3159 1.27805 19.2364 1.28443C20.1569 1.29081 21.0379 1.65926 21.6889 2.3101C22.3399 2.96094 22.7085 3.84186 22.7151 4.76235C22.7216 5.68285 22.3656 6.56894 21.724 7.229L15.076 13.878C14.705 14.248 14.472 14.482 14.213 14.684C13.9073 14.9228 13.5763 15.1274 13.226 15.294C12.929 15.435 12.616 15.539 12.119 15.705L9.214 16.673C8.95118 16.7605 8.66917 16.7732 8.39958 16.7095C8.12998 16.6458 7.88344 16.5083 7.68756 16.3124C7.49168 16.1166 7.3542 15.87 7.29052 15.6004C7.22684 15.3308 7.23947 15.0488 7.327 14.786L8.295 11.881C8.461 11.383 8.565 11.071 8.706 10.774C8.874 10.4233 9.07733 10.0943 9.316 9.787C9.518 9.527 9.751 9.295 10.122 8.924L16.77 2.276ZM20.663 3.336C20.2874 2.96057 19.7781 2.74967 19.247 2.74967C18.7159 2.74967 18.2066 2.96057 17.831 3.336L17.455 3.713C17.4763 3.80967 17.509 3.92233 17.553 4.051C17.696 4.464 17.968 5.008 18.48 5.52C18.9786 6.01876 19.6031 6.37299 20.287 6.545L20.663 6.169C21.0384 5.79339 21.2493 5.28406 21.2493 4.753C21.2493 4.22194 21.0384 3.71161 20.663 3.336ZM19.105 7.728C18.4753 7.45651 17.9031 7.06758 17.419 6.582C16.9334 6.09786 16.5445 5.52566 16.273 4.896L11.218 9.95C10.801 10.367 10.638 10.532 10.498 10.71C10.328 10.9308 10.1815 11.1688 10.061 11.42C9.963 11.623 9.889 11.843 9.702 12.402L9.271 13.697L10.303 14.73L11.598 14.298C12.158 14.111 12.377 14.037 12.581 13.94C12.833 13.82 13.0697 13.6737 13.291 13.501C13.468 13.362 13.633 13.199 14.05 12.783L19.105 7.728Z" fill="#2670DE"/>
</svg>
