<svg width="24" height="24" viewBox="0 0 24 24" fill="none" xmlns="http://www.w3.org/2000/svg">
<path fill-rule="evenodd" clip-rule="evenodd" d="M5.624 4.42358C3.965 5.18158 2.75 6.98558 2.75 9.13658C2.75 11.3336 3.65 13.0276 4.938 14.4796C6.001 15.6756 7.287 16.6676 8.541 17.6336C8.83967 17.8636 9.13467 18.0929 9.426 18.3216C9.952 18.7366 10.421 19.0996 10.874 19.3646C11.327 19.6296 11.69 19.7496 12 19.7496C12.31 19.7496 12.674 19.6296 13.126 19.3646C13.579 19.0996 14.048 18.7366 14.574 18.3216C14.8653 18.0922 15.1603 17.8632 15.459 17.6346C16.713 16.6666 17.999 15.6756 19.062 14.4796C20.351 13.0276 21.25 11.3336 21.25 9.13658C21.25 6.98658 20.035 5.18158 18.376 4.42358C16.764 3.68658 14.598 3.88158 12.54 6.02058C12.47 6.09317 12.3862 6.1509 12.2934 6.19034C12.2006 6.22977 12.1008 6.2501 12 6.2501C11.8992 6.2501 11.7994 6.22977 11.7066 6.19034C11.6138 6.1509 11.53 6.09317 11.46 6.02058C9.402 3.88158 7.236 3.68658 5.624 4.42358ZM12 4.45958C9.688 2.38958 7.099 2.09958 5 3.05858C2.786 4.07358 1.25 6.42558 1.25 9.13758C1.25 11.8026 2.36 13.8366 3.817 15.4766C4.983 16.7896 6.41 17.8886 7.671 18.8586C7.95767 19.0786 8.233 19.2926 8.497 19.5006C9.01 19.9046 9.56 20.3346 10.117 20.6606C10.674 20.9866 11.31 21.2506 12 21.2506C12.69 21.2506 13.326 20.9856 13.883 20.6606C14.441 20.3346 14.99 19.9046 15.503 19.5006C15.767 19.2926 16.0423 19.0786 16.329 18.8586C17.589 17.8886 19.017 16.7886 20.183 15.4766C21.64 13.8366 22.75 11.8026 22.75 9.13758C22.75 6.42558 21.215 4.07358 19 3.06058C16.901 2.10058 14.312 2.39058 12 4.45958Z" fill="#787878"/>
</svg>
