<?xml version="1.0" standalone="no"?>
<!DOCTYPE svg PUBLIC "-//W3C//DTD SVG 20010904//EN"
 "http://www.w3.org/TR/2001/REC-SVG-20010904/DTD/svg10.dtd">
<svg version="1.0" xmlns="http://www.w3.org/2000/svg"
 width="641.000000pt" height="340.000000pt" viewBox="0 0 641.000000 340.000000"
 preserveAspectRatio="xMidYMid meet">

<g transform="translate(0.000000,340.000000) scale(0.100000,-0.100000)"
fill="#000000" stroke="none">
<path d="M2990 2965 l0 -195 190 0 190 0 0 195 0 195 -190 0 -190 0 0 -195z"/>
<path d="M2260 2345 l0 -415 -440 0 -440 0 0 -185 0 -185 600 0 600 0 0 600 0
600 -160 0 -160 0 0 -415z"/>
<path d="M4570 2155 l0 -595 205 0 205 0 0 595 0 595 -205 0 -205 0 0 -595z"/>
<path d="M2980 1970 l0 -390 195 0 195 0 0 390 0 390 -195 0 -195 0 0 -390z"/>
<path d="M3780 1960 l0 -380 200 0 200 0 0 380 0 380 -200 0 -200 0 0 -380z"/>
<path d="M4870 1200 c0 -60 -3 -110 -6 -110 -4 0 -24 16 -46 36 -54 48 -97 65
-172 65 -129 1 -214 -49 -268 -158 -29 -60 -33 -77 -33 -148 1 -104 24 -170
80 -233 63 -70 126 -96 235 -96 71 -1 94 3 140 25 70 33 116 79 149 149 26 54
26 59 29 318 l3 262 -55 0 -56 0 0 -110z m-124 -116 c89 -42 139 -154 116
-261 -24 -113 -96 -177 -202 -176 -69 1 -106 19 -154 74 -76 89 -68 249 16
325 59 54 155 70 224 38z"/>
<path d="M2275 1189 c-70 -9 -117 -31 -168 -78 -68 -63 -92 -125 -92 -241 0
-78 4 -104 24 -147 84 -188 326 -229 464 -79 l37 41 0 -58 0 -57 56 0 56 0 -4
198 c-3 181 -5 201 -26 247 -42 92 -125 158 -214 171 -74 10 -82 11 -133 3z
m167 -118 c132 -91 126 -324 -10 -398 -105 -57 -231 -23 -283 78 -61 120 -14
286 96 336 48 21 155 13 197 -16z"/>
<path d="M3812 1189 c-158 -27 -252 -145 -252 -319 0 -137 49 -229 151 -285
47 -26 64 -30 134 -29 95 0 144 21 197 84 19 22 38 40 41 40 4 0 7 -25 7 -55
l0 -55 56 0 56 0 -4 193 c-4 186 -5 194 -33 255 -60 132 -195 198 -353 171z
m156 -108 c75 -39 112 -104 112 -198 0 -86 -16 -130 -64 -178 -32 -32 -56 -45
-92 -53 -144 -31 -254 63 -254 216 0 144 78 231 208 232 33 0 67 -7 90 -19z"/>
<path d="M2985 1166 c-27 -12 -67 -41 -87 -64 -58 -64 -68 -114 -68 -339 l0
-193 55 0 55 0 0 188 c0 103 5 203 10 222 11 41 61 94 103 109 75 29 158 4
211 -62 l31 -39 3 -209 3 -209 55 0 54 0 0 193 c0 225 -10 275 -68 339 -57 63
-119 88 -222 88 -68 0 -95 -5 -135 -24z"/>
<path d="M1475 1164 c-47 -24 -73 -53 -91 -100 -38 -101 17 -200 124 -223 29
-6 92 -11 141 -11 79 0 90 -2 109 -23 31 -33 29 -87 -4 -121 l-27 -26 -168 0
-169 0 0 -45 0 -45 183 0 c206 0 227 6 281 73 28 35 31 45 31 112 0 87 -17
118 -85 153 -37 18 -60 22 -141 22 -53 0 -110 5 -127 11 -61 21 -65 111 -6
138 15 6 83 11 169 11 l145 0 0 45 0 45 -167 0 c-133 0 -174 -3 -198 -16z"/>
</g>
</svg>
