<svg width="110" height="30" viewBox="0 0 110 30" fill="none" xmlns="http://www.w3.org/2000/svg">
<path d="M88.0957 12.752C88.7357 12.752 89.3764 12.7368 90.0164 12.7569C90.5796 12.7742 90.9946 12.5699 91.3167 12.1074C91.8893 11.2535 92.7513 10.6309 93.7468 10.3521C94.5789 10.1136 95.4632 10.1219 96.2905 10.3762C97.1178 10.6304 97.8518 11.1194 98.4016 11.7826C98.4589 11.8455 98.5112 11.9126 98.5581 11.9834C98.9116 12.5879 99.4413 12.7825 100.136 12.7617C101.386 12.7236 102.64 12.7617 103.891 12.7478C104.503 12.7447 105.09 12.5071 105.529 12.0848C105.968 11.6625 106.226 11.0883 106.247 10.4823C106.257 10.2331 106.201 9.97964 106.16 9.73037C106.096 9.34263 106.111 8.97705 106.35 8.63846C106.922 7.82697 108.106 7.86851 108.576 8.74163C108.764 9.10479 108.918 9.48447 109.035 9.87578C110.486 14.4574 109.967 18.8036 107.254 22.7946C104.843 26.3403 101.43 28.4445 97.1551 29.0795C93.1578 29.6742 89.4833 28.7887 86.2259 26.411C83.0007 24.0568 81.0381 20.8932 80.3568 16.9784C79.8817 14.2476 80.208 11.5915 81.2491 9.02067C81.294 8.90227 81.3489 8.78785 81.4133 8.67862C81.5672 8.42152 81.8077 8.22646 82.0924 8.1278C82.3772 8.02913 82.6879 8.03319 82.97 8.13924C83.573 8.37258 83.9391 8.97428 83.8245 9.58289C83.7414 10.0267 83.6498 10.4588 83.7658 10.9178C84.0264 11.9516 84.9271 12.7132 86.0017 12.7437C86.7004 12.7631 87.3991 12.7472 88.0929 12.7472L88.0957 12.752ZM88.1208 16.3906C87.492 16.3906 86.8688 16.4016 86.2434 16.3906C84.308 16.3504 83.2215 18.3244 84.0243 19.8858C84.9375 21.6632 86.1645 23.1754 87.8071 24.3303C88.4272 24.7782 89.0905 25.1641 89.7873 25.4825C91.3943 26.188 93.1334 25.0386 93.148 23.3C93.1592 21.9907 93.148 20.6807 93.148 19.3713C93.148 18.9157 92.9789 18.5405 92.6009 18.285C92.0717 17.9271 91.6142 17.4749 91.2517 16.9514C90.9723 16.5457 90.5803 16.3753 90.0828 16.3871C89.4295 16.4023 88.7748 16.3906 88.1201 16.3906H88.1208ZM101.869 16.3906C101.215 16.3906 100.561 16.4044 99.9073 16.3864C99.3763 16.3719 98.969 16.5623 98.6769 16.9999C98.3545 17.4836 97.9361 17.8973 97.4472 18.2157C97.0042 18.5058 96.8113 18.9081 96.8183 19.4295C96.8274 20.6973 96.8183 21.9644 96.826 23.2315C96.8219 23.4566 96.8453 23.6815 96.8959 23.901C96.9823 24.2443 97.1454 24.564 97.3733 24.8365C97.6011 25.1089 97.8878 25.3272 98.2122 25.4751C98.5366 25.623 98.8903 25.6967 99.2474 25.6909C99.6044 25.6852 99.9555 25.5999 100.275 25.4416C102.836 24.2195 104.752 22.3258 105.98 19.7875C106.755 18.1846 105.588 16.4065 103.791 16.3947C103.149 16.3871 102.509 16.3913 101.869 16.3913V16.3906ZM94.994 12.4058C94.7049 12.3987 94.4172 12.4485 94.1477 12.5525C93.8782 12.6565 93.6322 12.8126 93.4241 13.0117C93.216 13.2107 93.0499 13.4488 92.9355 13.712C92.8211 13.9752 92.7606 14.2584 92.7576 14.545C92.7546 14.8316 92.8091 15.1159 92.918 15.3815C93.0268 15.647 93.1879 15.8884 93.3918 16.0917C93.5956 16.295 93.8383 16.4561 94.1055 16.5657C94.3728 16.6752 94.6594 16.731 94.9486 16.7298C96.186 16.7388 97.1649 15.7979 97.1726 14.5917C97.1767 14.3058 97.1233 14.022 97.0156 13.7568C96.9079 13.4916 96.748 13.2502 96.5452 13.0469C96.3424 12.8435 96.1009 12.6821 95.8346 12.5722C95.5682 12.4622 95.2825 12.4059 94.994 12.4065V12.4058Z" fill="white"/>
<path d="M87.596 5.22423L89.3983 7.0179C89.4976 6.95224 89.6587 6.84677 89.8184 6.73851C93.4182 4.31482 98.3344 4.76254 101.456 7.79459C101.795 8.12427 102.029 8.50005 101.965 8.99596C101.897 9.53728 101.596 9.91235 101.09 10.0919C100.6 10.2665 100.152 10.1701 99.7762 9.79711C98.8276 8.83801 97.6164 8.19396 96.3019 7.94965C94.1453 7.54594 92.2059 8.05652 90.5119 9.48629C90.4152 9.56801 90.3248 9.65741 90.2316 9.74263C89.5854 10.3307 88.9145 10.3231 88.3025 9.7105C87.7358 9.14194 87.1766 8.56571 86.614 7.99296C86.0513 7.42021 85.5058 6.8335 84.9206 6.28311C84.1538 5.55949 84.2436 4.72133 84.9659 4.04241C87.1923 1.9505 89.7752 0.598958 92.7781 0.168701C97.4312 -0.497639 101.498 0.813389 104.969 4.04102C105.073 4.13521 105.17 4.23724 105.26 4.34625C105.72 4.91899 105.69 5.61048 105.187 6.11338C104.684 6.61628 103.953 6.63583 103.408 6.15738C103.04 5.83189 102.687 5.48476 102.303 5.17952C100.602 3.8186 98.564 2.96683 96.4156 2.71951C93.2338 2.33745 90.357 3.13859 87.7776 5.06637C87.7138 5.11596 87.6542 5.17394 87.596 5.22423Z" fill="white"/>
<path d="M9.54932 20.8003C9.55591 21.4769 9.47934 22.1519 9.32131 22.8098C9.21343 23.3452 8.92901 23.8289 8.51363 24.1834C8.10155 24.5955 7.67164 24.8386 7.22935 24.9087H3.81185C3.23319 24.9174 2.65983 24.7973 2.13334 24.557C1.66219 24.3307 1.25058 23.9971 0.931449 23.5832C0.59656 23.1327 0.357242 22.6185 0.228175 22.0722C0.0735779 21.443 -0.00300728 20.7971 0.000155102 20.1492V13.0107H2.05092V20.8209C2.06432 21.1239 2.12027 21.4235 2.21712 21.711C2.28253 21.9701 2.40819 22.2101 2.58388 22.4115C2.72108 22.6203 2.91501 22.7857 3.14292 22.8881C3.37508 23.0012 3.63058 23.0581 3.88878 23.0543H6.39557C6.74387 22.9671 7.04678 22.7524 7.24444 22.4527C7.4094 22.1251 7.4946 21.7632 7.49306 21.3964C6.98194 21.4022 6.47278 21.3323 5.98212 21.189C5.5188 21.0739 5.09128 20.8457 4.73792 20.5246C4.38455 20.2036 4.11638 19.8 3.95746 19.3498C3.74944 18.7652 3.65119 18.1473 3.66764 17.527V12.7003C3.64994 12.1957 3.74374 11.6934 3.94235 11.2292C4.08823 10.8714 4.31536 10.5526 4.60579 10.2979C4.88559 10.0677 5.21024 9.89841 5.55906 9.80062C5.91214 9.71835 6.27341 9.67642 6.63595 9.67563H9.55619L9.54932 20.8003ZM3.93548 8.63994V6.9834H6.02746V8.63994H3.93548ZM7.02193 11.2717C6.57964 11.2717 6.25546 11.3958 6.04943 11.644C5.84522 11.9059 5.74312 12.3358 5.74312 12.9338V17.7811C5.73633 18.0528 5.76449 18.3243 5.82691 18.5888C5.88084 18.7914 5.97421 18.9814 6.10164 19.1479C6.21543 19.2983 6.37495 19.4077 6.55627 19.4597C6.78414 19.5314 7.02206 19.5662 7.26094 19.5627H7.46835V11.2717H7.02193ZM7.04253 8.63994V6.9834H9.13587V8.63994H7.04253Z" fill="white"/>
<path d="M18.6645 19.5573V21.4007H16.9241V22.1671C16.876 22.6201 16.7717 23.0654 16.6137 23.4927C16.372 24.0533 15.9856 24.5396 15.4942 24.902L13.8171 23.8869C14.1233 23.689 14.3901 23.4361 14.6042 23.141C14.7842 22.8473 14.8842 22.5115 14.894 22.1671V21.4007C14.3829 21.4065 13.8737 21.3366 13.3831 21.1933C12.9183 21.0786 12.4894 20.8501 12.1349 20.5283C11.7805 20.2065 11.5118 19.8015 11.3529 19.3499C11.1449 18.7654 11.0466 18.1474 11.0631 17.5272V12.7004C11.0446 12.1958 11.1385 11.6933 11.3378 11.2293C11.4837 10.8716 11.7108 10.5527 12.0012 10.298C12.2808 10.0683 12.6049 9.89896 12.9531 9.80077C13.3067 9.71854 13.6684 9.67661 14.0314 9.67578H16.9516V19.5573H18.6645ZM14.4173 11.2719C13.9751 11.2719 13.6504 11.396 13.4435 11.6441C13.2375 11.9065 13.1331 12.3309 13.1331 12.9284V17.7758C13.1263 18.0475 13.1544 18.319 13.2168 18.5835C13.2708 18.7861 13.3641 18.976 13.4915 19.1425C13.6053 19.293 13.7649 19.4024 13.9462 19.4543C14.1741 19.5261 14.412 19.5609 14.6509 19.5573H14.8789V11.2719H14.4173Z" fill="white"/>
<path d="M31.5074 19.5573V21.4007H18.0628V19.5573H20.0284V11.3955H22.0888V19.5573H23.8744V10.526H25.9348V19.5573H27.7205V9.67578H29.7918V19.5573H31.5074Z" fill="white"/>
<path d="M30.8645 21.4012V19.5578H32.8329V4.66406H34.863V21.4012H30.8645Z" fill="white"/>
<path d="M36.1063 21.4012V4.66406H38.1598V21.4012H36.1063Z" fill="white"/>
<path d="M48.8243 19.5573V21.4007H47.1046V22.1671C47.0506 22.6212 46.9394 23.0666 46.7735 23.4927C46.5431 24.0541 46.163 24.5416 45.6747 24.902L43.9549 23.8869C44.2611 23.689 44.528 23.4361 44.742 23.141C44.939 22.854 45.047 22.5152 45.0524 22.1671V9.67578H47.1032V19.5573H48.8243Z" fill="white"/>
<path d="M54.2718 9.67578C54.6821 9.66555 55.0905 9.73602 55.4737 9.88318C55.8112 10.0083 56.1165 10.2072 56.3674 10.4652C56.6184 10.7233 56.8086 11.034 56.9242 11.3749C57.0527 11.7766 57.1157 12.1963 57.111 12.618V19.5573H58.8293V21.4007H48.2239V19.5573H51.787V15.3322C51.787 13.9229 51.5865 12.8936 51.1854 12.2444C50.7843 11.5951 50.2183 11.271 49.4876 11.2719V9.67578H54.2718ZM52.7609 11.2719C53.1421 11.8461 53.4162 12.4846 53.5699 13.1564C53.7717 14.0398 53.869 14.9439 53.8597 15.85V19.5587H55.0547V13.3226C55.0547 13.1427 55.0396 12.8872 55.0122 12.5562C54.9979 12.3335 54.942 12.1154 54.8473 11.9133C54.7536 11.7267 54.6188 11.5638 54.4531 11.4367C54.2366 11.3212 53.9937 11.2644 53.7485 11.2719H52.7609Z" fill="white"/>
<path d="M58.214 21.4007V19.5573H60.1603V11.3955H62.2317V19.5573H64.0174V10.526H66.0901V19.5573H67.8758V9.67578H69.9279V21.4007H58.214Z" fill="white"/>
</svg>
