<svg width="49" height="48" viewBox="0 0 49 48" fill="none" xmlns="http://www.w3.org/2000/svg">
<path d="M13.0463 20.9207C14.0962 20.9207 15.1474 20.8957 16.1973 20.9286C17.1212 20.957 17.8021 20.622 18.3305 19.8632C19.2698 18.4624 20.684 17.441 22.3172 16.9836C23.6822 16.5923 25.133 16.606 26.4902 17.0231C27.8474 17.4402 29.0515 18.2424 29.9535 19.3304C30.0475 19.4335 30.1333 19.5437 30.2103 19.6598C30.7903 20.6515 31.6591 20.9707 32.7985 20.9366C34.8503 20.8741 36.9067 20.9366 38.9596 20.9139C39.9634 20.9086 40.9263 20.5189 41.6467 19.8261C42.3672 19.1334 42.7893 18.1913 42.8248 17.1972C42.8408 16.7883 42.748 16.3725 42.6815 15.9636C42.5772 15.3275 42.6013 14.7277 42.9933 14.1723C43.9309 12.841 45.8738 12.9091 46.6453 14.3415C46.9538 14.9373 47.2059 15.5602 47.3984 16.2021C49.7791 23.7184 48.9275 30.8485 44.4754 37.3959C40.5208 43.2129 34.9225 46.6649 27.9086 47.7065C21.3509 48.6823 15.3227 47.2294 9.97889 43.3287C4.68779 39.4666 1.46796 34.2767 0.350368 27.8543C-0.429084 23.3743 0.106218 19.0169 1.81414 14.7993C1.88781 14.6051 1.97793 14.4173 2.08352 14.2382C2.33601 13.8164 2.73057 13.4964 3.19773 13.3345C3.66488 13.1726 4.17468 13.1793 4.63737 13.3533C5.62659 13.7361 6.22722 14.7232 6.03924 15.7217C5.90283 16.4498 5.75266 17.1586 5.94294 17.9117C6.37049 19.6076 7.84801 20.8571 9.61095 20.9071C10.7572 20.9389 11.9035 20.9127 13.0417 20.9127L13.0463 20.9207ZM13.0875 26.8899C12.0559 26.8899 11.0334 26.9081 10.0076 26.8899C6.83243 26.824 5.05 30.0625 6.36705 32.6239C7.8652 35.5398 9.87804 38.0206 12.5729 39.9153C13.5901 40.6501 14.6782 41.2833 15.8214 41.8055C18.4578 42.963 21.3108 41.0774 21.3348 38.2251C21.3532 36.0771 21.3348 33.928 21.3348 31.78C21.3348 31.0325 21.0574 30.4169 20.4373 29.9977C19.5691 29.4107 18.8186 28.6688 18.2239 27.81C17.7654 27.1443 17.1224 26.8649 16.3062 26.8842C15.2345 26.9092 14.1604 26.8899 13.0864 26.8899H13.0875ZM35.6424 26.8899C34.5695 26.8899 33.4954 26.9126 32.4237 26.8831C31.5525 26.8592 30.8843 27.1716 30.4051 27.8895C29.8762 28.6831 29.1898 29.3617 28.3877 29.8841C27.661 30.3601 27.3446 31.02 27.3561 31.8754C27.371 33.9552 27.3561 36.0339 27.3687 38.1126C27.3619 38.482 27.4004 38.8509 27.4834 39.2111C27.6251 39.7743 27.8927 40.2988 28.2665 40.7457C28.6403 41.1927 29.1106 41.5507 29.6428 41.7934C30.1749 42.036 30.7553 42.157 31.341 42.1475C31.9267 42.138 32.5028 41.9982 33.0266 41.7385C37.2288 39.7336 40.3718 36.6269 42.3858 32.4626C43.657 29.833 41.7427 26.916 38.7946 26.8967C37.7423 26.8842 36.6923 26.891 35.6424 26.891V26.8899ZM24.3632 20.3527C23.8889 20.341 23.4169 20.4228 22.9748 20.5935C22.5327 20.7641 22.1292 21.0201 21.7878 21.3467C21.4464 21.6732 21.1739 22.0638 20.9862 22.4956C20.7985 22.9275 20.6993 23.392 20.6943 23.8622C20.6894 24.3323 20.7788 24.7988 20.9574 25.2344C21.136 25.67 21.4002 26.0661 21.7347 26.3996C22.0692 26.7331 22.4672 26.9975 22.9056 27.1772C23.3441 27.3569 23.8143 27.4484 24.2887 27.4465C26.3187 27.4612 27.9247 25.9175 27.9373 23.9388C27.944 23.4698 27.8564 23.0042 27.6797 22.5691C27.503 22.134 27.2407 21.7381 26.908 21.4044C26.5754 21.0708 26.1791 20.806 25.7422 20.6257C25.3053 20.4453 24.8365 20.3529 24.3632 20.3539V20.3527Z" fill="#4044C9"/>
<path d="M12.2264 8.57054L15.1832 11.5131C15.3462 11.4054 15.6104 11.2324 15.8723 11.0548C21.7779 7.07862 29.8432 7.81312 34.9641 12.7873C35.5206 13.3282 35.9051 13.9447 35.7994 14.7582C35.687 15.6463 35.1935 16.2616 34.3638 16.5561C33.56 16.8426 32.8247 16.6844 32.2086 16.0725C30.6523 14.4991 28.6653 13.4425 26.5088 13.0417C22.9708 12.3794 19.7892 13.217 17.0101 15.5626C16.8515 15.6967 16.7031 15.8434 16.5502 15.9832C15.4901 16.948 14.3895 16.9354 13.3855 15.9304C12.4558 14.9977 11.5384 14.0524 10.6154 13.1128C9.69238 12.1731 8.7975 11.2106 7.8374 10.3077C6.57937 9.12056 6.72667 7.74552 7.91161 6.63174C11.5643 3.19987 15.8015 0.982614 20.7279 0.27676C28.3615 -0.816396 35.0338 1.3344 40.727 6.62944C40.8983 6.78398 41.058 6.95136 41.2048 7.13019C41.9603 8.0698 41.9097 9.2042 41.0845 10.0292C40.2593 10.8543 39.0609 10.8863 38.1671 10.1014C37.5623 9.56744 36.9844 8.99795 36.3537 8.49721C33.5641 6.26456 30.2199 4.86719 26.6954 4.46146C21.4755 3.83468 16.756 5.14898 12.5243 8.31157C12.4198 8.39293 12.322 8.48804 12.2264 8.57054Z" fill="#20BB74"/>
</svg>
