<svg width="37" height="19" viewBox="0 0 37 19" fill="none" xmlns="http://www.w3.org/2000/svg">
<g clip-path="url(#clip0_5_3236)">
<path d="M0.0614624 0.0625H36.9385V18.9367H0.0614624V0.0625Z" fill="#DB161B"/>
<path d="M9.28076 0.0625H36.9386V6.35389H9.28076V0.0625Z" fill="white"/>
<path d="M9.28076 12.6455H36.9386V18.9369H9.28076V12.6455Z" fill="#008000"/>
<path d="M2.18397 3.29102H3.17474C3.22932 3.29102 3.27357 3.33355 3.27357 3.38589V3.86366C3.27357 3.916 3.22932 3.95853 3.17474 3.95853H2.18397C2.1294 3.95853 2.08514 3.91613 2.08514 3.86366V3.38589C2.08527 3.33355 2.1294 3.29102 2.18397 3.29102Z" fill="white" stroke="#DB161B" stroke-width="0.142"/>
<path d="M2.20945 3.31934H3.14933C3.20108 3.31934 3.24312 3.35822 3.24312 3.40628V3.84416C3.24312 3.89223 3.2012 3.93111 3.14933 3.93111H2.20945C2.1577 3.93111 2.11566 3.89223 2.11566 3.84416V3.40628C2.11578 3.35822 2.1577 3.31934 2.20945 3.31934Z" fill="white" stroke="#DB161B" stroke-width="0.132"/>
<path d="M2.63989 3.48633L2.6968 3.48822L2.69938 3.51464L2.74597 3.53892L2.78223 3.50873L2.82611 3.53288L2.78481 3.55931L2.79514 3.5958L2.84689 3.59391V3.64261L2.80559 3.64034L2.78494 3.67092L2.83152 3.70552L2.79526 3.73383L2.75642 3.70326L2.6995 3.71559L2.70208 3.76026L2.64001 3.76428L2.63226 3.7215L2.58051 3.69923L2.552 3.7298L2.50799 3.70753L2.53393 3.67293L2.50283 3.65066H2.45882L2.45624 3.58775L2.50024 3.59177L2.53122 3.55528L2.49496 3.52697L2.54155 3.49426L2.5751 3.52068L2.63202 3.51275L2.63989 3.48633Z" fill="white" stroke="#DB161B" stroke-width="0.083"/>
<path d="M2.6571 3.74384C2.72499 3.74384 2.78003 3.68751 2.78003 3.61802C2.78003 3.54852 2.72499 3.49219 2.6571 3.49219C2.58921 3.49219 2.53418 3.54852 2.53418 3.61802C2.53418 3.68751 2.58921 3.74384 2.6571 3.74384Z" fill="white" stroke="#DB161B" stroke-width="0.5"/>
<path d="M2.26809 3.34668L2.17664 3.42998L2.26809 3.34668ZM2.32906 3.34668L2.23761 3.42998L2.32906 3.34668ZM2.38991 3.34668L2.29858 3.42998L2.38991 3.34668ZM2.45088 3.34668L2.35942 3.42998L2.45088 3.34668ZM2.51185 3.34668L2.42039 3.42998L2.51185 3.34668ZM2.5727 3.34668L2.48136 3.42998L2.5727 3.34668ZM2.63379 3.34668L2.54233 3.42998L2.63379 3.34668ZM2.69464 3.34668L2.60318 3.42998L2.69464 3.34668ZM2.75561 3.34668L2.66415 3.42998L2.75561 3.34668ZM2.81658 3.34668L2.72512 3.42998L2.81658 3.34668ZM2.87742 3.34668L2.78597 3.42998L2.87742 3.34668ZM2.93852 3.34668L2.84706 3.42998L2.93852 3.34668ZM2.69464 3.34668L2.60318 3.42998L2.69464 3.34668ZM2.99936 3.34668L2.90791 3.42998L2.99936 3.34668ZM3.06033 3.34668L2.96888 3.42998L3.06033 3.34668ZM3.1213 3.34668L3.02985 3.42998L3.1213 3.34668ZM3.18215 3.34668L3.0907 3.42998L3.18215 3.34668ZM3.09082 3.34668L3.18227 3.42998L3.09082 3.34668ZM3.02985 3.34668L3.1213 3.42998L3.02985 3.34668ZM2.96888 3.34668L3.06033 3.42998L2.96888 3.34668ZM2.90791 3.34668L2.99936 3.42998L2.90791 3.34668ZM2.84694 3.34668L2.93839 3.42998L2.84694 3.34668ZM2.78609 3.34668L2.87755 3.42998L2.78609 3.34668ZM2.72512 3.34668L2.81658 3.42998L2.72512 3.34668ZM2.66427 3.34668L2.75573 3.42998L2.66427 3.34668ZM2.60318 3.34668L2.69464 3.42998L2.60318 3.34668ZM2.54233 3.34668L2.63379 3.42998L2.54233 3.34668ZM2.48136 3.34668L2.57282 3.42998L2.48136 3.34668ZM2.42039 3.34668L2.51185 3.42998L2.42039 3.34668ZM2.66427 3.34668L2.75573 3.42998L2.66427 3.34668ZM2.35955 3.34668L2.451 3.42998L2.35955 3.34668ZM2.29858 3.34668L2.38991 3.42998L2.29858 3.34668ZM2.23761 3.34668L2.32906 3.42998L2.23761 3.34668ZM2.17664 3.34668L2.26809 3.42998L2.17664 3.34668ZM2.26809 3.81904L2.17664 3.90271L2.26809 3.81904ZM2.32906 3.81904L2.23761 3.90271L2.32906 3.81904ZM2.38991 3.81904L2.29858 3.90271L2.38991 3.81904ZM2.45088 3.81904L2.35942 3.90271L2.45088 3.81904ZM2.51185 3.81904L2.42039 3.90271L2.51185 3.81904ZM2.5727 3.81904L2.48136 3.90271L2.5727 3.81904ZM2.63379 3.81904L2.54233 3.90271L2.63379 3.81904ZM2.69464 3.81904L2.60318 3.90271L2.69464 3.81904ZM2.75561 3.81904L2.66415 3.90271L2.75561 3.81904ZM2.81658 3.81904L2.72512 3.90271L2.81658 3.81904ZM2.87742 3.81904L2.78597 3.90271L2.87742 3.81904ZM2.93852 3.81904L2.84706 3.90271L2.93852 3.81904ZM2.69464 3.81904L2.60318 3.90271L2.69464 3.81904ZM2.99936 3.81904L2.90791 3.90271L2.99936 3.81904ZM3.06033 3.81904L2.96888 3.90271L3.06033 3.81904ZM3.1213 3.81904L3.02985 3.90271L3.1213 3.81904ZM3.18215 3.81904L3.0907 3.90271L3.18215 3.81904ZM3.09082 3.81904L3.18227 3.90271L3.09082 3.81904ZM3.02985 3.81904L3.1213 3.90271L3.02985 3.81904ZM2.96888 3.81904L3.06033 3.90271L2.96888 3.81904ZM2.90791 3.81904L2.99936 3.90271L2.90791 3.81904ZM2.84694 3.81904L2.93839 3.90271L2.84694 3.81904ZM2.78609 3.81904L2.87755 3.90271L2.78609 3.81904ZM2.72512 3.81904L2.81658 3.90271L2.72512 3.81904ZM2.66427 3.81904L2.75573 3.90271L2.66427 3.81904ZM2.60318 3.81904L2.69464 3.90271L2.60318 3.81904ZM2.54233 3.81904L2.63379 3.90271L2.54233 3.81904ZM2.48136 3.81904L2.57282 3.90271L2.48136 3.81904ZM2.42039 3.81904L2.51185 3.90271L2.42039 3.81904ZM2.66427 3.81904L2.75573 3.90271L2.66427 3.81904ZM2.35955 3.81904L2.451 3.90271L2.35955 3.81904ZM2.29858 3.81904L2.38991 3.90271L2.29858 3.81904ZM2.23761 3.81904L2.32906 3.90271L2.23761 3.81904ZM2.17664 3.81904L2.26809 3.90271L2.17664 3.81904Z" fill="white"/>
<path d="M2.26809 3.34668L2.17664 3.42998M2.32906 3.34668L2.23761 3.42998M2.38991 3.34668L2.29858 3.42998M2.45088 3.34668L2.35942 3.42998M2.51185 3.34668L2.42039 3.42998M2.5727 3.34668L2.48136 3.42998M2.63379 3.34668L2.54233 3.42998M2.69464 3.34668L2.60318 3.42998M2.75561 3.34668L2.66415 3.42998M2.81658 3.34668L2.72512 3.42998M2.87742 3.34668L2.78597 3.42998M2.93852 3.34668L2.84706 3.42998M2.99936 3.34668L2.90791 3.42998M3.06033 3.34668L2.96888 3.42998M3.1213 3.34668L3.02985 3.42998M3.18215 3.34668L3.0907 3.42998M3.09082 3.34668L3.18227 3.42998M3.02985 3.34668L3.1213 3.42998M2.96888 3.34668L3.06033 3.42998M2.90791 3.34668L2.99936 3.42998M2.84694 3.34668L2.93839 3.42998M2.78609 3.34668L2.87755 3.42998M2.72512 3.34668L2.81658 3.42998M2.66427 3.34668L2.75573 3.42998M2.60318 3.34668L2.69464 3.42998M2.54233 3.34668L2.63379 3.42998M2.48136 3.34668L2.57282 3.42998M2.42039 3.34668L2.51185 3.42998M2.35955 3.34668L2.451 3.42998M2.29858 3.34668L2.38991 3.42998M2.23761 3.34668L2.32906 3.42998M2.17664 3.34668L2.26809 3.42998M2.26809 3.81904L2.17664 3.90271M2.32906 3.81904L2.23761 3.90271M2.38991 3.81904L2.29858 3.90271M2.45088 3.81904L2.35942 3.90271M2.51185 3.81904L2.42039 3.90271M2.5727 3.81904L2.48136 3.90271M2.63379 3.81904L2.54233 3.90271M2.69464 3.81904L2.60318 3.90271M2.75561 3.81904L2.66415 3.90271M2.81658 3.81904L2.72512 3.90271M2.87742 3.81904L2.78597 3.90271M2.93852 3.81904L2.84706 3.90271M2.99936 3.81904L2.90791 3.90271M3.06033 3.81904L2.96888 3.90271M3.1213 3.81904L3.02985 3.90271M3.18215 3.81904L3.0907 3.90271M3.09082 3.81904L3.18227 3.90271M3.02985 3.81904L3.1213 3.90271M2.96888 3.81904L3.06033 3.90271M2.90791 3.81904L2.99936 3.90271M2.84694 3.81904L2.93839 3.90271M2.78609 3.81904L2.87755 3.90271M2.72512 3.81904L2.81658 3.90271M2.66427 3.81904L2.75573 3.90271M2.60318 3.81904L2.69464 3.90271M2.54233 3.81904L2.63379 3.90271M2.48136 3.81904L2.57282 3.90271M2.42039 3.81904L2.51185 3.90271M2.35955 3.81904L2.451 3.90271M2.29858 3.81904L2.38991 3.90271M2.23761 3.81904L2.32906 3.90271M2.17664 3.81904L2.26809 3.90271" stroke="#DB161B" stroke-width="0.132"/>
<path d="M7.1582 3.29102H6.16743C6.11286 3.29102 6.0686 3.33355 6.0686 3.38589V3.86366C6.0686 3.916 6.11286 3.95853 6.16743 3.95853H7.1582C7.21278 3.95853 7.25703 3.91613 7.25703 3.86366V3.38589C7.25691 3.33355 7.21265 3.29102 7.1582 3.29102Z" fill="white" stroke="#DB161B" stroke-width="0.142"/>
<path d="M7.13279 3.31934H6.19291C6.14116 3.31934 6.09912 3.35822 6.09912 3.40628V3.84416C6.09912 3.89223 6.14116 3.93111 6.19291 3.93111H7.13279C7.18454 3.93111 7.22658 3.89223 7.22658 3.84416V3.40628C7.22658 3.35822 7.18454 3.31934 7.13279 3.31934Z" fill="white" stroke="#DB161B" stroke-width="0.132"/>
<path d="M6.7023 3.48633L6.64539 3.48822L6.64281 3.51464L6.59622 3.53892L6.55996 3.50873L6.51595 3.53288L6.55738 3.55931L6.54705 3.5958L6.4953 3.59391V3.64261L6.53673 3.64034L6.55738 3.67092L6.51079 3.70552L6.54693 3.73383L6.58577 3.70326L6.64269 3.71559L6.6401 3.76026L6.70218 3.76428L6.70992 3.7215L6.76168 3.69923L6.79007 3.7298L6.83408 3.70753L6.80826 3.67293L6.83924 3.65066H6.88325L6.88583 3.58775L6.84182 3.59177L6.81085 3.55528L6.84711 3.52697L6.80052 3.49426L6.76684 3.52068L6.70992 3.51275L6.7023 3.48633Z" fill="white" stroke="#DB161B" stroke-width="0.083"/>
<path d="M6.68506 3.74384C6.75295 3.74384 6.80798 3.68751 6.80798 3.61802C6.80798 3.54852 6.75295 3.49219 6.68506 3.49219C6.61717 3.49219 6.56213 3.54852 6.56213 3.61802C6.56213 3.68751 6.61717 3.74384 6.68506 3.74384Z" fill="white" stroke="#DB161B" stroke-width="0.5"/>
<path d="M7.07428 3.34668L7.16561 3.42998L7.07428 3.34668ZM7.01319 3.34668L7.10464 3.42998L7.01319 3.34668ZM6.95234 3.34668L7.04379 3.42998L6.95234 3.34668ZM6.89137 3.34668L6.9827 3.42998L6.89137 3.34668ZM6.8304 3.34668L6.92185 3.42998L6.8304 3.34668ZM6.76955 3.34668L6.86101 3.42998L6.76955 3.34668ZM6.70846 3.34668L6.79991 3.42998L6.70846 3.34668ZM6.64761 3.34668L6.73907 3.42998L6.64761 3.34668ZM6.58664 3.34668L6.6781 3.42998L6.58664 3.34668ZM6.52567 3.34668L6.61713 3.42998L6.52567 3.34668ZM6.46482 3.34668L6.55628 3.42998L6.46482 3.34668ZM6.40385 3.34668L6.49531 3.42998L6.40385 3.34668ZM6.64761 3.34668L6.73907 3.42998L6.64761 3.34668ZM6.34288 3.34668L6.43434 3.42998L6.34288 3.34668ZM6.28191 3.34668L6.37337 3.42998L6.28191 3.34668ZM6.22107 3.34668L6.31252 3.42998L6.22107 3.34668ZM6.1601 3.34668L6.25155 3.42998L6.1601 3.34668ZM6.25155 3.34668L6.1601 3.42998L6.25155 3.34668ZM6.3124 3.34668L6.22094 3.42998L6.3124 3.34668ZM6.37337 3.34668L6.28191 3.42998L6.37337 3.34668ZM6.43434 3.34668L6.34288 3.42998L6.43434 3.34668ZM6.49531 3.34668L6.40385 3.42998L6.49531 3.34668ZM6.55616 3.34668L6.4647 3.42998L6.55616 3.34668ZM6.61713 3.34668L6.52567 3.42998L6.61713 3.34668ZM6.6781 3.34668L6.58664 3.42998L6.6781 3.34668ZM6.73894 3.34668L6.64749 3.42998L6.73894 3.34668ZM6.80004 3.34668L6.70858 3.42998L6.80004 3.34668ZM6.86088 3.34668L6.76943 3.42998L6.86088 3.34668ZM6.92185 3.34668L6.8304 3.42998L6.92185 3.34668ZM6.6781 3.34668L6.58664 3.42998L6.6781 3.34668ZM6.9827 3.34668L6.89137 3.42998L6.9827 3.34668ZM7.04367 3.34668L6.95221 3.42998L7.04367 3.34668ZM7.10464 3.34668L7.01319 3.42998L7.10464 3.34668ZM7.16561 3.34668L7.07428 3.42998L7.16561 3.34668ZM7.07428 3.81904L7.16561 3.90271L7.07428 3.81904ZM7.01319 3.81904L7.10464 3.90271L7.01319 3.81904ZM6.95234 3.81904L7.04379 3.90271L6.95234 3.81904ZM6.89137 3.81904L6.9827 3.90271L6.89137 3.81904ZM6.8304 3.81904L6.92185 3.90271L6.8304 3.81904ZM6.76955 3.81904L6.86101 3.90271L6.76955 3.81904ZM6.70846 3.81904L6.79991 3.90271L6.70846 3.81904ZM6.64761 3.81904L6.73907 3.90271L6.64761 3.81904ZM6.58664 3.81904L6.6781 3.90271L6.58664 3.81904ZM6.52567 3.81904L6.61713 3.90271L6.52567 3.81904ZM6.46482 3.81904L6.55628 3.90271L6.46482 3.81904ZM6.40385 3.81904L6.49531 3.90271L6.40385 3.81904ZM6.64761 3.81904L6.73907 3.90271L6.64761 3.81904ZM6.34288 3.81904L6.43434 3.90271L6.34288 3.81904ZM6.28191 3.81904L6.37337 3.90271L6.28191 3.81904ZM6.22107 3.81904L6.31252 3.90271L6.22107 3.81904ZM6.1601 3.81904L6.25155 3.90271L6.1601 3.81904ZM6.25155 3.81904L6.1601 3.90271L6.25155 3.81904ZM6.3124 3.81904L6.22094 3.90271L6.3124 3.81904ZM6.37337 3.81904L6.28191 3.90271L6.37337 3.81904ZM6.43434 3.81904L6.34288 3.90271L6.43434 3.81904ZM6.49531 3.81904L6.40385 3.90271L6.49531 3.81904ZM6.55616 3.81904L6.4647 3.90271L6.55616 3.81904ZM6.61713 3.81904L6.52567 3.90271L6.61713 3.81904ZM6.6781 3.81904L6.58664 3.90271L6.6781 3.81904ZM6.73894 3.81904L6.64749 3.90271L6.73894 3.81904ZM6.80004 3.81904L6.70858 3.90271L6.80004 3.81904ZM6.86088 3.81904L6.76943 3.90271L6.86088 3.81904ZM6.92185 3.81904L6.8304 3.90271L6.92185 3.81904ZM6.6781 3.81904L6.58664 3.90271L6.6781 3.81904ZM6.9827 3.81904L6.89137 3.90271L6.9827 3.81904ZM7.04367 3.81904L6.95221 3.90271L7.04367 3.81904ZM7.10464 3.81904L7.01319 3.90271L7.10464 3.81904ZM7.16561 3.81904L7.07428 3.90271L7.16561 3.81904Z" fill="white"/>
<path d="M7.07428 3.34668L7.16561 3.42998M7.01319 3.34668L7.10464 3.42998M6.95234 3.34668L7.04379 3.42998M6.89137 3.34668L6.9827 3.42998M6.8304 3.34668L6.92185 3.42998M6.76955 3.34668L6.86101 3.42998M6.70846 3.34668L6.79991 3.42998M6.64761 3.34668L6.73907 3.42998M6.58664 3.34668L6.6781 3.42998M6.52567 3.34668L6.61713 3.42998M6.46482 3.34668L6.55628 3.42998M6.40385 3.34668L6.49531 3.42998M6.34288 3.34668L6.43434 3.42998M6.28191 3.34668L6.37337 3.42998M6.22107 3.34668L6.31252 3.42998M6.1601 3.34668L6.25155 3.42998M6.25155 3.34668L6.1601 3.42998M6.3124 3.34668L6.22094 3.42998M6.37337 3.34668L6.28191 3.42998M6.43434 3.34668L6.34288 3.42998M6.49531 3.34668L6.40385 3.42998M6.55616 3.34668L6.4647 3.42998M6.61713 3.34668L6.52567 3.42998M6.6781 3.34668L6.58664 3.42998M6.73894 3.34668L6.64749 3.42998M6.80004 3.34668L6.70858 3.42998M6.86088 3.34668L6.76943 3.42998M6.92185 3.34668L6.8304 3.42998M6.9827 3.34668L6.89137 3.42998M7.04367 3.34668L6.95221 3.42998M7.10464 3.34668L7.01319 3.42998M7.16561 3.34668L7.07428 3.42998M7.07428 3.81904L7.16561 3.90271M7.01319 3.81904L7.10464 3.90271M6.95234 3.81904L7.04379 3.90271M6.89137 3.81904L6.9827 3.90271M6.8304 3.81904L6.92185 3.90271M6.76955 3.81904L6.86101 3.90271M6.70846 3.81904L6.79991 3.90271M6.64761 3.81904L6.73907 3.90271M6.58664 3.81904L6.6781 3.90271M6.52567 3.81904L6.61713 3.90271M6.46482 3.81904L6.55628 3.90271M6.40385 3.81904L6.49531 3.90271M6.34288 3.81904L6.43434 3.90271M6.28191 3.81904L6.37337 3.90271M6.22107 3.81904L6.31252 3.90271M6.1601 3.81904L6.25155 3.90271M6.25155 3.81904L6.1601 3.90271M6.3124 3.81904L6.22094 3.90271M6.37337 3.81904L6.28191 3.90271M6.43434 3.81904L6.34288 3.90271M6.49531 3.81904L6.40385 3.90271M6.55616 3.81904L6.4647 3.90271M6.61713 3.81904L6.52567 3.90271M6.6781 3.81904L6.58664 3.90271M6.73894 3.81904L6.64749 3.90271M6.80004 3.81904L6.70858 3.90271M6.86088 3.81904L6.76943 3.90271M6.92185 3.81904L6.8304 3.90271M6.9827 3.81904L6.89137 3.90271M7.04367 3.81904L6.95221 3.90271M7.10464 3.81904L7.01319 3.90271M7.16561 3.81904L7.07428 3.90271" stroke="#DB161B" stroke-width="0.132"/>
<path d="M3.94928 4.6904C2.47075 6.17039 1.83991 6.35762 2.13603 6.47691C2.43203 6.59619 3.3842 5.83229 4.37496 4.81749C5.36573 3.80294 5.97236 2.9 5.67636 2.78072C5.38036 2.66143 5.52172 3.11617 3.94928 4.6904Z" fill="white" stroke="#DB161B" stroke-width="0.212"/>
<path d="M2.70454 5.76562L3.22241 5.90466C2.73502 6.37753 2.18654 6.57218 2.03423 6.48888C1.88193 6.40559 2.30848 6.2108 2.70454 5.76562Z" fill="white" stroke="#DB161B" stroke-width="0.165"/>
<path d="M2.70455 5.82129L3.13109 5.93265C2.65624 6.38726 2.18655 6.51649 2.06498 6.46112C1.94279 6.40551 2.31869 6.2491 2.70455 5.82129Z" fill="white" stroke="#DB161B" stroke-width="0.165"/>
<path d="M4.2958 4.62598C4.29457 4.63327 4.29113 4.66498 4.28805 4.67757C4.28805 4.69518 4.28621 4.70839 4.28436 4.72223C4.27945 4.73419 4.28031 4.74514 4.26531 4.74967C4.25824 4.76099 4.24762 4.76951 4.23519 4.77382C4.22338 4.78227 4.21058 4.78916 4.19709 4.79433C4.18266 4.79996 4.16695 4.80118 4.15185 4.79786C4.13833 4.7893 4.12874 4.78087 4.1178 4.77395C4.1151 4.763 4.11289 4.7469 4.11006 4.7362C4.11399 4.74727 4.11719 4.76489 4.1178 4.78062C4.1162 4.79798 4.11006 4.80553 4.10268 4.81837M4.15579 4.85599L4.1521 4.85247C4.16107 4.86065 4.15726 4.85687 4.13673 4.84592C4.12105 4.839 4.1045 4.83434 4.08756 4.83208H4.03471C4.01418 4.83208 4.00029 4.83485 3.98554 4.839C3.97484 4.84869 3.95886 4.8541 3.94768 4.86291C3.93765 4.86959 3.92975 4.87913 3.92494 4.89034C3.91449 4.89978 3.90773 4.91425 3.89826 4.92155C3.8942 4.93727 3.88535 4.93665 3.87958 4.94898C3.8974 4.95023 3.91178 4.95237 3.921 4.96244C3.93698 4.96999 3.90785 4.95527 3.9022 4.94898C3.88966 4.94545 3.88658 4.94206 3.86815 4.94206C3.85094 4.93702 3.84049 4.94608 3.82266 4.94898C3.81246 4.95426 3.80951 4.9559 3.79623 4.9559M3.95136 5.02774C3.94362 5.028 3.90834 5.03404 3.89457 5.02774C3.88058 5.02439 3.86836 5.01571 3.8604 5.00346C3.85573 4.9944 3.8604 5.0202 3.8604 5.03114C3.85893 5.05127 3.85217 5.05153 3.84172 5.06537C3.83065 5.07166 3.81898 5.08084 3.80767 5.08575C3.79722 5.09328 3.78569 5.0991 3.77349 5.10299C3.76218 5.10777 3.74866 5.1128 3.73944 5.11998C3.72678 5.12816 3.72801 5.13822 3.72076 5.1508C3.72199 5.16779 3.72506 5.17723 3.73576 5.18541C3.74006 5.19673 3.75026 5.20843 3.7585 5.21624C3.76772 5.23196 3.77817 5.23914 3.75456 5.24367C3.74166 5.2487 3.73453 5.24455 3.72076 5.24367M3.71289 5.2677C3.69374 5.26271 3.67475 5.25704 3.65598 5.25071H3.60312C3.58259 5.25197 3.57854 5.25763 3.56133 5.26418C3.55158 5.2744 3.54002 5.28264 3.52728 5.28846C3.51929 5.2979 3.50331 5.31388 3.49716 5.32621C3.49196 5.34049 3.48933 5.35563 3.48942 5.37088C3.48966 5.39063 3.49556 5.39416 3.49716 5.41202C3.50146 5.42649 3.50822 5.44008 3.5199 5.45292C3.5215 5.45732 3.52261 5.45858 3.52728 5.45984M3.53256 5.50488C3.53109 5.50488 3.52728 5.51369 3.52187 5.52124C3.50982 5.53382 3.50835 5.5347 3.48954 5.5347C3.47295 5.53408 3.47442 5.52816 3.46287 5.52363C3.45733 5.5152 3.4502 5.50828 3.44418 5.49658C3.43988 5.48966 3.43582 5.47859 3.43066 5.47229C3.42574 5.46412 3.4196 5.4582 3.41443 5.45065C3.40952 5.44839 3.40767 5.44625 3.40128 5.44537C3.41665 5.44788 3.41788 5.45329 3.42796 5.46135C3.43263 5.46927 3.43754 5.47708 3.44148 5.48588C3.44295 5.49759 3.44664 5.50665 3.44664 5.52112C3.44664 5.53584 3.44664 5.54653 3.44148 5.55886C3.43496 5.56578 3.43041 5.57271 3.42267 5.57812C3.41566 5.5846 3.40928 5.59177 3.40362 5.59951C3.39538 5.60479 3.38911 5.60932 3.37965 5.61586C3.37141 5.62052 3.36281 5.62555 3.35015 5.62681C3.33417 5.62555 3.32949 5.62115 3.31782 5.61586C3.30761 5.60831 3.29975 5.60353 3.29077 5.59699C3.28338 5.59089 3.27703 5.58357 3.27197 5.57535C3.25758 5.57157 3.24836 5.57308 3.23976 5.58063C3.23244 5.58572 3.22606 5.59211 3.22095 5.59951C3.2164 5.60177 3.20927 5.60831 3.20473 5.61058M3.23656 5.61687C3.24087 5.61876 3.25623 5.62983 3.26324 5.63386C3.26754 5.64808 3.2743 5.65588 3.27639 5.67098C3.28008 5.6857 3.27983 5.7018 3.27983 5.71841C3.27615 5.73565 3.26902 5.74836 3.26324 5.76208C3.25254 5.76963 3.24726 5.77466 3.23312 5.78259C3.21876 5.78485 3.20426 5.78603 3.18973 5.78611C3.17928 5.78951 3.15961 5.79114 3.14953 5.78611C3.13478 5.78384 3.1236 5.77793 3.11278 5.77252C3.10036 5.76535 3.09287 5.75868 3.07934 5.75214C3.07283 5.74232 3.06263 5.73364 3.05267 5.72156C3.04443 5.71023 3.03829 5.70394 3.03263 5.69136C3.03755 5.70583 3.04505 5.71841 3.04935 5.732C3.05697 5.74622 3.0614 5.75151 3.06263 5.76912C3.0673 5.78334 3.06595 5.80033 3.06595 5.81631C3.06447 5.82738 3.06373 5.84814 3.05918 5.85695V5.86739M2.74253 5.921V5.92603C2.74253 5.91282 2.74217 5.91949 2.74782 5.94553C2.75802 5.95723 2.78175 5.96025 2.80166 5.95535C2.81912 5.94239 2.8185 5.93232 2.85009 5.92603C2.88058 5.92792 2.89213 5.9361 2.90922 5.94553C2.9295 5.95472 2.93872 5.95937 2.95224 5.97976C2.95888 5.99649 2.96257 6.00782 2.94155 6.01411C2.92353 6.02514 2.90333 6.0319 2.88242 6.03386C2.85759 6.03386 2.83964 6.03097 2.82858 6.04355C2.81149 6.05953 2.81248 6.06935 2.81248 6.09728C2.8067 6.10609 2.80559 6.13188 2.80178 6.1417C2.78664 6.14889 2.77002 6.15221 2.75335 6.15139C2.74757 6.13629 2.74106 6.10898 2.73725 6.09263C2.73307 6.07501 2.73172 6.05047 2.72114 6.03852C2.71081 6.0248 2.69805 6.01319 2.68353 6.00429C2.67477 5.9948 2.66356 5.98804 2.6512 5.98479C2.67234 5.99461 2.67529 6.0053 2.67812 6.02883C2.65956 6.03726 2.65464 6.0433 2.62428 6.04355C2.59453 6.04129 2.5874 6.03437 2.57597 6.01902C2.57388 6.04355 2.56528 6.05173 2.55987 6.07312C2.54881 6.08784 2.54414 6.10307 2.53295 6.12182C2.53774 6.14572 2.54795 6.14673 2.54905 6.17592C2.55606 6.19518 2.55532 6.21342 2.57056 6.225C2.57745 6.23255 2.58249 6.23418 2.59748 6.23469C2.56638 6.23469 2.54819 6.23154 2.52766 6.21996C2.51168 6.21116 2.49964 6.19983 2.48464 6.19065C2.46485 6.17732 2.44311 6.16734 2.42023 6.16108C2.3954 6.16108 2.37745 6.15856 2.36639 6.17076C2.35127 6.18083 2.34094 6.19782 2.33418 6.21984C2.32926 6.24525 2.3273 6.26224 2.33959 6.27873C2.34869 6.29785 2.35078 6.30515 2.33959 6.3278C2.32705 6.34378 2.30849 6.34579 2.28046 6.35233C2.26217 6.35149 2.24407 6.34819 2.22662 6.34252" stroke="#DB161B" stroke-width="0.165"/>
<path d="M5.63643 3.35443C6.29247 2.19492 6.72799 1.20843 6.60814 1.15194C6.48854 1.09557 5.85929 1.99083 5.20312 3.15008L5.63643 3.35443Z" fill="white" stroke="#DB161B" stroke-width="0.168"/>
<path d="M5.59304 3.33416C6.22573 2.21567 6.66186 1.27146 6.56623 1.22629C6.4706 1.18112 5.87946 2.05222 5.24628 3.17071" fill="white"/>
<path d="M5.59304 3.33416C6.22573 2.21567 6.66186 1.27146 6.56623 1.22629C6.4706 1.18112 5.87946 2.05222 5.24628 3.17071" stroke="#DB161B" stroke-width="0.147"/>
<path d="M5.48426 2.75098C5.40718 2.88171 5.32568 3.0312 5.2464 3.17099L5.59304 3.33444C5.67208 3.19452 5.75838 3.0473 5.83065 2.9143L5.48426 2.75098Z" fill="white" stroke="#DB161B" stroke-width="0.167"/>
<path d="M5.51348 2.7959C5.43665 2.92663 5.38281 3.02667 5.30389 3.16646L5.56351 3.28889C5.64279 3.1491 5.70118 3.0512 5.77346 2.91833L5.51348 2.7959Z" fill="white" stroke="#DB161B" stroke-width="0.167"/>
<path d="M5.70192 2.9469L5.52872 2.86523L5.37494 3.13702L5.54814 3.21868L5.70192 2.9469Z" fill="white" stroke="#DB161B" stroke-width="0.168"/>
<path d="M5.70204 2.94769L5.37506 3.13781L5.70204 2.94769ZM5.54814 3.21935L5.52884 2.8659L5.54814 3.21935ZM6.48518 1.56408L6.31186 1.48242L6.48518 1.56408Z" fill="white"/>
<path d="M5.70204 2.94769L5.37506 3.13781M5.54814 3.21935L5.52884 2.8659M6.48518 1.56408L6.31186 1.48242" stroke="#DB161B" stroke-width="0.167"/>
<path d="M6.59529 1.35751C6.5784 1.2902 6.5114 1.24966 6.44565 1.26694C6.3799 1.28423 6.34028 1.35281 6.35717 1.42012C6.37406 1.48743 6.44106 1.52798 6.50681 1.51069C6.57257 1.4934 6.61218 1.42482 6.59529 1.35751Z" fill="#DB161B" stroke="#DB161B" stroke-width="0.5"/>
<path d="M5.39304 4.6904C6.87156 6.17039 7.50229 6.35762 7.20629 6.47691C6.91029 6.59619 5.95812 5.83229 4.96736 4.81749C3.97659 3.80294 3.36996 2.9 3.66596 2.78072C3.96196 2.66143 3.82048 3.11617 5.39304 4.6904Z" fill="white" stroke="#DB161B" stroke-width="0.212"/>
<path d="M6.63763 5.76562L6.11975 5.90466C6.60714 6.37753 7.15563 6.57218 7.30805 6.48888C7.46036 6.40559 7.03369 6.2108 6.63763 5.76562Z" fill="white" stroke="#DB161B" stroke-width="0.165"/>
<path d="M6.6376 5.82129L6.21106 5.93265C6.68591 6.38726 7.1556 6.51649 7.27718 6.46112C7.39936 6.40551 7.02346 6.2491 6.6376 5.82129Z" fill="white" stroke="#DB161B" stroke-width="0.165"/>
<path d="M5.04626 4.62598C5.04749 4.63327 5.05094 4.66498 5.05401 4.67757C5.05401 4.69518 5.05585 4.70839 5.0577 4.72223C5.06261 4.73419 5.06163 4.74514 5.07675 4.74967C5.08382 4.76099 5.09444 4.76951 5.10687 4.77382C5.11609 4.78112 5.13022 4.78829 5.14497 4.79433C5.15936 4.79993 5.17503 4.80116 5.19009 4.79786C5.20361 4.7893 5.2132 4.78087 5.22426 4.77395C5.22696 4.763 5.22918 4.7469 5.232 4.7362C5.22743 4.75057 5.22482 4.76552 5.22426 4.78062C5.22573 4.79798 5.232 4.80553 5.23938 4.81837M5.18652 4.85599L5.19021 4.85247C5.18136 4.86065 5.18505 4.85687 5.20557 4.84592C5.22008 4.839 5.23569 4.83523 5.25474 4.83208H5.3076C5.32813 4.83208 5.34202 4.83485 5.35677 4.839C5.36759 4.84869 5.38357 4.8541 5.39463 4.86291C5.40466 4.86959 5.41256 4.87913 5.41737 4.89034C5.42782 4.89978 5.43458 4.91425 5.44417 4.92155C5.4481 4.93727 5.45708 4.93665 5.46285 4.94898C5.44503 4.95023 5.43052 4.95237 5.42143 4.96244C5.40545 4.96999 5.43458 4.95527 5.44011 4.94898C5.45265 4.94545 5.45572 4.94206 5.47416 4.94206C5.49137 4.93702 5.50182 4.94608 5.51964 4.94898C5.52985 4.95426 5.5328 4.9559 5.54607 4.9559M5.39082 5.02774C5.39856 5.028 5.43384 5.03404 5.44761 5.02774C5.46298 5.02397 5.4722 5.01642 5.48166 5.00346C5.48633 4.9944 5.48166 5.0202 5.48166 5.03114C5.48326 5.05127 5.49002 5.05153 5.50047 5.06537C5.51153 5.07166 5.52321 5.08084 5.53452 5.08575C5.54411 5.0933 5.55566 5.09833 5.56857 5.10299C5.58 5.10777 5.59352 5.1128 5.60274 5.11998C5.61528 5.12816 5.61405 5.13822 5.62142 5.1508C5.6202 5.16779 5.61712 5.17723 5.6063 5.18541C5.60088 5.19718 5.59314 5.20767 5.58356 5.21624C5.57434 5.23196 5.5639 5.23914 5.58762 5.24367C5.60053 5.2487 5.60766 5.24455 5.62142 5.24367M5.62929 5.2677C5.64844 5.26282 5.66738 5.25715 5.68608 5.25071H5.73894C5.75947 5.25197 5.76352 5.25763 5.78073 5.26418C5.79049 5.2744 5.80204 5.28264 5.81478 5.28846C5.82277 5.2979 5.83875 5.31388 5.8449 5.32621C5.8501 5.34049 5.85273 5.35563 5.85264 5.37088C5.8524 5.39063 5.8465 5.39416 5.8449 5.41202C5.84058 5.4273 5.83279 5.44132 5.82216 5.45292C5.82068 5.45732 5.81945 5.45858 5.81478 5.45984M5.80962 5.50488C5.81122 5.50488 5.81478 5.51369 5.82044 5.52124C5.83236 5.53382 5.83396 5.5347 5.85264 5.5347C5.86924 5.53408 5.86776 5.52816 5.87944 5.52363C5.88497 5.5152 5.8921 5.50828 5.89813 5.49658C5.90243 5.48966 5.90636 5.47859 5.91165 5.47229C5.91656 5.46412 5.92271 5.4582 5.928 5.45065C5.93291 5.44839 5.93476 5.44625 5.94115 5.44537C5.92578 5.44788 5.92455 5.45329 5.91435 5.46135C5.90968 5.46927 5.90489 5.47708 5.90083 5.48588C5.89923 5.49759 5.89567 5.50665 5.89567 5.52112C5.89468 5.53393 5.89644 5.54682 5.90083 5.55886C5.90734 5.56578 5.91189 5.57271 5.91951 5.57812C5.92603 5.58416 5.93365 5.59233 5.93857 5.59951C5.9468 5.60479 5.95295 5.60932 5.96254 5.61586C5.97077 5.62052 5.9795 5.62555 5.99204 5.62681C6.00802 5.62555 6.01269 5.62115 6.02424 5.61586C6.03445 5.60831 6.04231 5.60353 6.05129 5.59699C6.05864 5.59088 6.06495 5.58356 6.06997 5.57535C6.08448 5.57157 6.09357 5.57308 6.1023 5.58063C6.10968 5.58567 6.11607 5.59233 6.12099 5.59951C6.12566 5.60177 6.13266 5.60831 6.13721 5.61058M6.10562 5.61687C6.10132 5.61876 6.08595 5.62983 6.07882 5.63386C6.07452 5.64808 6.06776 5.65588 6.06567 5.67098C6.06198 5.6857 6.06235 5.7018 6.06235 5.71841C6.06604 5.73565 6.07305 5.74836 6.07895 5.76208C6.08976 5.76963 6.09493 5.77466 6.10906 5.78259C6.12222 5.78447 6.13549 5.78611 6.15245 5.78611C6.1629 5.78951 6.18257 5.79114 6.19277 5.78611C6.20752 5.78384 6.21859 5.77793 6.2294 5.77252C6.24182 5.76535 6.24932 5.75868 6.26284 5.75214C6.26935 5.74232 6.27956 5.73364 6.28951 5.72156C6.29787 5.71023 6.30402 5.70394 6.30967 5.69136C6.30463 5.70583 6.29714 5.71841 6.29296 5.732C6.28533 5.74622 6.28091 5.75151 6.27956 5.76912C6.27489 5.78334 6.27624 5.80033 6.27624 5.81631C6.27771 5.82738 6.27857 5.84814 6.283 5.85695V5.86739M6.59977 5.921V5.92603C6.59977 5.91282 6.60002 5.91949 6.59436 5.94553C6.58416 5.95723 6.56044 5.96025 6.54065 5.95535C6.52319 5.94239 6.52381 5.93232 6.49221 5.92603C6.46173 5.92792 6.45018 5.9361 6.43309 5.94553C6.41281 5.95472 6.40346 5.95937 6.39007 5.97976C6.38343 5.99649 6.37974 6.00782 6.40088 6.01411C6.41772 6.02506 6.43764 6.0311 6.46001 6.03386C6.48484 6.03386 6.50266 6.03097 6.51373 6.04355C6.53081 6.05953 6.52983 6.06935 6.52983 6.09728C6.53548 6.10609 6.53671 6.13188 6.54052 6.1417C6.55552 6.14799 6.56425 6.15139 6.58896 6.15139C6.59473 6.13629 6.60113 6.10898 6.60506 6.09263C6.60936 6.07501 6.61059 6.05047 6.62116 6.03852C6.63124 6.02531 6.64403 6.01335 6.65878 6.00429C6.66746 5.99477 6.67864 5.988 6.69098 5.98479C6.66996 5.99461 6.66689 6.0053 6.66419 6.02883C6.68262 6.03726 6.68766 6.0433 6.7179 6.04355C6.74765 6.04129 6.75478 6.03437 6.76633 6.01902C6.76842 6.04355 6.77703 6.05173 6.78244 6.07312C6.7935 6.08784 6.79817 6.10307 6.80936 6.12182C6.80456 6.14572 6.79436 6.14673 6.79326 6.17592C6.78625 6.19518 6.78711 6.21342 6.77187 6.225C6.76498 6.23255 6.75994 6.23418 6.74495 6.23469C6.77605 6.23469 6.79412 6.23154 6.81477 6.21996C6.83075 6.21116 6.84279 6.19983 6.85779 6.19065C6.87684 6.17806 6.90032 6.16649 6.92232 6.16108C6.94716 6.16108 6.96498 6.15856 6.97604 6.17076C6.99128 6.18083 7.00149 6.19782 7.00825 6.21984C7.01329 6.24525 7.01513 6.26224 7.00296 6.27873C6.99387 6.29785 6.99178 6.30515 7.00296 6.3278C7.0155 6.34378 7.03406 6.34579 7.06209 6.35233C7.08262 6.35133 7.10229 6.3473 7.11581 6.34252" stroke="#DB161B" stroke-width="0.165"/>
<path d="M3.70591 3.35443C3.04986 2.19492 2.61435 1.20843 2.7342 1.15194C2.8538 1.09557 3.48317 1.99083 4.13921 3.15008L3.70591 3.35443Z" fill="white" stroke="#DB161B" stroke-width="0.168"/>
<path d="M3.74916 3.33415C3.11647 2.21567 2.68034 1.27145 2.77597 1.22628C2.87148 1.18123 3.46275 2.05221 4.0958 3.1707" fill="white"/>
<path d="M3.74916 3.33415C3.11647 2.21567 2.68034 1.27145 2.77597 1.22628C2.87148 1.18123 3.46275 2.05221 4.0958 3.1707" stroke="#DB161B" stroke-width="0.147"/>
<path d="M3.85793 2.75098C3.93501 2.88171 4.01651 3.0312 4.09579 3.17099L3.74915 3.33444C3.67011 3.19452 3.58381 3.0473 3.51154 2.9143L3.85793 2.75098Z" fill="white" stroke="#DB161B" stroke-width="0.167"/>
<path d="M3.82883 2.7959C3.90566 2.92663 3.9595 3.02667 4.03842 3.16646L3.77868 3.28889C3.69939 3.1491 3.641 3.0512 3.56873 2.91833L3.82883 2.7959Z" fill="white" stroke="#DB161B" stroke-width="0.167"/>
<path d="M3.64026 2.9469L3.81346 2.86523L3.96736 3.13702L3.79404 3.21868L3.64026 2.9469Z" fill="white" stroke="#DB161B" stroke-width="0.168"/>
<path d="M3.64014 2.94769L3.96712 3.13781L3.64014 2.94769ZM3.79404 3.21935L3.81346 2.8659L3.79404 3.21935ZM2.85699 1.56408L3.03032 1.48242L2.85699 1.56408Z" fill="white"/>
<path d="M3.64014 2.94769L3.96712 3.13781M3.79404 3.21935L3.81346 2.8659M2.85699 1.56408L3.03032 1.48242" stroke="#DB161B" stroke-width="0.167"/>
<path d="M2.98688 1.42333C3.00381 1.35604 2.96424 1.28743 2.89849 1.2701C2.83275 1.25277 2.76573 1.29327 2.7488 1.36057C2.73187 1.42787 2.77144 1.49647 2.83718 1.5138C2.90292 1.53113 2.96994 1.49063 2.98688 1.42333Z" fill="#DB161B" stroke="#DB161B" stroke-width="0.5"/>
<path d="M4.21809 2.73535C4.21809 3.70876 4.22363 4.07542 4.15356 4.12587C4.08718 4.1796 2.23755 4.12587 2.23755 4.40395C2.23755 4.68203 3.76119 4.96011 4.21809 4.96011C4.82747 4.96011 5.13219 4.68203 5.13228 4.12587V2.73535H4.21809Z" fill="white" stroke="#DB161B" stroke-width="0.153"/>
<path d="M4.21814 3.01331V3.15235C4.52118 3.19881 4.82929 3.19881 5.13232 3.15235V3.01331C4.82929 3.05977 4.52118 3.05977 4.21814 3.01331ZM4.21814 2.73535V2.87439C4.52291 2.9207 4.82764 2.9207 5.13232 2.87439V2.73535C4.82927 2.78163 4.52119 2.78163 4.21814 2.73535Z" fill="white" stroke="#DB161B" stroke-width="0.132"/>
<path d="M4.21814 2.87402V3.01306C4.52118 3.05953 4.82929 3.05953 5.13232 3.01306V2.87402C4.82929 2.92049 4.52118 2.92049 4.21814 2.87402ZM4.21814 3.1521V3.29114C4.52291 3.33745 4.82764 3.33745 5.13232 3.29114V3.1521C4.82929 3.19857 4.52118 3.19857 4.21814 3.1521Z" fill="white" stroke="#DB161B" stroke-width="0.132"/>
<path d="M4.25964 3.0788C4.32753 3.0788 4.38257 3.02247 4.38257 2.95298C4.38257 2.88348 4.32753 2.82715 4.25964 2.82715C4.19175 2.82715 4.13672 2.88348 4.13672 2.95298C4.13672 3.02247 4.19175 3.0788 4.25964 3.0788Z" fill="white" stroke="#DB161B" stroke-width="2.231"/>
<path d="M4.42584 3.09443C4.49373 3.09443 4.54876 3.03809 4.54876 2.9686C4.54876 2.89911 4.49373 2.84277 4.42584 2.84277C4.35795 2.84277 4.30292 2.89911 4.30292 2.9686C4.30292 3.03809 4.35795 3.09443 4.42584 3.09443Z" fill="white" stroke="#DB161B" stroke-width="2.231"/>
<path d="M4.59216 3.10908C4.66005 3.10908 4.71509 3.05274 4.71509 2.98325C4.71509 2.91376 4.66005 2.85742 4.59216 2.85742C4.52427 2.85742 4.46924 2.91376 4.46924 2.98325C4.46924 3.05274 4.52427 3.10908 4.59216 3.10908Z" fill="white" stroke="#DB161B" stroke-width="2.232"/>
<path d="M4.75836 3.10908C4.82625 3.10908 4.88128 3.05274 4.88128 2.98325C4.88128 2.91376 4.82625 2.85742 4.75836 2.85742C4.69047 2.85742 4.63544 2.91376 4.63544 2.98325C4.63544 3.05274 4.69047 3.10908 4.75836 3.10908Z" fill="white" stroke="#DB161B" stroke-width="2.232"/>
<path d="M4.92444 3.09443C4.99233 3.09443 5.04736 3.03809 5.04736 2.9686C5.04736 2.89911 4.99233 2.84277 4.92444 2.84277C4.85655 2.84277 4.80151 2.89911 4.80151 2.9686C4.80151 3.03809 4.85655 3.09443 4.92444 3.09443Z" fill="white" stroke="#DB161B" stroke-width="2.231"/>
<path d="M5.09076 3.0788C5.15865 3.0788 5.21368 3.02247 5.21368 2.95298C5.21368 2.88348 5.15865 2.82715 5.09076 2.82715C5.02287 2.82715 4.96783 2.88348 4.96783 2.95298C4.96783 3.02247 5.02287 3.0788 5.09076 3.0788Z" fill="white" stroke="#DB161B" stroke-width="2.231"/>
<path d="M4.2181 3.43006L5.13228 4.181L4.2181 3.43006ZM4.30943 3.43006L5.13241 4.09732L4.30943 3.43006ZM4.43137 3.45774L5.13241 4.0139L4.43137 3.45774ZM4.52295 3.45774L5.13241 3.93047L4.52295 3.45774ZM4.61428 3.45774L5.13241 3.84717L4.61428 3.45774ZM4.70549 3.45774L5.13241 3.76375L4.70549 3.45774ZM4.79707 3.45774L5.13241 3.68008L4.79707 3.45774ZM4.8884 3.45774L5.13241 3.62471L4.8884 3.45774ZM4.97986 3.45774L5.13228 3.5691L4.97986 3.45774ZM5.07119 3.45774L5.13241 3.51335L5.07119 3.45774ZM4.2181 3.51335L5.13228 4.26429L4.2181 3.51335ZM5.13241 3.43006L4.12689 4.26429L5.13241 3.43006ZM5.04083 3.43006L4.15726 4.15294L5.04083 3.43006ZM4.91914 3.45774L4.2181 4.0139L4.91914 3.45774ZM4.82756 3.45774L4.21823 3.93047L4.82756 3.45774ZM4.73623 3.45774L4.2181 3.84717L4.73623 3.45774ZM4.64465 3.45774L4.2181 3.76375L4.64465 3.45774ZM4.55344 3.45774L4.2181 3.68008L4.55344 3.45774ZM4.46186 3.45774L4.21823 3.62471L4.46186 3.45774ZM4.37053 3.45774L4.2181 3.5691L4.37053 3.45774ZM4.27895 3.45774L4.2181 3.51335L4.27895 3.45774ZM5.13241 3.51335L4.12689 4.34759L5.13241 3.51335ZM5.13241 3.59678L4.12689 4.43102L5.13241 3.59678ZM5.13241 3.68008L4.12689 4.51469L5.13241 3.68008ZM5.13241 3.76375L4.12689 4.59799L5.13241 3.76375ZM5.13241 3.84717L4.12689 4.68141L5.13241 3.84717ZM5.13241 3.93047L4.12689 4.76471L5.13241 3.93047ZM5.13241 4.0139L4.12689 4.84813L5.13241 4.0139ZM5.13241 4.09757L4.12689 4.93181L5.13241 4.09757ZM5.13241 4.18087L4.18774 4.95949L5.13241 4.18087ZM5.13228 4.26429L4.27907 4.95949L5.13228 4.26429ZM5.10168 4.37565L4.43137 4.93181L5.10168 4.37565ZM5.07119 4.48676L4.52295 4.93181L5.07119 4.48676ZM5.01034 4.6258L4.73623 4.84813L5.01034 4.6258ZM4.2181 3.59678L5.10155 4.31991L4.2181 3.59678ZM4.2181 3.68008L5.10168 4.40333L4.2181 3.68008ZM4.2181 3.76375L5.07119 4.45895L4.2181 3.76375ZM4.2181 3.84717L5.07119 4.54237L4.2181 3.84717ZM4.2181 3.93047L5.04071 4.59799L4.2181 3.93047ZM4.18774 3.98621L5.01034 4.65373L4.18774 3.98621ZM4.18774 4.06951L4.9495 4.68141L4.18774 4.06951ZM4.15726 4.12525L4.91914 4.73715L4.15726 4.12525ZM4.12677 4.18087L4.85792 4.76471L4.12677 4.18087ZM4.12677 4.26429L4.82743 4.82045L4.12677 4.26429ZM4.12677 4.34759L4.73623 4.84813L4.12677 4.34759ZM4.2181 3.29102V3.43006C4.52287 3.47636 4.82772 3.47636 5.13241 3.43006L5.13228 3.29102C4.82923 3.3373 4.52115 3.3373 4.2181 3.29102ZM4.12677 4.43102L4.67501 4.87619L4.12677 4.43102ZM4.12677 4.51469L4.61416 4.90388L4.12677 4.51469ZM4.12677 4.59812L4.55332 4.93181L4.12677 4.59812ZM4.12677 4.68141L4.43137 4.93181L4.12677 4.68141ZM4.12677 4.76484L4.3704 4.95949L4.12677 4.76484ZM4.12677 4.84813L4.27907 4.95949L4.12677 4.84813Z" fill="white"/>
<path d="M4.2181 3.43006L5.13229 4.181M4.2181 3.43006V3.29102C4.52115 3.3373 4.82923 3.3373 5.13229 3.29102L5.13241 3.43006M4.2181 3.43006C4.52287 3.47636 4.82772 3.47636 5.13241 3.43006M4.30943 3.43006L5.13241 4.09732M4.43137 3.45774L5.13241 4.0139L4.12689 4.84813M4.52295 3.45774L5.13241 3.93047L4.12689 4.76471M4.61428 3.45774L5.13241 3.84717L4.12689 4.68141M4.70549 3.45774L5.13241 3.76375L4.12689 4.59799M4.79707 3.45774L5.13241 3.68008L4.12689 4.51469M4.8884 3.45774L5.13241 3.62471M4.97986 3.45774L5.13229 3.5691M5.07119 3.45774L5.13241 3.51335L4.12689 4.34759M5.13241 3.43006L4.12689 4.26429M5.04083 3.43006L4.15726 4.15294M4.91914 3.45774L4.2181 4.0139M4.82756 3.45774L4.21823 3.93047M4.73623 3.45774L4.2181 3.84717L5.07119 4.54237M4.64465 3.45774L4.2181 3.76375L5.07119 4.45895M4.55344 3.45774L4.2181 3.68008L5.10168 4.40333M4.46186 3.45774L4.21823 3.62471M4.37053 3.45774L4.2181 3.5691M4.27895 3.45774L4.2181 3.51335L5.13229 4.26429L4.27907 4.95949L4.12677 4.84813M5.13241 3.59678L4.12689 4.43102M5.13241 4.09757L4.12689 4.93181M5.13241 4.18087L4.18774 4.95949M5.10168 4.37565L4.43137 4.93181L4.12677 4.68141M5.07119 4.48676L4.52295 4.93181M5.01034 4.6258L4.73623 4.84813L4.12677 4.34759M4.2181 3.59678L5.10155 4.31991M4.2181 3.93047L5.04071 4.59799M4.18774 3.98621L5.01034 4.65373M4.18774 4.06951L4.9495 4.68141M4.15726 4.12525L4.91914 4.73715M4.12677 4.18087L4.85792 4.76471M4.12677 4.26429L4.82743 4.82045M4.12677 4.43102L4.67501 4.87619M4.12677 4.51469L4.61416 4.90388M4.12677 4.59812L4.55332 4.93181M4.12677 4.76484L4.3704 4.95949" stroke="#DB161B" stroke-width="0.132"/>
<path d="M4.25964 3.4958C4.32753 3.4958 4.38257 3.43946 4.38257 3.36997C4.38257 3.30048 4.32753 3.24414 4.25964 3.24414C4.19175 3.24414 4.13672 3.30048 4.13672 3.36997C4.13672 3.43946 4.19175 3.4958 4.25964 3.4958Z" fill="white" stroke="#DB161B" stroke-width="2.231"/>
<path d="M4.42584 3.51142C4.49373 3.51142 4.54876 3.45509 4.54876 3.38559C4.54876 3.3161 4.49373 3.25977 4.42584 3.25977C4.35795 3.25977 4.30292 3.3161 4.30292 3.38559C4.30292 3.45509 4.35795 3.51142 4.42584 3.51142Z" fill="white" stroke="#DB161B" stroke-width="2.231"/>
<path d="M4.59216 3.52607C4.66005 3.52607 4.71509 3.46973 4.71509 3.40024C4.71509 3.33075 4.66005 3.27441 4.59216 3.27441C4.52427 3.27441 4.46924 3.33075 4.46924 3.40024C4.46924 3.46973 4.52427 3.52607 4.59216 3.52607Z" fill="white" stroke="#DB161B" stroke-width="2.232"/>
<path d="M4.75836 3.52607C4.82625 3.52607 4.88128 3.46973 4.88128 3.40024C4.88128 3.33075 4.82625 3.27441 4.75836 3.27441C4.69047 3.27441 4.63544 3.33075 4.63544 3.40024C4.63544 3.46973 4.69047 3.52607 4.75836 3.52607Z" fill="white" stroke="#DB161B" stroke-width="2.232"/>
<path d="M4.92444 3.51142C4.99233 3.51142 5.04736 3.45509 5.04736 3.38559C5.04736 3.3161 4.99233 3.25977 4.92444 3.25977C4.85655 3.25977 4.80151 3.3161 4.80151 3.38559C4.80151 3.45509 4.85655 3.51142 4.92444 3.51142Z" fill="white" stroke="#DB161B" stroke-width="2.231"/>
<path d="M5.09076 3.4958C5.15865 3.4958 5.21368 3.43946 5.21368 3.36997C5.21368 3.30048 5.15865 3.24414 5.09076 3.24414C5.02287 3.24414 4.96783 3.30048 4.96783 3.36997C4.96783 3.43946 5.02287 3.4958 5.09076 3.4958Z" fill="white" stroke="#DB161B" stroke-width="2.231"/>
<path d="M2.90786 4.7369L4.00483 4.15268L2.90786 4.7369ZM2.84689 4.70884L3.88277 4.15268L2.84689 4.70884ZM2.81653 4.65348L3.76119 4.15268L2.81653 4.65348ZM2.78604 4.59786L3.60877 4.15268L2.78604 4.59786ZM2.72507 4.54212L3.48671 4.15268L2.72507 4.54212ZM2.75556 4.45882L3.27343 4.18074L2.75556 4.45882ZM2.72507 4.40308L3.12125 4.18062L2.72507 4.40308ZM2.72507 4.31966L2.99931 4.18062L2.72507 4.31966ZM2.99931 4.76458L4.03519 4.20842L2.99931 4.76458ZM3.09077 4.79252L4.06568 4.26404L3.09077 4.79252ZM3.1821 4.8202L4.09604 4.31966L3.1821 4.8202ZM3.27343 4.84788L4.03519 4.43076L3.27343 4.84788ZM3.3955 4.84788L4.06568 4.4865L3.3955 4.84788ZM3.48671 4.87594L4.06568 4.5698L3.48671 4.87594ZM3.57828 4.90362L4.03519 4.65348L3.57828 4.90362ZM3.69998 4.90362L4.06568 4.70884L3.69998 4.90362ZM3.82204 4.93156L4.06568 4.79252L3.82204 4.93156ZM3.94398 4.93156L4.09604 4.84788L3.94398 4.93156ZM4.15725 4.125H4.00483C3.95408 4.40065 3.95408 4.68358 4.00483 4.95924H4.15725C4.10622 4.68361 4.10622 4.40063 4.15725 4.125ZM2.3595 4.51444L2.72519 4.23636L2.3595 4.51444ZM2.3595 4.31966L2.72519 4.65348L2.3595 4.31966Z" fill="white"/>
<path d="M2.90786 4.7369L4.00483 4.15268M2.84689 4.70884L3.88277 4.15268M2.81653 4.65348L3.76119 4.15268M2.78604 4.59786L3.60877 4.15268M2.72507 4.54212L3.48671 4.15268M2.75556 4.45882L3.27343 4.18074M2.72507 4.40308L3.12125 4.18062M2.72507 4.31966L2.99931 4.18062M2.99931 4.76458L4.03519 4.20842M3.09077 4.79252L4.06568 4.26404M3.1821 4.8202L4.09604 4.31966M3.27343 4.84788L4.03519 4.43076M3.3955 4.84788L4.06568 4.4865M3.48671 4.87594L4.06568 4.5698M3.57828 4.90362L4.03519 4.65348M3.69998 4.90362L4.06568 4.70884M3.82204 4.93156L4.06568 4.79252M3.94398 4.93156L4.09604 4.84788M2.3595 4.51444L2.72519 4.23636M2.3595 4.31966L2.72519 4.65348M4.15725 4.125H4.00483C3.95408 4.40065 3.95408 4.68358 4.00483 4.95924H4.15725C4.10622 4.68361 4.10622 4.40063 4.15725 4.125Z" stroke="#DB161B" stroke-width="0.132"/>
<path d="M2.90788 4.18066L2.7251 4.20835C2.68441 4.38451 2.68441 4.53273 2.7251 4.70889L2.90788 4.76463C2.86732 4.58835 2.86732 4.35695 2.90788 4.18066Z" fill="white" stroke="#DB161B" stroke-width="0.094"/>
<path d="M5.13109 2.79042V2.65025C4.9944 2.65138 4.90282 2.56795 4.90282 2.4834L4.44653 2.48453C4.44653 2.56795 4.3552 2.65138 4.21826 2.65138V2.79042H5.13109Z" fill="white" stroke="#DB161B" stroke-width="0.162"/>
<path d="M4.47906 2.31788H4.87045V2.48473H4.47906V2.31788ZM4.51152 2.15103H4.83763V2.31788H4.51152V2.15103ZM4.51152 1.98418H4.83763V2.15103H4.51152V1.98418ZM4.54421 1.76172H4.80518V1.98418H4.54421V1.76172Z" fill="white"/>
<path d="M4.51152 2.15103H4.83763M4.51152 2.15103V2.31788H4.83763V2.15103M4.51152 2.15103V1.98418H4.83763V2.15103M4.47906 2.31788H4.87045V2.48473H4.47906V2.31788ZM4.54421 1.76172H4.80518V1.98418H4.54421V1.76172Z" stroke="#DB161B" stroke-width="0.137"/>
<path d="M4.5332 1.56738H4.81654V1.76204H4.5332V1.56738Z" fill="white" stroke="#DB161B" stroke-width="0.142"/>
<path d="M4.69037 1.6503C4.89899 1.6503 5.06811 1.53205 5.06811 1.38618C5.06811 1.24032 4.89899 1.12207 4.69037 1.12207C4.48174 1.12207 4.31262 1.24032 4.31262 1.38618C4.31262 1.53205 4.48174 1.6503 4.69037 1.6503Z" fill="white" stroke="#DB161B" stroke-width="0.5"/>
<path d="M4.87944 1.37234C4.87944 1.44532 4.97384 1.567 4.97384 1.567C4.90525 1.61481 4.79474 1.65042 4.6905 1.65042C4.58639 1.65042 4.45633 1.63054 4.40717 1.567C4.40717 1.567 4.50157 1.4452 4.50157 1.37234C4.50157 1.29949 4.40717 1.20549 4.40717 1.20549C4.47539 1.15768 4.58627 1.12207 4.6905 1.12207C4.79474 1.12207 4.90537 1.15768 4.97384 1.20549C4.97384 1.20549 4.87944 1.29949 4.87944 1.37234Z" fill="white" stroke="#DB161B" stroke-width="0.134"/>
<path d="M4.81649 1.37234C4.81649 1.44532 4.91077 1.59481 4.91077 1.59481C4.84255 1.64262 4.79461 1.65042 4.69049 1.65042C4.58638 1.65042 4.51926 1.65835 4.47021 1.59481C4.47021 1.59481 4.56462 1.44532 4.56462 1.37234C4.56462 1.29949 4.47021 1.17769 4.47021 1.17769C4.53844 1.12987 4.58638 1.12207 4.69049 1.12207C4.79461 1.12207 4.84267 1.12987 4.91077 1.17769C4.91077 1.17769 4.81649 1.29949 4.81649 1.37234Z" fill="white" stroke="#DB161B" stroke-width="0.134"/>
<path d="M4.31268 1.52607C4.38057 1.52607 4.43561 1.46973 4.43561 1.40024C4.43561 1.33075 4.38057 1.27441 4.31268 1.27441C4.24479 1.27441 4.18976 1.33075 4.18976 1.40024C4.18976 1.46973 4.24479 1.52607 4.31268 1.52607Z" fill="white" stroke="#DB161B" stroke-width="0.5"/>
<path d="M5.06824 1.52607C5.13612 1.52607 5.19116 1.46973 5.19116 1.40024C5.19116 1.33075 5.13612 1.27441 5.06824 1.27441C5.00035 1.27441 4.94531 1.33075 4.94531 1.40024C4.94531 1.46973 5.00035 1.52607 5.06824 1.52607Z" fill="white" stroke="#DB161B" stroke-width="0.5"/>
<path d="M4.69037 1.52607C4.75826 1.52607 4.81329 1.46973 4.81329 1.40024C4.81329 1.33075 4.75826 1.27441 4.69037 1.27441C4.62248 1.27441 4.56744 1.33075 4.56744 1.40024C4.56744 1.46973 4.62248 1.52607 4.69037 1.52607Z" fill="white" stroke="#DB161B" stroke-width="0.5"/>
<path d="M4.69037 1.24775C4.75826 1.24775 4.81329 1.19141 4.81329 1.12192C4.81329 1.05243 4.75826 0.996094 4.69037 0.996094C4.62248 0.996094 4.56744 1.05243 4.56744 1.12192C4.56744 1.19141 4.62248 1.24775 4.69037 1.24775Z" fill="white" stroke="#DB161B" stroke-width="0.5"/>
<path d="M4.41382 2.83271C4.48171 2.83271 4.53674 2.77638 4.53674 2.70688C4.53674 2.63739 4.48171 2.58105 4.41382 2.58105C4.34593 2.58105 4.29089 2.63739 4.29089 2.70688C4.29089 2.77638 4.34593 2.83271 4.41382 2.83271Z" fill="white" stroke="#DB161B" stroke-width="0.5"/>
<path d="M4.93561 2.83271C5.0035 2.83271 5.05853 2.77638 5.05853 2.70688C5.05853 2.63739 5.0035 2.58105 4.93561 2.58105C4.86772 2.58105 4.81268 2.63739 4.81268 2.70688C4.81268 2.77638 4.86772 2.83271 4.93561 2.83271Z" fill="white" stroke="#DB161B" stroke-width="0.5"/>
<path d="M4.44653 2.48438H4.90283L4.6748 2.73465L4.44653 2.48438Z" fill="white" stroke="#DB161B" stroke-width="0.137"/>
<path d="M4.67467 2.80537C4.7467 2.80537 4.80509 2.74903 4.80509 2.67954C4.80509 2.61005 4.7467 2.55371 4.67467 2.55371C4.60264 2.55371 4.54425 2.61005 4.54425 2.67954C4.54425 2.74903 4.60264 2.80537 4.67467 2.80537Z" fill="white" stroke="#DB161B" stroke-width="0.5"/>
<path d="M4.21041 3.51404H4.83511C4.85613 3.51404 4.87321 3.52725 4.87321 3.54361V3.65144C4.87321 3.6678 4.85613 3.68101 4.83511 3.68101H4.21041C4.18939 3.68101 4.1723 3.6678 4.1723 3.65144V3.54361C4.17243 3.52725 4.18939 3.51404 4.21041 3.51404ZM5.08661 3.375C5.00204 3.375 4.93418 3.4398 4.93418 3.52033V3.64679C4.93418 3.72732 5.00216 3.79212 5.08661 3.79212C5.17106 3.79212 5.23903 3.72732 5.23903 3.64679V3.52033C5.23903 3.4398 5.17118 3.375 5.08661 3.375ZM5.08661 3.43074C5.03584 3.43074 4.99503 3.48258 4.99503 3.54713V3.62036C4.99503 3.68491 5.03596 3.7365 5.08661 3.7365C5.13738 3.7365 5.17794 3.68491 5.17794 3.62036V3.54713C5.17794 3.48258 5.13738 3.43074 5.08661 3.43074Z" fill="white" stroke="#DB161B" stroke-width="0.165"/>
<path d="M4.29433 3.4034C4.24356 3.4034 4.203 3.45499 4.203 3.51941V3.64838C4.203 3.71293 4.24356 3.76478 4.29433 3.76478C4.34498 3.76478 4.38554 3.71293 4.38554 3.64838V3.51941C4.38554 3.45499 4.34498 3.4034 4.29433 3.4034ZM4.29433 3.34766C4.20976 3.34766 4.14191 3.41246 4.14191 3.49299V3.67519C4.14191 3.75572 4.20988 3.82052 4.29433 3.82052C4.37878 3.82052 4.44676 3.75572 4.44676 3.67519V3.49299C4.44676 3.41246 4.3789 3.34766 4.29433 3.34766Z" fill="white" stroke="#DB161B" stroke-width="0.165"/>
<path d="M4.05056 3.45868C3.99991 3.45868 3.95898 3.51053 3.95898 3.57508V3.60527C3.95898 3.6697 3.99991 3.72166 4.05056 3.72166C4.10133 3.72166 4.14189 3.66982 4.14189 3.60527V3.57508C4.14189 3.51053 4.10133 3.45868 4.05056 3.45868ZM4.05056 3.40332C3.96599 3.40332 3.89813 3.46812 3.89813 3.54865V3.63208C3.89813 3.7126 3.96599 3.77741 4.05056 3.77741C4.13476 3.77741 4.20298 3.7126 4.20298 3.63208V3.54865C4.20311 3.46812 4.13476 3.40332 4.05056 3.40332Z" fill="white" stroke="#DB161B" stroke-width="0.165"/>
<path d="M3.68501 3.3815C3.59368 3.3815 3.52054 3.43938 3.52054 3.51135V3.65542C3.52054 3.72752 3.59368 3.78528 3.68501 3.78528C3.77622 3.78528 3.84936 3.7274 3.84936 3.65542V3.51135C3.84936 3.43938 3.77622 3.3815 3.68501 3.3815ZM3.68501 3.31934C3.5332 3.31934 3.41089 3.39194 3.41089 3.48191V3.68537C3.41089 3.77534 3.5332 3.84769 3.68501 3.84769C3.83682 3.84769 3.95913 3.77534 3.95913 3.68537V3.48191C3.95913 3.39194 3.83682 3.31934 3.68501 3.31934ZM5.66555 3.40918C5.57422 3.40918 5.50084 3.46744 5.50084 3.53941V3.68348C5.50084 3.75558 5.57422 3.81334 5.66555 3.81334C5.75652 3.81334 5.8299 3.75546 5.8299 3.68348V3.53941C5.8299 3.46744 5.75652 3.40918 5.66555 3.40918ZM5.66555 3.34727C5.5135 3.34727 5.39119 3.41962 5.39119 3.50959V3.71305C5.39119 3.80302 5.5135 3.87537 5.66555 3.87537C5.81736 3.87537 5.93967 3.80302 5.93967 3.71305V3.50959C5.93967 3.41962 5.81736 3.34727 5.66555 3.34727Z" fill="white" stroke="#DB161B" stroke-width="0.165"/>
<path d="M5.16723 3.51362H5.49323C5.50417 3.51362 5.51314 3.52684 5.51314 3.54319V3.65103C5.51314 3.66739 5.50417 3.6806 5.49323 3.6806H5.16723C5.15629 3.6806 5.14744 3.66739 5.14744 3.65103V3.54319C5.14744 3.52684 5.15629 3.51362 5.16723 3.51362ZM4.82403 3.48594H5.01419C5.02059 3.48594 5.02575 3.50356 5.02575 3.52533V3.66915C5.02575 3.69092 5.02059 3.70853 5.01419 3.70853H4.82403C4.81764 3.70853 4.81248 3.69092 4.81248 3.66915V3.52533C4.81248 3.50356 4.81764 3.48594 4.82403 3.48594ZM3.81852 3.48594H4.00868C4.01507 3.48594 4.02023 3.50356 4.02023 3.52533V3.66915C4.02023 3.69092 4.01507 3.70853 4.00868 3.70853H3.81852C3.81212 3.70853 3.80696 3.69092 3.80696 3.66915V3.52533C3.80696 3.50356 3.81212 3.48594 3.81852 3.48594ZM3.15952 3.45801H3.53985C3.55263 3.45801 3.56296 3.48003 3.56296 3.50721V3.68689C3.56296 3.71407 3.55263 3.73609 3.53985 3.73609H3.15952C3.14674 3.73609 3.13641 3.71407 3.13641 3.68689V3.50721C3.13641 3.48003 3.14674 3.45801 3.15952 3.45801ZM5.80877 3.48594H6.16193C6.17386 3.48594 6.18344 3.50796 6.18344 3.53514V3.71482C6.18344 3.742 6.17386 3.76402 6.16193 3.76402H5.80877C5.79685 3.76402 5.78726 3.742 5.78726 3.71482V3.53514C5.78726 3.50796 5.79685 3.48594 5.80877 3.48594Z" fill="white" stroke="#DB161B" stroke-width="0.165"/>
</g>
<defs>
<clipPath id="clip0_5_3236">
<rect width="37" height="19" fill="white"/>
</clipPath>
</defs>
</svg>
