<svg width="38" height="25" viewBox="0 0 38 25" fill="none" xmlns="http://www.w3.org/2000/svg">
<g clip-path="url(#clip0_3_2867)">
<path d="M0.0621872 0.0625H37.3756V24.9381H0.0621872V0.0625Z" fill="#006C35"/>
<path d="M16.1458 5.93752C16.1265 5.93702 16.0976 5.94772 16.0571 5.97172C15.9662 6.03267 15.7859 6.22048 15.7803 6.43665C15.7749 6.55854 15.7519 6.55816 15.8317 6.63565C15.8894 6.71886 15.947 6.71065 16.0633 6.64958C16.1302 6.60033 16.1527 6.56898 16.1752 6.4864C16.203 6.34784 16.0295 6.55194 16.0073 6.39772C15.9685 6.25456 16.0794 6.19573 16.1846 6.05729C16.1871 5.99199 16.1882 5.93876 16.1458 5.93752ZM17.8404 5.94685C17.808 5.95132 17.7682 5.99286 17.7129 6.09299C17.6734 6.19784 17.5027 6.35655 17.6259 6.68379C17.7266 6.89125 17.768 7.22856 17.7223 7.60418C17.6525 7.71102 17.6366 7.74772 17.545 7.85456C17.4164 7.99286 17.2771 7.95742 17.1703 7.9058C17.0704 7.83851 16.9919 7.80393 16.9464 7.59025C16.9546 7.24958 16.9745 6.69187 16.9122 6.57346C16.8204 6.39013 16.669 6.45592 16.6044 6.51127C16.2935 6.79548 16.14 7.27533 16.0463 7.65704C15.9601 7.93528 15.8682 7.85481 15.8037 7.74262C15.6466 7.59548 15.6357 6.44498 15.4461 6.63403C15.1425 7.5017 15.6203 8.45219 15.9514 8.35978C16.1902 8.45866 16.3418 8.00406 16.4396 7.5063C16.5065 7.36662 16.5576 7.35058 16.5919 7.42234C16.5831 8.08428 16.6394 8.23192 16.8096 8.43291C17.1893 8.72583 17.5032 8.46998 17.5279 8.44535L17.8233 8.14995C17.8891 8.0808 17.976 8.07657 18.0689 8.13752C18.1592 8.21961 18.1476 8.36102 18.341 8.45928C18.5037 8.52433 18.8512 8.47508 18.9318 8.3349C19.0403 8.14896 19.0667 8.08515 19.1168 8.01463C19.1942 7.91165 19.3267 7.95717 19.3267 7.98976C19.3144 8.04722 19.2366 8.10393 19.2894 8.20742C19.3815 8.27645 19.4029 8.23204 19.4573 8.21675C19.6499 8.12471 19.7947 7.70679 19.7947 7.70679C19.8031 7.55095 19.7144 7.56277 19.6578 7.59485C19.584 7.64 19.5794 7.65543 19.5055 7.70058C19.4113 7.71451 19.2289 7.7767 19.1386 7.63677C19.0464 7.46861 19.0458 7.23428 18.9754 7.06463C18.9754 7.05232 18.8521 6.79796 18.966 6.78167C19.0235 6.79237 19.147 6.82433 19.1665 6.7211C19.2269 6.62048 19.0364 6.3349 18.907 6.19087C18.7945 6.06737 18.6392 6.05244 18.4887 6.17844C18.3833 6.27533 18.399 6.38366 18.3784 6.48627C18.3515 6.60418 18.3566 6.7502 18.4762 6.90605C18.5813 7.11339 18.7724 7.37943 18.7095 7.75493C18.7095 7.75493 18.5984 7.93366 18.4032 7.9104C18.3219 7.89262 18.1892 7.85742 18.1187 7.33665C18.0653 6.94249 18.132 6.39025 17.9648 6.1318C17.927 6.03428 17.8947 5.93951 17.8404 5.94685ZM17.3041 5.98864C17.2535 5.99311 17.1975 6.05194 17.1517 6.16587C17.1126 6.25244 17.0647 6.70543 17.0725 6.70543C17.0412 6.84025 17.2133 6.89734 17.2917 6.72408C17.4092 6.40642 17.4097 6.2711 17.4177 6.1364C17.3993 6.03379 17.3546 5.98428 17.3041 5.98864ZM19.2847 6.02446C19.2327 6.02918 19.1914 6.05953 19.1759 6.1364C19.1552 6.31699 19.1658 6.41513 19.1961 6.5655C19.2194 6.66575 19.3653 6.83354 19.4372 6.93092C19.7802 7.39212 20.1103 7.85543 20.4291 8.33478C20.4792 8.69075 20.5159 9.03901 20.5396 9.38578C20.5912 10.1462 20.6068 11.0927 20.5597 11.8936C20.7021 11.8992 20.9305 11.6635 21.0106 11.3184C21.0627 10.8409 20.992 9.86662 20.9873 9.58478C20.984 9.46774 20.9767 9.32819 20.9687 9.18217C21.3574 9.81741 21.7189 10.4689 22.0522 11.1349C22.181 11.0737 22.1524 10.349 22.0771 10.2471C21.7945 9.63876 21.404 9.03826 21.2796 8.80742C21.2347 8.72408 21.0816 8.49125 20.9002 8.22284C20.8669 7.83988 20.8306 7.51538 20.807 7.41749C20.7486 7.01264 20.9734 7.46314 20.9422 7.22782C20.8693 6.82346 20.6461 6.54871 20.3825 6.17831C20.2975 6.05791 20.2991 6.03329 20.1679 6.20779C20.0896 6.38578 20.0905 6.53379 20.1136 6.67259C20.0703 6.60934 20.0241 6.54812 19.9751 6.48913C19.7475 6.29386 19.7335 6.28316 19.5445 6.12371C19.4848 6.08155 19.3714 6.0165 19.2847 6.02446ZM25.1553 6.08503C25.1301 6.08105 25.1025 6.09349 25.0714 6.13938C25.0121 6.19137 24.9481 6.28565 24.9501 6.40679C24.9646 6.6201 25.0026 6.83864 25.017 7.05207L25.0326 7.13764C25.0156 7.11541 24.9974 7.09415 24.9781 7.07396C24.5622 6.63702 25.1693 7.00257 24.8989 6.665C24.6703 6.41388 24.6034 6.33403 24.4076 6.18304C24.3095 6.11961 24.2501 5.99846 24.2179 6.2048C24.2051 6.38615 24.1918 6.5961 24.2039 6.74896C24.2032 6.83391 24.2912 6.99374 24.3672 7.08789C24.6559 7.44324 24.9378 7.804 25.2129 8.16998C25.2729 8.94187 25.2889 9.64946 25.3498 10.4227C25.3412 10.7534 25.2394 11.1927 25.1429 11.2343C25.1429 11.2343 24.9956 11.3189 24.8973 11.225C24.8257 11.1962 24.5397 10.7476 24.5397 10.7476C24.3933 10.6134 24.2956 10.6517 24.1914 10.7476C23.9041 11.025 23.7741 11.5447 23.5789 11.9027C23.5285 11.9825 23.3867 12.0506 23.2291 11.8965C22.8286 11.3495 23.0628 10.5707 23.0129 10.7708C22.6562 11.1727 22.8142 11.8388 22.8948 11.9819C23.0123 12.2171 23.1075 12.3677 23.3363 12.4842C23.5447 12.6376 23.707 12.5419 23.7965 12.4344C24.0062 12.2171 24.0091 11.6613 24.1075 11.5513C24.1765 11.3493 24.3496 11.384 24.434 11.4736C24.5157 11.5912 24.6123 11.6676 24.7325 11.7317C24.9281 11.9043 25.1616 11.9355 25.3917 11.7783C25.5489 11.6901 25.651 11.5755 25.743 11.3492C25.8418 11.085 25.793 9.70033 25.771 8.93005C25.9198 9.14019 26.0659 9.35215 26.2095 9.56587C26.273 10.242 26.3019 10.908 26.281 11.5466C26.2659 11.6736 26.7241 11.1675 26.721 10.9278C26.7189 10.7181 26.7214 10.5281 26.721 10.3509C26.9438 10.7056 27.1574 11.0659 27.3616 11.4315C27.4876 11.3648 27.4444 10.6516 27.3647 10.5531C27.1519 10.196 26.8792 9.81003 26.6682 9.5114C26.6264 9.13453 26.5697 8.68988 26.5438 8.55369C26.5035 8.34125 26.4632 8.02222 26.4022 7.7701C26.3856 7.67172 26.3352 7.35717 26.351 7.32694C26.3759 7.25655 26.4697 7.32918 26.5158 7.24772C26.585 7.17234 26.2761 6.37222 26.1193 6.14386C26.0629 6.0415 25.9609 6.07694 25.8348 6.24336C25.7178 6.35294 25.7606 6.60269 25.8052 6.84038C25.9213 7.4461 26.0249 8.06289 26.1068 8.67806C25.9355 8.42296 25.7624 8.16902 25.5876 7.91625C25.5827 7.89087 25.5643 7.79784 25.5643 7.79647C25.5643 7.78553 25.5392 7.30095 25.5177 7.18553C25.5139 7.13864 25.5027 7.12508 25.5519 7.13105C25.604 7.17483 25.6111 7.17719 25.6435 7.19162C25.6961 7.2012 25.7422 7.11227 25.7104 7.02993C25.5478 6.72981 25.3851 6.42831 25.2223 6.12819C25.2027 6.10928 25.1807 6.08901 25.1553 6.08503ZM10.0047 6.10058C9.91455 6.09796 9.81505 6.15393 9.85386 6.26227C9.83122 6.32135 10.0303 6.52097 10.0653 6.63068C10.0966 6.70878 10.0342 6.9604 10.0995 6.98366C10.1596 7.00966 10.2422 6.80953 10.2736 6.62446C10.291 6.52309 10.2779 6.1762 10.042 6.10518C10.0298 6.10247 10.0173 6.10093 10.0047 6.10058ZM27.2639 6.10257C27.2434 6.10456 27.2183 6.13777 27.18 6.21923C27.0877 6.37035 27.056 6.641 27.0929 6.87993C27.3151 8.38254 27.4801 9.83764 27.5143 11.1695C27.4951 11.2959 27.4897 11.3631 27.4303 11.5225C27.2993 11.6905 27.1546 11.9013 27.0183 12.0028C26.8821 12.1043 26.5922 12.2012 26.4974 12.2764C26.1966 12.4502 26.1952 12.6501 26.4383 12.6574C26.8572 12.6088 27.353 12.5743 27.6945 12.0588C27.7858 11.9143 27.8934 11.5226 27.8981 11.2829C27.9301 9.87757 27.8801 8.50356 27.6697 7.48789C27.6561 7.38888 27.6124 7.16152 27.6292 7.1318C27.6563 7.06227 27.7934 7.13876 27.8422 7.05879C27.9138 6.98565 27.4877 6.44 27.3384 6.2068C27.3087 6.14809 27.2903 6.09995 27.2639 6.10257ZM22.8703 6.12595C22.853 6.12893 22.8274 6.1553 22.7801 6.21762C22.6631 6.60033 22.622 6.91277 22.6667 7.15045C22.9673 8.71923 23.2754 10.1486 23.2264 11.642C23.3689 11.643 23.5337 11.3159 23.6041 10.9921C23.6427 10.5461 23.5784 10.2747 23.5668 10.0126C23.5552 9.75058 23.27 7.62384 23.2123 7.42558C23.1427 7.05058 23.4897 7.37632 23.4517 7.15816C23.3318 6.88316 23.0325 6.48291 22.9387 6.24398C22.9035 6.18005 22.8991 6.12085 22.8703 6.12595ZM12.1723 6.15543C12.1353 6.16177 12.0996 6.19224 12.0868 6.24249C12.0786 6.27533 12.101 6.33005 12.0713 6.34672C12.0541 6.36401 11.9893 6.35232 11.9919 6.26115C11.9919 6.23204 11.9706 6.20182 11.9577 6.18341C11.9448 6.17495 11.9361 6.17259 11.9127 6.17259C11.8841 6.17371 11.8848 6.1813 11.8692 6.2053C11.8622 6.22968 11.8532 6.25356 11.8532 6.28142C11.8498 6.31388 11.8367 6.32483 11.8128 6.32968C11.7862 6.32968 11.7924 6.33254 11.7709 6.31874C11.7581 6.30468 11.7429 6.29921 11.7429 6.2752C11.7429 6.25033 11.7364 6.21078 11.7289 6.19436C11.7175 6.17943 11.6996 6.17172 11.6791 6.16637C11.5673 6.16687 11.5592 6.29523 11.5657 6.34361C11.5573 6.35269 11.5531 6.58043 11.7056 6.64361C11.9102 6.74125 12.294 6.69995 12.2777 6.36998C12.2777 6.34087 12.2713 6.24274 12.2684 6.21612C12.2475 6.16749 12.209 6.14908 12.172 6.15555L12.1723 6.15543ZM14.9179 6.15854C14.8528 6.1622 14.7892 6.17967 14.7313 6.20978C14.5956 6.33963 14.5639 6.54784 14.6708 6.67782C14.7748 6.72694 14.8785 6.83155 14.8091 6.88926C14.5152 7.20319 13.75 7.72794 13.7114 7.82359L13.7098 7.8267V7.83142C13.7101 7.83217 13.7108 7.83391 13.7114 7.83453L13.7129 7.83615H13.7144C13.7148 7.83627 13.7157 7.83764 13.716 7.83764H13.7175L13.7192 7.83926C13.758 7.86538 14.2368 7.86476 14.2897 7.84087C14.2902 7.84063 14.2909 7.83951 14.2913 7.83926H14.2928V7.83764C14.4573 7.77707 15.2381 6.88466 15.2381 6.88466C15.1976 6.84995 15.1603 6.82446 15.1199 6.78976C15.0766 6.75219 15.081 6.71538 15.1199 6.67782C15.3133 6.56525 15.252 6.31774 15.151 6.20518C15.0781 6.17121 14.9982 6.15522 14.9179 6.15854ZM22.0945 6.16165C22.074 6.16364 22.049 6.19535 22.0106 6.2767C21.9183 6.42782 21.8556 6.691 21.8629 6.93739C22.0628 8.32122 22.1241 9.53217 22.2547 10.916C22.2654 11.0498 22.2458 11.2442 22.1567 11.3218C21.8276 11.6654 21.3531 12.0891 20.8368 12.2842C20.7812 12.3466 20.975 12.6124 21.2255 12.6123C21.6444 12.5636 22.0127 12.3284 22.3542 11.7089C22.4455 11.5645 22.6061 11.2552 22.6107 11.0155C22.6427 9.61015 22.5398 8.51749 22.3294 7.50182C22.3158 7.40282 22.325 7.2859 22.3418 7.25617C22.3689 7.22371 22.4608 7.25692 22.5097 7.17694C22.5812 7.10381 22.3184 6.49759 22.1692 6.26426C22.1394 6.20568 22.121 6.15903 22.0945 6.16165ZM10.9766 6.20393C10.9188 6.21065 10.8644 6.25779 10.8382 6.3206C10.8285 6.54249 10.8272 6.76438 10.8522 6.96886C10.9532 7.32757 10.9852 7.64311 11.0341 8.01053C11.0476 8.50269 10.7499 8.22346 10.7636 7.97943C10.8323 7.66252 10.8138 7.16376 10.7527 7.03727C10.7044 6.9109 10.6481 6.87956 10.5303 6.90045C10.4368 6.89473 10.1951 7.15804 10.1277 7.59386C10.1277 7.59386 10.0715 7.81762 10.0469 8.01675C10.0138 8.24187 9.86468 8.40132 9.76082 7.98565C9.67102 7.68354 9.6158 6.93938 9.46542 7.11351C9.42239 7.69461 9.37114 8.71724 9.86493 8.82222C10.4622 8.87968 10.1322 7.81252 10.3485 7.61886C10.3894 7.52309 10.465 7.52147 10.4713 7.64224V8.54871C10.4658 8.84336 10.6597 8.93092 10.8102 8.99187C10.9668 8.9798 11.0706 8.98403 11.1321 9.1364C11.1566 9.65891 11.1822 10.1827 11.2067 10.7052C11.2067 10.7052 11.5688 10.8093 11.5861 9.82359C11.6034 9.24486 11.4708 8.75928 11.5488 8.6466C11.5515 8.53602 11.6933 8.53055 11.7913 8.58441C11.9474 8.69461 12.0167 8.83005 12.2592 8.77558C12.6284 8.67384 12.8507 8.49473 12.8562 8.21127C12.8347 7.94187 12.8035 7.67222 12.6868 7.40281C12.7031 7.35381 12.6162 7.22632 12.6323 7.17732C12.6986 7.2813 12.799 7.27259 12.822 7.17732C12.7592 6.97023 12.6613 6.77185 12.5034 6.68602C12.3728 6.57097 12.1816 6.59523 12.1116 6.83528C12.0791 7.11177 12.2118 7.43963 12.4132 7.70754C12.456 7.81214 12.5158 7.98627 12.4893 8.14287C12.3821 8.20393 12.2759 8.17856 12.1862 8.08378C12.1862 8.08378 11.8923 7.86376 11.8923 7.81476C11.9703 7.3155 11.9091 7.25829 11.8659 7.11985C11.8357 6.92856 11.7451 6.86799 11.6715 6.73739C11.598 6.65941 11.4983 6.65941 11.4507 6.73739C11.3209 6.96252 11.3818 7.44585 11.4756 7.66252C11.5434 7.86165 11.6474 7.9859 11.5985 7.9859C11.5582 8.09846 11.4741 8.07222 11.4134 7.94237C11.3269 7.67396 11.3093 7.27383 11.3093 7.09349C11.2833 6.86985 11.2544 6.39224 11.1072 6.2711C11.068 6.21737 11.0216 6.19871 10.9766 6.20393ZM13.074 6.20704C13.0444 6.21078 13.0116 6.22769 12.973 6.23652C12.846 6.27694 12.7271 6.38665 12.7647 6.60033C12.9148 7.51239 13.0126 8.20841 13.1627 9.12048C13.1857 9.22732 13.0963 9.36811 12.9807 9.35369C12.7845 9.22085 12.7357 8.95194 12.4009 8.96351C12.1585 8.96637 11.882 9.23018 11.8474 9.48428C11.807 9.68615 11.7925 9.90518 11.8474 10.0813C12.0178 10.2861 12.2219 10.2644 12.4009 10.2181C12.548 10.1575 12.6692 10.0125 12.7211 10.0471C12.7213 10.0472 12.7225 10.0468 12.7226 10.0471V10.0487C12.7547 10.1048 12.7197 10.5792 12.0292 10.9457C11.605 11.1363 11.2673 11.1818 11.0854 10.8354C10.9729 10.6189 11.0937 9.79436 10.8165 9.9849C9.99689 12.0977 12.7368 12.3926 13.0429 10.072C13.0627 10.0065 13.1231 9.94088 13.1657 9.95692C13.1843 9.96488 13.2015 9.99025 13.2077 10.0378C13.1442 12.139 11.0881 12.283 10.7388 11.6221C10.6522 11.4662 10.6262 11.1194 10.6175 10.9115C10.6017 10.7858 10.5701 10.7133 10.5336 10.6845C10.4502 10.6218 10.3383 10.7852 10.3143 11.0686C10.2796 11.2966 10.2894 11.3592 10.2894 11.5786C10.3991 13.2383 13.045 12.5252 13.4751 11.1541C13.6879 10.4454 13.4708 9.91065 13.5419 9.84498C13.5425 9.84448 13.5444 9.84386 13.545 9.84349L13.5481 9.84199L13.5512 9.84038C13.5543 9.83954 13.5574 9.839 13.5606 9.83876C13.8233 10.1217 14.1918 9.87471 14.2726 9.77657C14.3073 9.72744 14.3939 9.69597 14.4546 9.75941C14.6595 9.90667 15.0185 9.83727 15.0935 9.57757C15.1368 9.32359 15.1735 9.06202 15.1822 8.79087C15.0488 8.83229 14.941 8.86339 14.8976 8.90903C14.8875 8.91926 14.8805 8.93222 14.8775 8.94635C14.8659 9.02147 14.8549 9.09672 14.8433 9.17184C14.8421 9.17784 14.84 9.18362 14.8371 9.18901C14.8307 9.19858 14.8222 9.20654 14.8122 9.21227C14.765 9.23801 14.6827 9.22334 14.6785 9.1548C14.6149 8.86612 14.3537 8.82869 14.1949 9.27607C14.0881 9.36264 13.8933 9.37956 13.8731 9.24958C13.8991 8.94946 13.7781 8.90916 13.5357 9.05058C13.4577 8.45605 13.3805 7.88839 13.3025 7.29374C13.4035 7.29087 13.4961 7.36413 13.5886 7.24871C13.4886 6.93777 13.2771 6.3053 13.158 6.24585C13.157 6.24548 13.1557 6.24461 13.1549 6.24436C13.1473 6.23577 13.139 6.22793 13.13 6.22097C13.1227 6.21637 13.1148 6.21273 13.1066 6.21015C13.096 6.20707 13.085 6.20601 13.074 6.20704ZM21.2501 6.21165C21.1453 6.20854 21.0292 6.27458 21.0744 6.40592C21.048 6.47757 21.2996 6.72073 21.3403 6.85369C21.4133 7.05804 21.2846 7.25306 21.3604 7.2813C21.4303 7.31289 21.5276 7.07035 21.5642 6.84597C21.6063 6.66463 21.477 6.29299 21.2937 6.21625C21.2793 6.21344 21.2647 6.2119 21.2501 6.21165ZM14.8805 6.43553C14.9282 6.43068 14.9859 6.47458 15.0142 6.53652C15.0443 6.60269 15.0292 6.666 14.98 6.67806C14.9307 6.69013 14.867 6.64635 14.8369 6.58005C14.8068 6.51388 14.8219 6.44908 14.8711 6.43702L14.8805 6.43553ZM26.6964 6.74187C26.6007 6.73851 26.4966 6.81115 26.5378 6.95331C26.5138 7.03092 26.7418 7.29436 26.7789 7.43839C26.8121 7.54087 26.7282 7.87122 26.7975 7.9017C26.8612 7.9359 26.9509 7.67346 26.9841 7.43068C27.0025 7.29772 26.904 6.83117 26.7368 6.74809C26.7236 6.74443 26.7101 6.74235 26.6964 6.74187ZM20.1634 6.90356C20.1721 6.94249 20.181 6.9818 20.1867 7.02172C20.2063 7.10791 20.2231 7.19349 20.2412 7.27831C20.1657 7.17433 20.1032 7.09038 20.0764 7.06065C19.9057 6.85767 20.0803 6.92732 20.1634 6.90356ZM21.6684 7.64361C21.6315 7.65008 21.5958 7.68204 21.5828 7.73229C21.5748 7.76513 21.5986 7.81836 21.5689 7.8349C21.5517 7.85219 21.4853 7.84212 21.4881 7.75095C21.4881 7.72185 21.4668 7.69 21.4539 7.6716C21.4409 7.66314 21.4322 7.66078 21.4087 7.66078C21.3802 7.66189 21.3808 7.66948 21.3652 7.69349C21.3586 7.71786 21.3496 7.74199 21.3496 7.76961C21.346 7.80207 21.3347 7.81301 21.3108 7.81786C21.2842 7.81786 21.2889 7.82073 21.2673 7.80692C21.2545 7.79286 21.2393 7.78739 21.2393 7.76339C21.2393 7.73851 21.2328 7.69896 21.2252 7.68254C21.2139 7.66762 21.196 7.6614 21.1755 7.65605C21.0638 7.65642 21.0571 7.78329 21.0636 7.8318C21.0552 7.84087 21.0495 8.0701 21.202 8.13341C21.4066 8.23092 21.7919 8.18814 21.7756 7.85816C21.7756 7.82893 21.7677 7.73092 21.7648 7.70431C21.7439 7.65555 21.7053 7.63714 21.6684 7.64361ZM14.7969 7.71202C14.7716 7.70941 14.7386 7.71874 14.7005 7.74162C14.5195 7.83951 14.4495 8.1298 14.5622 8.29971C14.6674 8.44933 14.8338 8.39461 14.856 8.39461C15.0332 8.41675 15.1389 8.06189 15.1389 8.06189C15.1389 8.06189 15.1443 7.96214 14.9337 8.15045C14.8451 8.16712 14.8331 8.13503 14.8109 8.08515C14.7925 7.99286 14.7964 7.89921 14.8389 7.80692C14.8585 7.75145 14.8389 7.71625 14.7969 7.71202ZM24.5108 7.75704C24.4103 7.75219 24.3034 7.81724 24.276 7.95443C24.2765 8.0354 24.3126 8.07993 24.3055 8.15344C24.295 8.19548 24.2517 8.22309 24.1485 8.17371C24.1647 8.15878 24.0816 8.0415 24.0816 8.0415C24.0011 7.99249 23.8935 8.04411 23.8235 8.08976C23.7984 8.13746 23.7834 8.18981 23.7794 8.24356C23.7754 8.29731 23.7825 8.3513 23.8002 8.40219C23.9158 8.61575 24.3123 8.98018 24.5015 8.98366C24.505 8.79112 24.5238 8.53503 24.5342 8.3757C24.5387 8.31563 24.5527 8.24933 24.6103 8.23416C24.6679 8.21898 24.7678 8.29212 24.7689 8.22956C24.7585 8.10704 24.734 7.92632 24.6648 7.84087C24.6474 7.81594 24.6244 7.79538 24.5977 7.78084C24.571 7.76629 24.5412 7.75814 24.5108 7.75704ZM16.47 8.42719C16.4674 8.42819 16.4647 8.43043 16.4622 8.43192L16.4576 8.43503C16.4376 8.45008 16.4139 8.48478 16.3612 8.52209C16.2721 8.62334 16.2562 8.69386 16.2617 8.89684C16.2668 8.91836 16.4307 9.37408 16.5695 9.69448C16.6632 10.0274 16.7498 10.4087 16.6861 10.7687C16.4669 11.2447 16.0262 11.6717 15.6009 11.9037C15.3842 11.9731 15.197 11.9495 15.1469 11.9022L15.1454 11.9006C15.021 11.8169 15.0182 11.668 15.0256 11.6425V11.6409L15.0272 11.6393C15.3862 11.3893 15.7961 11.1869 16.117 10.512C16.2118 10.2542 16.2408 10.0992 16.1466 9.70045C16.11 9.55182 16.0646 9.42956 15.9632 9.32421L15.9647 9.32272C16.0257 9.29349 16.1843 9.41015 16.2088 9.33665C16.1713 9.14622 16.0424 8.89063 15.8963 8.75978C15.7684 8.64361 15.6294 8.63018 15.5123 8.73652C15.3805 8.8099 15.3524 9.07346 15.4159 9.30393C15.4864 9.47757 15.6767 9.50804 15.8123 9.85742V9.85903C15.8152 9.88092 15.8588 10.1199 15.7905 10.2166C15.7351 10.3895 15.0231 10.9509 14.9728 10.9847C14.9723 10.9852 14.9687 10.9873 14.9682 10.9878L14.9651 10.9909L14.9634 10.9924H14.9603L14.9588 10.9909V10.9893L14.9572 10.9861C14.9551 10.9722 14.9588 10.9364 14.9572 10.8789C14.9526 10.7737 14.9961 10.5358 14.993 10.4949V10.4934L14.9914 10.4917V10.4901H14.9899C14.7546 10.642 14.6769 11.1078 14.6338 11.2457C14.0381 11.6574 13.3616 11.9636 12.9719 12.3807C12.7689 12.6976 14.37 12.0167 14.5561 11.9345C14.5577 11.9357 14.5593 11.9376 14.5608 11.9391C14.5961 11.9781 14.5993 12.1138 14.7053 12.2361C14.8718 12.4615 15.2255 12.6005 15.5698 12.5144C16.147 12.3057 16.4796 11.9123 16.8183 11.4758C16.8667 11.4054 16.9425 11.35 17.0126 11.4043C17.2453 11.9252 17.916 12.2958 18.7835 12.334C18.9842 12.09 18.8882 11.97 18.8067 11.919C18.7816 11.9023 18.3754 11.744 18.3123 11.5863C18.2726 11.4395 18.3692 11.3094 18.5627 11.2115C19.1195 11.1442 19.667 11.0694 20.1966 10.8991C20.202 10.7211 20.3068 10.4549 20.377 10.3394C20.4257 10.2592 20.457 10.2512 20.4688 10.2399C20.4692 10.2395 20.47 10.2388 20.4703 10.2383L20.4719 10.2368L20.4734 10.2352V10.232C20.4737 10.2268 20.4732 10.2216 20.4719 10.2165L20.3817 10.1636L18.6046 10.1558C18.5874 10.1499 18.5712 10.1415 18.5565 10.1309L18.5534 10.1278L18.5517 10.1262C18.5515 10.1259 18.5504 10.125 18.5502 10.1246L18.5486 10.1215L18.5471 10.1199V10.1184L18.5455 10.1167V10.1039L18.5471 10.1024L18.5486 10.0993C18.5573 10.0876 18.5784 10.0767 18.6046 10.0666C19.029 10.0088 19.7828 9.88515 19.8328 9.16028C19.825 8.78267 19.6711 8.53528 19.2078 8.46687C18.8674 8.49324 18.6245 8.82259 18.6637 9.18515C18.6474 9.28279 18.6968 9.47433 18.5968 9.4961C17.9437 9.5558 17.2308 9.965 17.2068 10.2579H17.2052L17.2037 10.2595L17.2006 10.2611H17.1975L17.1928 10.2626H17.1835L17.1772 10.2611C17.1348 10.2493 17.0801 10.1792 17.0887 10.0808C17.0638 9.57446 16.899 9.00157 16.6409 8.56028C16.5489 8.46811 16.5087 8.4308 16.4823 8.42657H16.4715C16.4714 8.42732 16.4703 8.42719 16.47 8.42719ZM18.1709 8.69461C18.134 8.70107 18.0983 8.73142 18.0853 8.78167C18.0772 8.81451 18.1011 8.86936 18.0714 8.8859C18.0542 8.90319 17.9878 8.89311 17.9905 8.80194C17.9905 8.77296 17.9693 8.74112 17.9563 8.72259C17.9434 8.71413 17.9362 8.71177 17.9128 8.71177C17.8843 8.71289 17.8833 8.72048 17.8677 8.74436C17.8611 8.76874 17.8521 8.79286 17.8521 8.8206C17.8486 8.85306 17.8371 8.86401 17.8133 8.86874C17.7867 8.86874 17.7929 8.8716 17.7713 8.85791C17.7585 8.84386 17.7418 8.83839 17.7418 8.81438C17.7418 8.78951 17.7368 8.74995 17.7294 8.73354C17.718 8.71861 17.6985 8.71239 17.678 8.70704C17.5662 8.70742 17.5596 8.83428 17.566 8.88279C17.5577 8.89187 17.552 9.1211 17.7045 9.18441C17.9091 9.28204 18.3968 9.22458 18.2781 8.90916C18.2781 8.87993 18.2701 8.78192 18.2673 8.7553C18.2464 8.70655 18.2077 8.68814 18.1709 8.69461ZM25.035 8.97595C25.0292 8.97512 25.0234 8.97563 25.0179 8.97744C25.0179 8.97744 24.0698 9.65194 24.0463 9.67558C23.9522 9.75916 23.9993 10.0532 24.0463 10.0191C24.1142 10.0452 25.0688 9.39834 25.0506 9.32259C25.0923 9.32508 25.1122 8.98988 25.035 8.97595ZM19.0669 9.07595C19.1056 9.07185 19.1565 9.08503 19.2052 9.11326C19.276 9.15418 19.3197 9.21612 19.3141 9.26102C19.3138 9.26227 19.3143 9.26451 19.3141 9.26563C19.3138 9.26687 19.3113 9.26923 19.3109 9.27035L19.3095 9.27495L19.3078 9.27806L19.3063 9.28117C19.3037 9.28517 19.3005 9.28884 19.297 9.29212C19.2629 9.32384 19.1845 9.31936 19.1104 9.27657C19.0403 9.23602 18.997 9.17371 19.0016 9.12881C19.0017 9.12757 19.003 9.12533 19.0031 9.12421C19.0043 9.11871 19.0064 9.11346 19.0093 9.10866C19.0103 9.10692 19.0113 9.10406 19.0124 9.10244L19.0141 9.10082L19.0218 9.09311C19.0349 9.08325 19.0505 9.0773 19.0669 9.07595ZM10.7629 9.24697C10.2716 9.25592 9.55211 9.891 9.53308 10.2436C10.0515 9.99461 10.5608 9.75493 11.0878 9.49734C11.0027 9.37035 11.0827 9.25592 10.7629 9.24697ZM12.355 9.46774C12.4031 9.46836 12.454 9.49212 12.4808 9.55953C12.4907 9.58607 12.4933 9.61475 12.4884 9.64262C12.4835 9.6705 12.4712 9.69656 12.4529 9.71811V9.71973C12.4524 9.72048 12.4517 9.72222 12.4514 9.72284C12.4307 9.74946 12.3583 9.73839 12.3067 9.73839C12.2443 9.73565 12.2136 9.72545 12.1761 9.67471C12.1582 9.61836 12.2127 9.56289 12.2368 9.52073C12.2371 9.52035 12.2382 9.51961 12.2383 9.51923C12.2417 9.51485 12.2453 9.51069 12.2493 9.50679C12.2679 9.48976 12.3001 9.47371 12.3347 9.46948C12.3413 9.4684 12.3481 9.46782 12.355 9.46774ZM24.8505 9.66339C24.7632 9.67408 24.6801 9.75679 24.7183 9.88876C24.6943 9.96625 24.8368 10.2375 24.8738 10.3817C24.9071 10.4842 24.831 10.7741 24.9002 10.8046C24.9639 10.8386 25.1316 10.6324 25.1257 10.3738C25.1442 10.2409 25.0784 9.75107 24.9112 9.66799C24.8914 9.66263 24.8708 9.66106 24.8505 9.66339ZM14.2381 10.1422C14.1608 10.1476 14.0919 10.1889 14.123 10.2977C14.1183 10.3766 14.3412 10.4726 14.3546 10.6553C14.3864 10.7306 14.307 10.9717 14.3733 10.9942C14.4341 11.0194 14.5187 10.8274 14.5505 10.6491C14.5682 10.5513 14.4741 10.2095 14.3142 10.1485C14.2892 10.1428 14.2636 10.1407 14.2381 10.1422ZM17.4143 10.5759C17.4201 10.5756 17.4254 10.5759 17.4315 10.5759H17.4346C17.6326 10.6297 17.9244 10.6353 18.1777 10.6615C18.3841 10.6746 18.4861 10.8361 18.2928 10.9041C18.1021 10.9694 17.9189 11.0204 17.918 11.2958C17.9432 11.4323 17.9378 11.5039 17.9165 11.5369L17.9103 11.5447L17.9087 11.5463L17.9072 11.548L17.9056 11.5496L17.9041 11.5512L17.901 11.5527C17.8981 11.5546 17.8949 11.5562 17.8917 11.5574C17.8891 11.5583 17.8852 11.5585 17.8823 11.5589C17.8371 11.5656 17.7711 11.5223 17.7221 11.4967C17.6046 11.4124 17.2748 11.2079 17.2277 10.7691C17.2211 10.6697 17.2953 10.5843 17.4143 10.5759ZM9.65609 10.9134C9.64366 10.9138 9.61903 10.9507 9.58607 10.9926C9.29378 11.4583 9.26779 12.1533 9.4291 12.3608C9.5148 12.4588 9.65609 12.5018 9.7602 12.4712C9.94391 12.3916 10.0245 12.0196 9.98097 11.8835C9.91965 11.7876 9.87114 11.7725 9.80995 11.8539C9.68072 12.1162 9.62699 11.9368 9.61567 11.7903C9.5959 11.5121 9.62276 11.2562 9.65299 11.0533C9.66915 10.9493 9.66853 10.913 9.65609 10.9134ZM19.6143 11.5248C19.5907 11.5235 19.5671 11.5284 19.5459 11.5389C19.5413 11.5389 19.3367 11.6772 19.2708 11.7736C19.2306 11.8042 19.2351 11.8308 19.2474 11.884C19.2787 11.956 19.334 11.9334 19.3966 11.8996C19.4799 11.8883 19.52 11.9427 19.5133 12.0426C19.4749 12.1671 19.5303 12.2136 19.5303 12.2215C19.5303 12.2293 19.6104 12.2981 19.7045 12.2432C19.903 12.1675 20.0266 12.0937 20.3046 12.0333C20.3776 12.0318 20.3734 11.8365 20.258 11.8296C20.1075 11.8371 19.9685 11.8449 19.8179 11.9633C19.7252 11.9847 19.7095 11.9283 19.6889 11.8777C19.6654 11.7522 19.7419 11.6639 19.7262 11.5699C19.7305 11.574 19.6795 11.5283 19.6143 11.5248ZM25.9904 11.7626C25.9535 11.7638 25.9147 11.7689 25.8582 11.7735C25.7973 11.7864 25.776 11.813 25.7649 11.887C25.7693 11.999 25.8378 11.9935 25.908 12.0378C25.9486 12.0895 25.975 12.1363 25.9049 12.2212C25.8384 12.2822 25.791 12.3158 25.7245 12.3767C25.6932 12.4303 25.6736 12.5125 25.7695 12.5384C25.9469 12.5883 26.3572 12.3216 26.3572 12.316C26.4236 12.2661 26.4016 12.1715 26.3961 12.1715C26.3573 12.1272 26.2699 12.1538 26.2111 12.1466C26.1831 12.1466 26.0912 12.133 26.135 12.0518C26.1714 12.0012 26.1848 11.971 26.2096 11.9088C26.2373 11.8478 26.2129 11.8068 26.1132 11.7735C26.0728 11.7653 26.0316 11.7617 25.9904 11.7626ZM23.3267 17.1557C23.3264 17.1559 23.3256 17.157 23.3251 17.1573C23.0302 17.233 23.0394 17.5391 23.2287 17.6735C20.1147 17.6735 15.3357 17.6206 14.3108 17.6206C13.7374 17.6206 11.9234 17.5522 11.8886 17.5522C12.2776 18.1212 12.8412 18.237 13.5786 18.2487C14.9618 18.2487 21.3706 18.2315 23.1945 18.2315C23.0648 18.4618 23.2063 18.8323 23.308 18.9001C23.3142 18.9041 23.3211 18.9072 23.3282 18.9093C23.3295 18.9097 23.3317 18.9092 23.3328 18.9093C23.4536 18.9378 23.5067 18.8503 23.5474 18.7864C23.7433 18.8037 24.8458 18.8196 24.9466 18.7849C24.947 18.7848 24.9479 18.7835 24.9483 18.7834C25.0164 18.8838 25.0842 18.9787 25.2141 18.9623C25.4413 18.9135 25.6204 18.8888 25.6261 18.4274C25.6261 18.4274 25.6029 17.6412 25.0866 17.6905C24.9644 17.7089 24.6218 17.7434 24.6218 17.7434C24.2251 17.6962 23.9343 17.6914 23.4884 17.675C23.5296 17.6227 23.6022 17.4111 23.5133 17.3345C23.49 17.3153 23.4555 17.3046 23.4076 17.308H23.403C23.4026 17.3079 23.4017 17.3065 23.4014 17.3064C23.4 17.306 23.3979 17.3057 23.3968 17.3049C23.3938 17.3027 23.3911 17.3001 23.3889 17.2971C23.3884 17.2965 23.3863 17.2947 23.3858 17.294C23.3633 17.2611 23.351 17.1807 23.3361 17.1603L23.3346 17.1588L23.333 17.1572L23.3299 17.1556H23.3284C23.3281 17.1558 23.3269 17.1557 23.3267 17.1557ZM23.5382 18.2797C23.5388 18.2794 23.5392 18.2799 23.5397 18.2797C23.994 18.3018 24.4209 18.2839 24.8752 18.306C24.9473 18.3672 24.9112 18.5075 24.8643 18.533C24.8618 18.5343 24.8592 18.5353 24.8566 18.5361C24.8549 18.5366 24.8521 18.5361 24.8504 18.5361C24.8486 18.5361 24.8459 18.5366 24.8442 18.5361C24.6964 18.5324 24.6109 18.5291 24.4632 18.5252C24.4631 18.5178 24.462 18.5105 24.4601 18.5034C24.425 18.3997 24.1715 18.4067 24.1118 18.4879L24.1087 18.4925C24.1077 18.4941 24.1063 18.4971 24.1056 18.4987L24.1025 18.5064C24.1015 18.5095 24.1014 18.5141 24.101 18.5174C24.1005 18.5211 24.0991 18.5259 24.0994 18.5298C23.8999 18.5538 23.7205 18.5232 23.521 18.5158C23.4626 18.4432 23.4694 18.3114 23.5382 18.2797Z" fill="white"/>
</g>
<defs>
<clipPath id="clip0_3_2867">
<rect width="37.4378" height="25" rx="4" fill="white"/>
</clipPath>
</defs>
</svg>
