<svg width="115" height="142" viewBox="0 0 115 142" fill="none" xmlns="http://www.w3.org/2000/svg">
<path d="M36.6612 40.5604C38.6281 40.5604 40.597 40.5138 42.5639 40.5753C44.2945 40.6283 45.57 40.0025 46.5598 38.5854C48.3194 35.9694 50.9684 34.0618 54.0278 33.2078C56.5848 32.4769 59.3025 32.5025 61.8448 33.2814C64.3872 34.0604 66.6427 35.5585 68.3324 37.5905C68.5085 37.7831 68.6693 37.9888 68.8134 38.2057C69.8999 40.0577 71.5275 40.6538 73.6618 40.5901C77.5053 40.4735 81.3573 40.5901 85.203 40.5477C87.0834 40.5379 88.8871 39.81 90.2366 38.5162C91.5861 37.2225 92.3768 35.4632 92.4433 33.6066C92.4734 32.8429 92.2995 32.0665 92.1749 31.3028C91.9795 30.1148 92.0246 28.9947 92.759 27.9574C94.5154 25.4711 98.1549 25.5984 99.6 28.2735C100.178 29.3861 100.65 30.5494 101.011 31.7483C105.47 45.7854 103.875 59.1012 95.5353 71.3288C88.1275 82.1923 77.6406 88.6392 64.5018 90.5845C52.2177 92.4067 40.9256 89.6935 30.9153 82.4087C21.0039 75.196 14.9724 65.5035 12.8789 53.5093C11.4188 45.1426 12.4215 37.005 15.6208 29.1284C15.7588 28.7656 15.9277 28.4151 16.1254 28.0804C16.5984 27.2927 17.3375 26.6951 18.2126 26.3928C19.0877 26.0905 20.0427 26.1029 20.9094 26.4279C22.7624 27.1428 23.8876 28.9863 23.5354 30.8509C23.2799 32.2107 22.9986 33.5345 23.355 34.9409C24.156 38.1081 26.9237 40.4416 30.2261 40.535C32.3733 40.5944 34.5205 40.5456 36.6527 40.5456L36.6612 40.5604ZM36.7386 51.7082C34.8061 51.7082 32.8907 51.7422 30.969 51.7082C25.0213 51.5852 21.6824 57.6332 24.1495 62.4169C26.9559 67.8625 30.7264 72.4955 35.7745 76.034C37.6799 77.4062 39.7183 78.5887 41.8596 79.5639C46.7982 81.7256 52.1426 78.2042 52.1876 72.8774C52.222 68.8659 52.1876 64.8523 52.1876 60.8407C52.1876 59.4449 51.668 58.2951 50.5064 57.5123C48.88 56.4159 47.4741 55.0305 46.3602 53.4266C45.5013 52.1834 44.2967 51.6616 42.7679 51.6976C40.7603 51.7443 38.7483 51.7082 36.7364 51.7082H36.7386ZM78.989 51.7082C76.9792 51.7082 74.9673 51.7507 72.9596 51.6955C71.3278 51.651 70.076 52.2343 69.1785 53.575C68.1876 55.0572 66.9018 56.3246 65.3994 57.3002C64.038 58.189 63.4454 59.4215 63.4669 61.0189C63.4948 64.9032 63.4669 68.7853 63.4905 72.6674C63.4777 73.3572 63.5498 74.0461 63.7052 74.7187C63.9708 75.7706 64.4721 76.7501 65.1723 77.5848C65.8724 78.4196 66.7535 79.0882 67.7504 79.5413C68.7472 79.9944 69.8344 80.2205 70.9315 80.2027C72.0287 80.185 73.1078 79.9239 74.0891 79.4388C81.9607 75.6946 87.8484 69.8926 91.621 62.1157C94.0022 57.2047 90.4164 51.757 84.8938 51.721C82.9227 51.6976 80.9558 51.7104 78.989 51.7104V51.7082ZM57.8605 39.4998C56.972 39.4778 56.0879 39.6307 55.2597 39.9493C54.4314 40.268 53.6756 40.7462 53.0361 41.356C52.3966 41.9659 51.8862 42.6952 51.5346 43.5017C51.1829 44.3082 50.9971 45.1757 50.9878 46.0538C50.9786 46.9319 51.1461 47.803 51.4807 48.6165C51.8153 49.4301 52.3102 50.1698 52.9367 50.7927C53.5632 51.4155 54.3088 51.9091 55.1301 52.2448C55.9515 52.5804 56.8322 52.7514 57.721 52.7477C61.5237 52.7753 64.5319 49.8923 64.5555 46.1969C64.5681 45.3211 64.404 44.4515 64.073 43.6389C63.742 42.8263 63.2507 42.0869 62.6276 41.4638C62.0044 40.8407 61.2621 40.3463 60.4437 40.0095C59.6252 39.6727 58.7471 39.5001 57.8605 39.5019V39.4998Z" fill="#4044C9"/>
<path d="M34.7126 16.5698L40.352 22.0507C40.6629 21.85 41.1667 21.5278 41.6664 21.197C52.9301 13.791 68.313 15.1591 78.08 24.424C79.1414 25.4314 79.8747 26.5796 79.6732 28.0949C79.4588 29.749 78.5174 30.8951 76.935 31.4436C75.4018 31.9772 73.9995 31.6827 72.8245 30.543C69.8561 27.6123 66.0663 25.6443 61.9531 24.8978C55.2052 23.6642 49.137 25.2243 43.8364 29.5932C43.534 29.8429 43.251 30.1161 42.9593 30.3765C40.9373 32.1736 38.8381 32.1501 36.9233 30.2783C35.15 28.541 33.4003 26.7802 31.6398 25.0301C29.8794 23.28 28.1726 21.4872 26.3414 19.8054C23.942 17.5943 24.2229 15.0332 26.483 12.9586C33.4496 6.56648 41.5313 2.43665 50.9274 1.12194C65.4869 -0.914165 78.213 3.09188 89.0714 12.9544C89.3982 13.2422 89.7028 13.554 89.9827 13.8871C91.4237 15.6372 91.3272 17.7501 89.7533 19.2868C88.1794 20.8235 85.8937 20.8832 84.189 19.4212C83.0354 18.4267 81.9333 17.3659 80.7303 16.4333C75.4097 12.2748 69.0313 9.67202 62.3091 8.91632C52.3533 7.74887 43.3517 10.1969 35.2808 16.0875C35.0814 16.239 34.8948 16.4162 34.7126 16.5698Z" fill="#20BB74"/>
<path d="M16.0369 135.304C16.0476 136.407 15.9229 137.507 15.6653 138.579C15.4895 139.452 15.026 140.24 14.3491 140.818C13.6775 141.489 12.9769 141.885 12.2561 142H6.68667C5.74363 142.014 4.80924 141.818 3.95122 141.427C3.18341 141.058 2.51262 140.514 1.99253 139.839C1.44677 139.105 1.05676 138.267 0.846423 137.377C0.594479 136.352 0.46967 135.299 0.474824 134.243V122.61H3.81692V135.338C3.83875 135.832 3.92992 136.32 4.08777 136.788C4.19437 137.211 4.39916 137.602 4.68546 137.93C4.90906 138.27 5.22511 138.54 5.59652 138.707C5.97488 138.891 6.39124 138.984 6.81204 138.978H10.8973C11.4649 138.835 11.9586 138.486 12.2807 137.997C12.5495 137.463 12.6884 136.873 12.6859 136.276C11.8529 136.285 11.0231 136.171 10.2235 135.938C9.46844 135.75 8.77173 135.378 8.19585 134.855C7.61998 134.332 7.18295 133.674 6.92396 132.94C6.58496 131.988 6.42483 130.981 6.45164 129.97V122.104C6.42281 121.281 6.57567 120.463 6.89934 119.706C7.13707 119.123 7.50723 118.604 7.98053 118.189C8.43651 117.814 8.96559 117.538 9.53406 117.378C10.1095 117.244 10.6982 117.176 11.289 117.175H16.0481L16.0369 135.304ZM6.88814 115.487V112.787H10.2974V115.487H6.88814ZM11.9181 119.776C11.1973 119.776 10.669 119.978 10.3332 120.382C10.0004 120.809 9.83401 121.51 9.83401 122.484V130.384C9.82295 130.827 9.86884 131.269 9.97056 131.7C10.0585 132.03 10.2106 132.34 10.4183 132.611C10.6037 132.856 10.8637 133.035 11.1592 133.119C11.5305 133.236 11.9183 133.293 12.3076 133.287H12.6456V119.776H11.9181ZM11.9516 115.487V112.787H15.3631V115.487H11.9516Z" fill="#4044C9"/>
<path d="M30.8917 133.278V136.282H28.0554V137.531C27.977 138.269 27.8071 138.995 27.5495 139.691C27.1556 140.605 26.526 141.397 25.7252 141.988L22.992 140.333C23.4909 140.011 23.9258 139.599 24.2746 139.118C24.5681 138.639 24.7309 138.092 24.747 137.531V136.282C23.914 136.291 23.0842 136.177 22.2846 135.944C21.5272 135.757 20.8282 135.384 20.2506 134.86C19.673 134.335 19.235 133.676 18.9761 132.94C18.6371 131.987 18.477 130.98 18.5038 129.969V122.103C18.4737 121.281 18.6267 120.462 18.9515 119.706C19.1892 119.123 19.5594 118.603 20.0327 118.188C20.4882 117.813 21.0164 117.538 21.5839 117.378C22.1601 117.244 22.7496 117.175 23.3412 117.174H28.1002V133.278H30.8917ZM23.9702 119.775C23.2494 119.775 22.7204 119.977 22.3831 120.382C22.0473 120.809 21.8772 121.501 21.8772 122.475V130.374C21.8661 130.817 21.912 131.259 22.0137 131.691C22.1016 132.021 22.2537 132.33 22.4614 132.602C22.6469 132.847 22.9069 133.025 23.2024 133.11C23.5737 133.227 23.9615 133.283 24.3508 133.278H24.7223V119.775H23.9702Z" fill="#4044C9"/>
<path d="M51.8216 133.278V136.282H29.9111V133.278H33.1144V119.976H36.4722V133.278H39.3822V118.559H42.74V133.278H45.6501V117.174H49.0257V133.278H51.8216Z" fill="#4044C9"/>
<path d="M50.7739 136.282V133.278H53.9817V109.006H57.2902V136.282H50.7739Z" fill="#4044C9"/>
<path d="M59.3162 136.282V109.006H62.6627V136.282H59.3162Z" fill="#4044C9"/>
<path d="M80.0424 133.278V136.282H77.2399V137.531C77.152 138.271 76.9707 138.997 76.7003 139.691C76.3248 140.606 75.7054 141.4 74.9095 141.988L72.1069 140.333C72.6059 140.011 73.0408 139.599 73.3896 139.118C73.7107 138.65 73.8867 138.098 73.8955 137.531V117.174H77.2376V133.278H80.0424Z" fill="#4044C9"/>
<path d="M88.9203 117.174C89.5891 117.158 90.2546 117.273 90.879 117.512C91.429 117.716 91.9266 118.04 92.3355 118.461C92.7445 118.882 93.0544 119.388 93.2429 119.943C93.4523 120.598 93.555 121.282 93.5473 121.969V133.278H96.3477V136.282H79.0642V133.278H84.8709V126.393C84.8709 124.096 84.5441 122.418 83.8904 121.36C83.2368 120.302 82.3145 119.774 81.1236 119.776V117.174H88.9203ZM86.458 119.776C87.0793 120.711 87.526 121.752 87.7764 122.847C88.1054 124.286 88.264 125.76 88.2488 127.236V133.28H90.1963V123.118C90.1963 122.824 90.1716 122.408 90.1269 121.869C90.1036 121.506 90.0125 121.15 89.8583 120.821C89.7055 120.517 89.4859 120.251 89.2158 120.044C88.863 119.856 88.4671 119.763 88.0675 119.776H86.458Z" fill="#4044C9"/>
<path d="M95.3448 136.282V133.278H98.5168V119.976H101.892V133.278H104.803V118.559H108.18V133.278H111.09V117.174H114.435V136.282H95.3448Z" fill="#4044C9"/>
</svg>
