<svg width="16" height="16" viewBox="0 0 16 16" fill="none" xmlns="http://www.w3.org/2000/svg">
<path d="M13.28 6.42664L13.898 5.80864C14.3897 5.31702 14.6658 4.65024 14.6658 3.95498C14.6658 3.25972 14.3897 2.59293 13.898 2.10131C13.4064 1.60969 12.7396 1.3335 12.0444 1.3335C11.3491 1.3335 10.6823 1.60969 10.1907 2.10131L9.5727 2.71931L3.89136 8.39931C3.50669 8.78464 3.31403 8.97731 3.1487 9.18931C2.95362 9.43963 2.7862 9.71031 2.64936 9.99664C2.53403 10.2393 2.44803 10.498 2.27603 11.014L1.5467 13.2013M13.28 6.42664C13.28 6.42664 11.9674 6.34931 10.8087 5.19064C9.65003 4.03264 9.57336 2.71931 9.57336 2.71931M13.28 6.42664L7.59936 12.1066C7.21469 12.4913 7.02203 12.684 6.81003 12.8493C6.55971 13.0444 6.28903 13.2118 6.0027 13.3486C5.76003 13.464 5.50203 13.55 4.98536 13.722L2.79803 14.4513M2.79803 14.4513L2.26336 14.63C2.13873 14.6718 2.00491 14.678 1.87695 14.6479C1.74899 14.6178 1.63196 14.5526 1.53901 14.4597C1.44606 14.3667 1.38088 14.2497 1.35079 14.1217C1.3207 13.9938 1.3269 13.8599 1.36869 13.7353L1.54736 13.2006L2.79803 14.4513Z" stroke="#4044C9"/>
</svg>
